0
SECTION
2
HEADER
9
$INSUNITS
70
4
9
$ACADVER
1
AC1014
9
$HANDSEED
5
FFFF
0
ENDSEC
0
SECTION
2
TABLES
0
TABLE
2
VPORT
5
8
100
AcDbSymbolTable
0
ENDTAB
0
TABLE
2
LTYPE
5
5
100
AcDbSymbolTable
0
LTYPE
5
14
100
AcDbSymbolTableRecord
100
AcDbLinetypeTableRecord
2
BYBLOCK
70
0
0
LTYPE
5
15
100
AcDbSymbolTableRecord
100
AcDbLinetypeTableRecord
2
BYLAYER
70
0
0
ENDTAB
0
TABLE
2
LAYER
5
2
100
AcDbSymbolTable
70
2
0
LAYER
5
50
100
AcDbSymbolTableRecord
100
AcDbLayerTableRecord
2
0
70
0
6
CONTINUOUS
0
ENDTAB
0
TABLE
2
STYLE
5
3
100
AcDbSymbolTable
70
1
0
STYLE
5
11
100
AcDbSymbolTableRecord
100
AcDbTextStyleTableRecord
2
STANDARD
70
0
0
ENDTAB
0
TABLE
2
VIEW
5
6
100
AcDbSymbolTable
70
0
0
ENDTAB
0
TABLE
2
UCS
5
7
100
AcDbSymbolTable
70
0
0
ENDTAB
0
TABLE
2
APPID
5
9
100
AcDbSymbolTable
70
2
0
APPID
5
12
100
AcDbSymbolTableRecord
100
AcDbRegAppTableRecord
2
ACAD
70
0
0
ENDTAB
0
TABLE
2
DIMSTYLE
5
A
100
AcDbSymbolTable
70
1
0
ENDTAB
0
TABLE
2
BLOCK_RECORD
5
1
100
AcDbSymbolTable
70
1
0
BLOCK_RECORD
5
1F
100
AcDbSymbolTableRecord
100
AcDbBlockTableRecord
2
*MODEL_SPACE
0
BLOCK_RECORD
5
1B
100
AcDbSymbolTableRecord
100
AcDbBlockTableRecord
2
*PAPER_SPACE
0
ENDTAB
0
ENDSEC
0
SECTION
2
BLOCKS
0
BLOCK
5
20
100
AcDbEntity
100
AcDbBlockBegin
2
*MODEL_SPACE
0
ENDBLK
5
21
100
AcDbEntity
100
AcDbBlockEnd
0
BLOCK
5
1C
100
AcDbEntity
100
AcDbBlockBegin
2
*PAPER_SPACE
0
ENDBLK
5
1D
100
AcDbEntity
100
AcDbBlockEnd
0
ENDSEC
0
SECTION
2
ENTITIES
0
CIRCLE
5
100
100
AcDbEntity
8
0
100
AcDbCircle
10
242.58648772889552
20
-123.0428999358827
30
1.6792123247455493e-13
40
0.2474596935987351
210
5.9518183303251119e-16
220
2.5396351661417011e-15
230
1
0
CIRCLE
5
101
100
AcDbEntity
8
0
100
AcDbCircle
10
242.58648871735653
20
-117.04289993588283
30
1.5237811012980274e-13
40
0.2474596935987351
210
5.9518183303251119e-16
220
2.5396351661417011e-15
230
1
0
CIRCLE
5
102
100
AcDbEntity
8
0
100
AcDbCircle
10
242.58648970581862
20
-111.04289993588284
30
1.3739009929736312e-13
40
0.2474596935987351
210
5.9518183303251119e-16
220
2.5396351661417011e-15
230
1
0
LWPOLYLINE
5
103
100
AcDbEntity
8
0
100
AcDbPolyline
90
16
70
1
43
0.0
10
50.285649720313721
20
-126.35262378343405
10
51.17561472121227
20
-127.19008878247914
42
0.19102828449675985
10
52.54621872179542
20
-127.73356678095521
10
208.37204372179525
20
-127.73324661380906
42
0.19131414895840165
10
209.74202172120087
20
-127.18913861232785
10
210.94003571999369
20
-126.05930261104373
42
-0.12701722586194383
10
211.90828171973089
20
-125.80930260999807
10
303.40648671973099
20
-125.8093025118381
42
0.41421329287325104
10
304.40648771865756
20
-124.80930251076512
10
304.40648559358857
20
-8.2463025107650978
42
0.4142127071072399
10
303.40648659251553
20
-7.2463025118359914
10
1.1064855925152628
20
-7.2463028362027266
42
0.41421270710547869
10
0.10648659359470036
20
-8.2463028372757208
10
0.10648671865751969
20
-124.80914583727575
42
0.41421399997644825
10
1.1064867197305124
20
-125.8091458361275
10
48.915049719730568
20
-125.8091457849069
42
-0.19102876625821869
0
CIRCLE
5
104
100
AcDbEntity
8
0
100
AcDbCircle
10
300.21148670977914
20
-116.5343035152663
30
1.1685097334179773e-13
40
0.8509000000000001
210
5.9518183303251119e-16
220
2.539635166056542e-15
230
1
0
CIRCLE
5
105
100
AcDbEntity
8
0
100
AcDbCircle
10
290.05148670977911
20
-116.53430352616788
30
1.2295719997723609e-13
40
0.8509000000000001
210
5.9518183303251119e-16
220
2.539635166056542e-15
230
1
0
CIRCLE
5
106
100
AcDbEntity
8
0
100
AcDbCircle
10
281.16148670977907
20
-116.53430353570677
30
1.2850831510036187e-13
40
0.8509000000000001
210
5.9518183303251119e-16
220
2.539635166056542e-15
230
1
0
CIRCLE
5
107
100
AcDbEntity
8
0
100
AcDbCircle
10
271.0014867097791
20
-116.5343035466083
30
1.3433698597964394e-13
40
0.8509000000000001
210
5.9518183303251119e-16
220
2.539635166056542e-15
230
1
0
CIRCLE
5
108
100
AcDbEntity
8
0
100
AcDbCircle
10
262.11148670977906
20
-116.53430355614719
30
1.3961054534661343e-13
40
0.8509000000000001
210
5.9518183303251119e-16
220
2.539635166056542e-15
230
1
0
CIRCLE
5
109
100
AcDbEntity
8
0
100
AcDbCircle
10
251.95148670977909
20
-116.53430356704877
30
1.457167719820518e-13
40
0.8509000000000001
210
5.9518183303251119e-16
220
2.539635166056542e-15
230
1
0
CIRCLE
5
110
100
AcDbEntity
8
0
100
AcDbCircle
10
231.15523670977907
20
-116.53430358936291
30
1.5820678100908481e-13
40
0.8509000000000001
210
5.9518183303251119e-16
220
2.539635166056542e-15
230
1
0
CIRCLE
5
111
100
AcDbEntity
8
0
100
AcDbCircle
10
237.02336169398484
20
-101.81430358306649
30
1.174060848541103e-13
40
0.38100000000000001
210
5.9518183303251119e-16
220
2.53963516615994e-15
230
1
0
CIRCLE
5
112
100
AcDbEntity
8
0
100
AcDbCircle
10
237.02336169125948
20
-99.274303583066512
30
1.1074474670635936e-13
40
0.38100000000000001
210
5.9518183303251119e-16
220
2.53963516615994e-15
230
1
0
CIRCLE
5
113
100
AcDbEntity
8
0
100
AcDbCircle
10
234.48336169398482
20
-101.81430358579189
30
1.1879386363489175e-13
40
0.38100000000000001
210
5.9518183303251119e-16
220
2.53963516615994e-15
230
1
0
CIRCLE
5
114
100
AcDbEntity
8
0
100
AcDbCircle
10
234.48336169125946
20
-99.274303585791898
30
1.124100812432971e-13
40
0.38100000000000001
210
5.9518183303251119e-16
220
2.53963516615994e-15
230
1
0
CIRCLE
5
115
100
AcDbEntity
8
0
100
AcDbCircle
10
220.99523670977902
20
-116.53430360026448
30
1.6431300764452317e-13
40
0.8509000000000001
210
5.9518183303251119e-16
220
2.539635166056542e-15
230
1
0
CIRCLE
5
116
100
AcDbEntity
8
0
100
AcDbCircle
10
207.34273570977902
20
-116.53430361491348
30
1.7236212457305555e-13
40
0.8509000000000001
210
5.9518183303251119e-16
220
2.539635166056542e-15
230
1
0
CIRCLE
5
117
100
AcDbEntity
8
0
100
AcDbCircle
10
197.18273770977905
20
-116.53430362581506
30
1.7819079545233762e-13
40
0.8509000000000001
210
5.9518183303251119e-16
220
2.539635166056542e-15
230
1
0
CIRCLE
5
118
100
AcDbEntity
8
0
100
AcDbCircle
10
180.86323671863647
20
-124.7893036433257
30
2.0899948438568572e-13
40
1.9939000000000007
210
5.9518183303251119e-16
220
2.5396351661599396e-15
230
1
0
CIRCLE
5
119
100
AcDbEntity
8
0
100
AcDbCircle
10
157.26898671873724
20
-124.88324666864204
30
2.2343238370581275e-13
40
0.45000000000000007
210
5.9518183303251119e-16
220
2.53963516615994e-15
230
1
0
CIRCLE
5
120
100
AcDbEntity
8
0
100
AcDbCircle
10
154.26898671873721
20
-124.88324667186103
30
2.2509771824275049e-13
40
0.45000000000000007
210
5.9518183303251119e-16
220
2.53963516615994e-15
230
1
0
CIRCLE
5
121
100
AcDbEntity
8
0
100
AcDbCircle
10
180.86323670228427
20
-109.54930364332571
30
1.7014167852380524e-13
40
1.524
210
5.9518183303251119e-16
220
2.53963516615994e-15
230
1
0
CIRCLE
5
122
100
AcDbEntity
8
0
100
AcDbCircle
10
300.21148668933893
20
-97.484303515266333
30
6.8556271770603416e-14
40
0.8509000000000001
210
5.9518183303251119e-16
220
2.539635166056542e-15
230
1
0
CIRCLE
5
123
100
AcDbEntity
8
0
100
AcDbCircle
10
290.0514866893389
20
-97.484303526167906
30
7.4662498406041777e-14
40
0.8509000000000001
210
5.9518183303251119e-16
220
2.539635166056542e-15
230
1
0
CIRCLE
5
124
100
AcDbEntity
8
0
100
AcDbCircle
10
281.16148668933886
20
-97.4843035357068
30
7.9936057773011271e-14
40
0.8509000000000001
210
5.9518183303251119e-16
220
2.539635166056542e-15
230
1
0
CIRCLE
5
125
100
AcDbEntity
8
0
100
AcDbCircle
10
271.00148668933889
20
-97.484303546608331
30
8.6042284408449632e-14
40
0.8509000000000001
210
5.9518183303251119e-16
220
2.539635166056542e-15
230
1
0
CIRCLE
5
126
100
AcDbEntity
8
0
100
AcDbCircle
10
276.11322767639342
20
-85.419313541123472
30
5.2458037913538647e-14
40
1.524
210
5.9518183303251119e-16
220
2.53963516615994e-15
230
1
0
CIRCLE
5
127
100
AcDbEntity
8
0
100
AcDbCircle
10
254.96773668933884
20
-97.484303563812375
30
9.5479180117763462e-14
40
0.8509000000000001
210
5.9518183303251119e-16
220
2.539635166056542e-15
230
1
0
CIRCLE
5
128
100
AcDbEntity
8
0
100
AcDbCircle
10
244.80773668933887
20
-97.484303574713948
30
1.0158540675320182e-13
40
0.8509000000000001
210
5.9518183303251119e-16
220
2.539635166056542e-15
230
1
0
CIRCLE
5
129
100
AcDbEntity
8
0
100
AcDbCircle
10
237.02336168853412
20
-96.734303583066492
30
1.0436096431476471e-13
40
0.38100000000000001
210
5.9518183303251119e-16
220
2.53963516615994e-15
230
1
0
CIRCLE
5
130
100
AcDbEntity
8
0
100
AcDbCircle
10
228.77398668933881
20
-97.484304591917976
30
1.1102230246251565e-13
40
0.8509000000000001
210
5.9518183303251119e-16
220
2.539635166056542e-15
230
1
0
CIRCLE
5
131
100
AcDbEntity
8
0
100
AcDbCircle
10
234.4833616885341
20
-96.734303585791892
30
1.0602629885170245e-13
40
0.38100000000000001
210
5.9518183303251119e-16
220
2.53963516615994e-15
230
1
0
CIRCLE
5
132
100
AcDbEntity
8
0
100
AcDbCircle
10
237.02336168580874
20
-94.194303583066485
30
9.7977181923170065e-14
40
0.38100000000000001
210
5.9518183303251119e-16
220
2.53963516615994e-15
230
1
0
CIRCLE
5
133
100
AcDbEntity
8
0
100
AcDbCircle
10
234.48336168580875
20
-94.194303585791886
30
9.96425164601078e-14
40
0.38100000000000001
210
5.9518183303251119e-16
220
2.53963516615994e-15
230
1
0
CIRCLE
5
134
100
AcDbEntity
8
0
100
AcDbCircle
10
252.23722767639339
20
-85.419313566742147
30
6.6613381477509392e-14
40
1.524
210
5.9518183303251119e-16
220
2.53963516615994e-15
230
1
0
CIRCLE
5
135
100
AcDbEntity
8
0
100
AcDbCircle
10
237.02336168308338
20
-91.654303583066479
30
9.1593399531575415e-14
40
0.38100000000000001
210
5.9518183303251119e-16
220
2.53963516615994e-15
230
1
0
CIRCLE
5
136
100
AcDbEntity
8
0
100
AcDbCircle
10
234.48336168308339
20
-91.654303585791865
30
9.298117831235686e-14
40
0.38100000000000001
210
5.9518183303251119e-16
220
2.53963516615994e-15
230
1
0
CIRCLE
5
137
100
AcDbEntity
8
0
100
AcDbCircle
10
300.21148666889866
20
-78.434303515266294
30
1.9984014443252818e-14
40
0.8509000000000001
210
5.9518183303251119e-16
220
2.539635166056542e-15
230
1
0
CIRCLE
5
138
100
AcDbEntity
8
0
100
AcDbCircle
10
290.05148666889863
20
-78.434303526167866
30
2.6367796834847468e-14
40
0.8509000000000001
210
5.9518183303251119e-16
220
2.539635166056542e-15
230
1
0
CIRCLE
5
139
100
AcDbEntity
8
0
100
AcDbCircle
10
269.25522766889867
20
-78.434313548482038
30
3.858025010572419e-14
40
0.8509000000000001
210
5.9518183303251119e-16
220
2.539635166056542e-15
230
1
0
CIRCLE
5
140
100
AcDbEntity
8
0
100
AcDbCircle
10
259.09522766889864
20
-78.434313559383611
30
4.496403249731884e-14
40
0.8509000000000001
210
5.9518183303251119e-16
220
2.539635166056542e-15
230
1
0
CIRCLE
5
141
100
AcDbEntity
8
0
100
AcDbCircle
10
238.29898666889861
20
-78.434302581697736
30
5.7176485768195562e-14
40
0.8509000000000001
210
5.9518183303251119e-16
220
2.539635166056542e-15
230
1
0
CIRCLE
5
142
100
AcDbEntity
8
0
100
AcDbCircle
10
228.13898666889861
20
-78.434302592599309
30
6.3005156647477634e-14
40
0.8509000000000001
210
5.9518183303251119e-16
220
2.539635166056542e-15
230
1
0
CIRCLE
5
143
100
AcDbEntity
8
0
100
AcDbCircle
10
218.61398668933879
20
-97.484304602819549
30
1.1712852909795402e-13
40
0.8509000000000001
210
5.9518183303251119e-16
220
2.539635166056542e-15
230
1
0
CIRCLE
5
144
100
AcDbEntity
8
0
100
AcDbCircle
10
209.72398568933883
20
-97.484303612358445
30
1.2240208846492351e-13
40
0.8509000000000001
210
5.9518183303251119e-16
220
2.539635166056542e-15
230
1
0
CIRCLE
5
145
100
AcDbEntity
8
0
100
AcDbCircle
10
199.56398568933881
20
-97.484303623260018
30
1.2878587085651816e-13
40
0.8509000000000001
210
5.9518183303251119e-16
220
2.539635166056542e-15
230
1
0
CIRCLE
5
146
100
AcDbEntity
8
0
100
AcDbCircle
10
190.67398668933879
20
-97.484303632798913
30
1.3378187446733136e-13
40
0.8509000000000001
210
5.9518183303251119e-16
220
2.539635166056542e-15
230
1
0
CIRCLE
5
147
100
AcDbEntity
8
0
100
AcDbCircle
10
180.51398668933876
20
-97.484303643700486
30
1.3988810110276972e-13
40
0.8509000000000001
210
5.9518183303251119e-16
220
2.539635166056542e-15
230
1
0
CIRCLE
5
148
100
AcDbEntity
8
0
100
AcDbCircle
10
171.62398668933878
20
-97.484303653239337
30
1.4516166046973922e-13
40
0.8509000000000001
210
5.9518183303251119e-16
220
2.539635166056542e-15
230
1
0
CIRCLE
5
149
100
AcDbEntity
8
0
100
AcDbCircle
10
161.46398668933875
20
-97.48430366414091
30
1.5126788710517758e-13
40
0.8509000000000001
210
5.9518183303251119e-16
220
2.539635166056542e-15
230
1
0
CIRCLE
5
150
100
AcDbEntity
8
0
100
AcDbCircle
10
152.57398668933877
20
-97.484303673679761
30
1.5654144647214707e-13
40
0.8509000000000001
210
5.9518183303251119e-16
220
2.539635166056542e-15
230
1
0
CIRCLE
5
151
100
AcDbEntity
8
0
100
AcDbCircle
10
219.2489866688986
20
-78.434302602138189
30
6.8278716014447127e-14
40
0.8509000000000001
210
5.9518183303251119e-16
220
2.539635166056542e-15
230
1
0
CIRCLE
5
152
100
AcDbEntity
8
0
100
AcDbCircle
10
209.08898666889857
20
-78.434302613039762
30
7.4662498406041777e-14
40
0.8509000000000001
210
5.9518183303251119e-16
220
2.539635166056542e-15
230
1
0
CIRCLE
5
153
100
AcDbEntity
8
0
100
AcDbCircle
10
200.19898666889858
20
-78.434303622578639
30
7.9658502016854982e-14
40
0.8509000000000001
210
5.9518183303251119e-16
220
2.539635166056542e-15
230
1
0
CIRCLE
5
154
100
AcDbEntity
8
0
100
AcDbCircle
10
190.03898666889859
20
-78.434303633480212
30
8.6042284408449632e-14
40
0.8509000000000001
210
5.9518183303251119e-16
220
2.539635166056542e-15
230
1
0
CIRCLE
5
155
100
AcDbEntity
8
0
100
AcDbCircle
10
181.14898666889854
20
-78.434303643019078
30
9.1038288019262836e-14
40
0.8509000000000001
210
5.9518183303251119e-16
220
2.539635166056542e-15
230
1
0
CIRCLE
5
156
100
AcDbEntity
8
0
100
AcDbCircle
10
170.98898666889855
20
-78.434303653920651
30
9.7144514654701197e-14
40
0.8509000000000001
210
5.9518183303251119e-16
220
2.539635166056542e-15
230
1
0
CIRCLE
5
157
100
AcDbEntity
8
0
100
AcDbCircle
10
162.09898666889856
20
-78.434303663459517
30
1.0241807402167069e-13
40
0.8509000000000001
210
5.9518183303251119e-16
220
2.539635166056542e-15
230
1
0
CIRCLE
5
158
100
AcDbEntity
8
0
100
AcDbCircle
10
147.46898671873723
20
-124.88324667915734
30
2.2898349882893854e-13
40
0.45000000000000007
210
5.9518183303251119e-16
220
2.53963516615994e-15
230
1
0
CIRCLE
5
159
100
AcDbEntity
8
0
100
AcDbCircle
10
144.4689867187372
20
-124.88324668237631
30
2.3064883336587627e-13
40
0.45000000000000007
210
5.9518183303251119e-16
220
2.53963516615994e-15
230
1
0
CIRCLE
5
160
100
AcDbEntity
8
0
100
AcDbCircle
10
135.90523670977893
20
-116.53430369156513
30
2.1482815526496779e-13
40
0.8509000000000001
210
5.9518183303251119e-16
220
2.539635166056542e-15
230
1
0
CIRCLE
5
161
100
AcDbEntity
8
0
100
AcDbCircle
10
125.74523670977894
20
-116.5343037024667
30
2.2093438190040615e-13
40
0.8509000000000001
210
5.9518183303251119e-16
220
2.539635166056542e-15
230
1
0
CIRCLE
5
162
100
AcDbEntity
8
0
100
AcDbCircle
10
80.78723671863635
20
-124.78930375070615
30
2.6867397195928788e-13
40
1.9939000000000007
210
5.9518183303251119e-16
220
2.5396351661599396e-15
230
1
0
CIRCLE
5
163
100
AcDbEntity
8
0
100
AcDbCircle
10
80.787236702284162
20
-109.54930375070617
30
2.298161660974074e-13
40
1.524
210
5.9518183303251119e-16
220
2.53963516615994e-15
230
1
0
CIRCLE
5
164
100
AcDbEntity
8
0
100
AcDbCircle
10
64.467736709778876
20
-116.53430376821682
30
2.5729418595688003e-13
40
0.8509000000000001
210
5.9518183303251119e-16
220
2.539635166056542e-15
230
1
0
CIRCLE
5
165
100
AcDbEntity
8
0
100
AcDbCircle
10
54.307736709778887
20
-116.53430377911839
30
2.6340041259231839e-13
40
0.8509000000000001
210
5.9518183303251119e-16
220
2.539635166056542e-15
230
1
0
CIRCLE
5
166
100
AcDbEntity
8
0
100
AcDbCircle
10
40.65523670977889
20
-116.53430379376736
30
2.7144952952085077e-13
40
0.8509000000000001
210
5.9518183303251119e-16
220
2.539635166056542e-15
230
1
0
CIRCLE
5
167
100
AcDbEntity
8
0
100
AcDbCircle
10
30.495236709778908
20
-116.53430380466894
30
2.7755575615628914e-13
40
0.8509000000000001
210
5.9518183303251119e-16
220
2.539635166056542e-15
230
1
0
CIRCLE
5
168
100
AcDbEntity
8
0
100
AcDbCircle
10
24.859611709778875
20
-116.5343028107159
30
2.808864252301646e-13
40
1.5000000000000004
210
5.9518183303251119e-16
220
2.539635166056542e-15
230
1
0
CIRCLE
5
169
100
AcDbEntity
8
0
100
AcDbCircle
10
16.842736709778876
20
-116.53430381931796
30
2.8588242884097781e-13
40
0.8509000000000001
210
5.9518183303251119e-16
220
2.539635166056542e-15
230
1
0
CIRCLE
5
170
100
AcDbEntity
8
0
100
AcDbCircle
10
6.6827367097788937
20
-116.53430383021949
30
2.9171109972025988e-13
40
0.8509000000000001
210
5.9518183303251119e-16
220
2.539635166056542e-15
230
1
0
CIRCLE
5
171
100
AcDbEntity
8
0
100
AcDbCircle
10
33.225702698196073
20
-105.7393138017392
30
2.4841240175987878e-13
40
1.9939000000000007
210
5.9518183303251119e-16
220
2.5396351661599396e-15
230
1
0
CIRCLE
5
172
100
AcDbEntity
8
0
100
AcDbCircle
10
9.349702698196154
20
-105.7393138273579
30
2.6284530108000581e-13
40
1.9939000000000007
210
5.9518183303251119e-16
220
2.5396351661599396e-15
230
1
0
CIRCLE
5
173
100
AcDbEntity
8
0
100
AcDbCircle
10
142.41398668933871
20
-97.484303684581334
30
1.6264767310758543e-13
40
0.8509000000000001
210
5.9518183303251119e-16
220
2.539635166056542e-15
230
1
0
CIRCLE
5
174
100
AcDbEntity
8
0
100
AcDbCircle
10
133.5239876893387
20
-97.484303694120229
30
1.6792123247455493e-13
40
0.8509000000000001
210
5.9518183303251119e-16
220
2.539635166056542e-15
230
1
0
CIRCLE
5
175
100
AcDbEntity
8
0
100
AcDbCircle
10
123.36398768933873
20
-97.484303705021802
30
1.73749903353837e-13
40
0.8509000000000001
210
5.9518183303251119e-16
220
2.539635166056542e-15
230
1
0
CIRCLE
5
176
100
AcDbEntity
8
0
100
AcDbCircle
10
114.47398568933875
20
-97.484303714560667
30
1.7930101847696278e-13
40
0.8509000000000001
210
5.9518183303251119e-16
220
2.539635166056542e-15
230
1
0
CIRCLE
5
177
100
AcDbEntity
8
0
100
AcDbCircle
10
104.31398568933869
20
-97.48430372546224
30
1.8540724511240114e-13
40
0.8509000000000001
210
5.9518183303251119e-16
220
2.539635166056542e-15
230
1
0
CIRCLE
5
178
100
AcDbEntity
8
0
100
AcDbCircle
10
95.423986689338705
20
-97.484303735001134
30
1.9040324872321435e-13
40
0.8509000000000001
210
5.9518183303251119e-16
220
2.539635166056542e-15
230
1
0
CIRCLE
5
179
100
AcDbEntity
8
0
100
AcDbCircle
10
85.263986689338722
20
-97.484303745902679
30
1.96787031114809e-13
40
0.8509000000000001
210
5.9518183303251119e-16
220
2.539635166056542e-15
230
1
0
CIRCLE
5
180
100
AcDbEntity
8
0
100
AcDbCircle
10
151.93898666889854
20
-78.43430367436109
30
1.0852430065710905e-13
40
0.8509000000000001
210
5.9518183303251119e-16
220
2.539635166056542e-15
230
1
0
CIRCLE
5
181
100
AcDbEntity
8
0
100
AcDbCircle
10
143.04898666889852
20
-78.434303683899969
30
1.1379786002407855e-13
40
0.8509000000000001
210
5.9518183303251119e-16
220
2.539635166056542e-15
230
1
0
CIRCLE
5
182
100
AcDbEntity
8
0
100
AcDbCircle
10
132.8889866688985
20
-78.434303694801542
30
1.1990408665951691e-13
40
0.8509000000000001
210
5.9518183303251119e-16
220
2.539635166056542e-15
230
1
0
CIRCLE
5
183
100
AcDbEntity
8
0
100
AcDbCircle
10
123.99898666889854
20
-78.434302704340425
30
1.251776460264864e-13
40
0.8509000000000001
210
5.9518183303251119e-16
220
2.539635166056542e-15
230
1
0
CIRCLE
5
184
100
AcDbEntity
8
0
100
AcDbCircle
10
113.83898666889849
20
-78.434302715241998
30
1.3128387266192476e-13
40
0.8509000000000001
210
5.9518183303251119e-16
220
2.539635166056542e-15
230
1
0
CIRCLE
5
185
100
AcDbEntity
8
0
100
AcDbCircle
10
104.94898566889844
20
-78.434303724780861
30
1.3655743202889425e-13
40
0.8509000000000001
210
5.9518183303251119e-16
220
2.539635166056542e-15
230
1
0
CIRCLE
5
186
100
AcDbEntity
8
0
100
AcDbCircle
10
94.788985668898505
20
-78.434303735682434
30
1.4266365866433262e-13
40
0.8509000000000001
210
5.9518183303251119e-16
220
2.539635166056542e-15
230
1
0
CIRCLE
5
187
100
AcDbEntity
8
0
100
AcDbCircle
10
85.898986668898488
20
-78.4343037452213
30
1.4765966227514582e-13
40
0.8509000000000001
210
5.9518183303251119e-16
220
2.539635166056542e-15
230
1
0
CIRCLE
5
188
100
AcDbEntity
8
0
100
AcDbCircle
10
76.373986689338693
20
-97.484303755441573
30
2.017830347256222e-13
40
0.8509000000000001
210
5.9518183303251119e-16
220
2.539635166056542e-15
230
1
0
CIRCLE
5
189
100
AcDbEntity
8
0
100
AcDbCircle
10
66.213986689338668
20
-97.484303766343146
30
2.0788926136106056e-13
40
0.8509000000000001
210
5.9518183303251119e-16
220
2.539635166056542e-15
230
1
0
CIRCLE
5
190
100
AcDbEntity
8
0
100
AcDbCircle
10
57.323986689338646
20
-97.484303775881997
30
2.1344037648418634e-13
40
0.8509000000000001
210
5.9518183303251119e-16
220
2.539635166056542e-15
230
1
0
CIRCLE
5
191
100
AcDbEntity
8
0
100
AcDbCircle
10
47.163986689338664
20
-97.48430378678357
30
2.1926904736346842e-13
40
0.8509000000000001
210
5.9518183303251119e-16
220
2.539635166056542e-15
230
1
0
CIRCLE
5
192
100
AcDbEntity
8
0
100
AcDbCircle
10
26.367702689338657
20
-97.484313809097756
30
2.3148150063434514e-13
40
0.8509000000000001
210
5.9518183303251119e-16
220
2.539635166056542e-15
230
1
0
CIRCLE
5
193
100
AcDbEntity
8
0
100
AcDbCircle
10
16.207702689338745
20
-97.484313819999329
30
2.3786528302593979e-13
40
0.8509000000000001
210
5.9518183303251119e-16
220
2.539635166056542e-15
230
1
0
CIRCLE
5
194
100
AcDbEntity
8
0
100
AcDbCircle
10
33.225702681843856
20
-90.499313801739191
30
2.0983215165415459e-13
40
1.524
210
5.9518183303251119e-16
220
2.53963516615994e-15
230
1
0
CIRCLE
5
195
100
AcDbEntity
8
0
100
AcDbCircle
10
9.3497026818439366
20
-90.499313827357895
30
2.2398749521812533e-13
40
1.524
210
5.9518183303251119e-16
220
2.53963516615994e-15
230
1
0
CIRCLE
5
196
100
AcDbEntity
8
0
100
AcDbCircle
10
75.738986668898463
20
-78.434303756122873
30
1.5404344466674047e-13
40
0.8509000000000001
210
5.9518183303251119e-16
220
2.539635166056542e-15
230
1
0
CIRCLE
5
197
100
AcDbEntity
8
0
100
AcDbCircle
10
66.848986668898476
20
-78.434303765661738
30
1.5903944827755367e-13
40
0.8509000000000001
210
5.9518183303251119e-16
220
2.539635166056542e-15
230
1
0
CIRCLE
5
198
100
AcDbEntity
8
0
100
AcDbCircle
10
56.688986668898416
20
-78.434303776563311
30
1.6514567491299204e-13
40
0.8509000000000001
210
5.9518183303251119e-16
220
2.539635166056542e-15
230
1
0
CIRCLE
5
199
100
AcDbEntity
8
0
100
AcDbCircle
10
47.798986668898422
20
-78.434303786102191
30
1.7069679003611782e-13
40
0.8509000000000001
210
5.9518183303251119e-16
220
2.539635166056542e-15
230
1
0
CIRCLE
5
200
100
AcDbEntity
8
0
100
AcDbCircle
10
37.63898666889844
20
-78.434303797003764
30
1.7652546091539989e-13
40
0.8509000000000001
210
5.9518183303251119e-16
220
2.539635166056542e-15
230
1
0
CIRCLE
5
201
100
AcDbEntity
8
0
100
AcDbCircle
10
21.60523566889843
20
-78.434302814207811
30
1.8596235662471372e-13
40
0.8509000000000001
210
5.9518183303251119e-16
220
2.539635166056542e-15
230
1
0
CIRCLE
5
202
100
AcDbEntity
8
0
100
AcDbCircle
10
11.445237668898471
20
-78.434302825109384
30
1.9206858326015208e-13
40
0.8509000000000001
210
5.9518183303251119e-16
220
2.539635166056542e-15
230
1
0
CIRCLE
5
203
100
AcDbEntity
8
0
100
AcDbCircle
10
276.11322766004122
20
-70.179313541123477
30
1.3600232051658168e-14
40
1.9939000000000007
210
5.9518183303251119e-16
220
2.5396351661599396e-15
230
1
0
CIRCLE
5
204
100
AcDbEntity
8
0
100
AcDbCircle
10
300.21148664845845
20
-59.384303515266296
30
-2.8033131371785203e-14
40
0.8509000000000001
210
5.9518183303251119e-16
220
2.539635166056542e-15
230
1
0
CIRCLE
5
205
100
AcDbEntity
8
0
100
AcDbCircle
10
290.05148664845842
20
-59.384303526167869
30
-2.2204460492503131e-14
40
0.8509000000000001
210
5.9518183303251119e-16
220
2.539635166056542e-15
230
1
0
CIRCLE
5
206
100
AcDbEntity
8
0
100
AcDbCircle
10
276.39898664845845
20
-59.384303540816859
30
-1.4155343563970746e-14
40
0.8509000000000001
210
5.9518183303251119e-16
220
2.539635166056542e-15
230
1
0
CIRCLE
5
207
100
AcDbEntity
8
0
100
AcDbCircle
10
266.23898664845842
20
-59.384303551718432
30
-7.7715611723760958e-15
40
0.8509000000000001
210
5.9518183303251119e-16
220
2.539635166056542e-15
230
1
0
CIRCLE
5
208
100
AcDbEntity
8
0
100
AcDbCircle
10
252.23722766004124
20
-70.179313566742167
30
2.8033131371785203e-14
40
1.9939000000000007
210
5.9518183303251119e-16
220
2.5396351661599396e-15
230
1
0
CIRCLE
5
209
100
AcDbEntity
8
0
100
AcDbCircle
10
252.58648664845845
20
-59.384303566367407
30
2.7755575615628914e-16
40
0.8509000000000001
210
5.9518183303251119e-16
220
2.539635166056542e-15
230
1
0
CIRCLE
5
210
100
AcDbEntity
8
0
100
AcDbCircle
10
242.42648664845836
20
-59.38430357726898
30
6.3837823915946501e-15
40
0.8509000000000001
210
5.9518183303251119e-16
220
2.539635166056542e-15
230
1
0
CIRCLE
5
211
100
AcDbEntity
8
0
100
AcDbCircle
10
233.53648664845844
20
-59.38430358680786
30
1.1379786002407855e-14
40
0.8509000000000001
210
5.9518183303251119e-16
220
2.539635166056542e-15
230
1
0
CIRCLE
5
212
100
AcDbEntity
8
0
100
AcDbCircle
10
278.49447763687567
20
-48.589313538568398
30
-4.2743586448068527e-14
40
1.9939000000000007
210
5.9518183303251119e-16
220
2.5396351661599396e-15
230
1
0
CIRCLE
5
213
100
AcDbEntity
8
0
100
AcDbCircle
10
254.61847763687561
20
-48.589313564187087
30
-2.8310687127941492e-14
40
1.9939000000000007
210
5.9518183303251119e-16
220
2.5396351661599396e-15
230
1
0
CIRCLE
5
214
100
AcDbEntity
8
0
100
AcDbCircle
10
223.37648664845841
20
-59.384303597709433
30
1.7763568394002505e-14
40
0.8509000000000001
210
5.9518183303251119e-16
220
2.539635166056542e-15
230
1
0
CIRCLE
5
215
100
AcDbEntity
8
0
100
AcDbCircle
10
214.48648664845837
20
-59.384303607248306
30
2.2759572004815709e-14
40
0.8509000000000001
210
5.9518183303251119e-16
220
2.539635166056542e-15
230
1
0
CIRCLE
5
216
100
AcDbEntity
8
0
100
AcDbCircle
10
204.32648664845834
20
-59.384303618149879
30
2.886579864025407e-14
40
0.8509000000000001
210
5.9518183303251119e-16
220
2.539635166056542e-15
230
1
0
CIRCLE
5
217
100
AcDbEntity
8
0
100
AcDbCircle
10
195.43648664845841
20
-59.384303627688759
30
3.4416913763379853e-14
40
0.8509000000000001
210
5.9518183303251119e-16
220
2.539635166056542e-15
230
1
0
CIRCLE
5
218
100
AcDbEntity
8
0
100
AcDbCircle
10
185.2764866484583
20
-59.38430363859031
30
4.0245584642661925e-14
40
0.8509000000000001
210
5.9518183303251119e-16
220
2.539635166056542e-15
230
1
0
CIRCLE
5
219
100
AcDbEntity
8
0
100
AcDbCircle
10
176.38648664845834
20
-59.38430364812919
30
4.5519144009631418e-14
40
0.8509000000000001
210
5.9518183303251119e-16
220
2.539635166056542e-15
230
1
0
CIRCLE
5
220
100
AcDbEntity
8
0
100
AcDbCircle
10
166.22648664845832
20
-59.384303659030763
30
5.1625370645069779e-14
40
0.8509000000000001
210
5.9518183303251119e-16
220
2.539635166056542e-15
230
1
0
CIRCLE
5
221
100
AcDbEntity
8
0
100
AcDbCircle
10
157.3364866484583
20
-59.384303668569636
30
5.6898930012039273e-14
40
0.8509000000000001
210
5.9518183303251119e-16
220
2.539635166056542e-15
230
1
0
CIRCLE
5
222
100
AcDbEntity
8
0
100
AcDbCircle
10
300.21148662801824
20
-40.334303515266264
30
-7.6327832942979512e-14
40
0.8509000000000001
210
5.9518183303251119e-16
220
2.539635166056542e-15
230
1
0
CIRCLE
5
223
100
AcDbEntity
8
0
100
AcDbCircle
10
290.05148662801821
20
-40.334303526167837
30
-7.049916206369744e-14
40
0.8509000000000001
210
5.9518183303251119e-16
220
2.539635166056542e-15
230
1
0
CIRCLE
5
224
100
AcDbEntity
8
0
100
AcDbCircle
10
271.63647762801821
20
-40.33431354592696
30
-5.9674487573602164e-14
40
0.8509000000000001
210
5.9518183303251119e-16
220
2.539635166056542e-15
230
1
0
CIRCLE
5
225
100
AcDbEntity
8
0
100
AcDbCircle
10
278.49447762052353
20
-33.349313538568389
30
-8.1323836553792717e-14
40
1.524
210
5.9518183303251119e-16
220
2.53963516615994e-15
230
1
0
CIRCLE
5
226
100
AcDbEntity
8
0
100
AcDbCircle
10
261.47647762801819
20
-40.334313556828533
30
-5.3290705182007514e-14
40
0.8509000000000001
210
5.9518183303251119e-16
220
2.539635166056542e-15
230
1
0
CIRCLE
5
227
100
AcDbEntity
8
0
100
AcDbCircle
10
243.06148662801817
20
-40.334303576587615
30
-4.2466030691912238e-14
40
0.8509000000000001
210
5.9518183303251119e-16
220
2.539635166056542e-15
230
1
0
CIRCLE
5
228
100
AcDbEntity
8
0
100
AcDbCircle
10
232.90148662801815
20
-40.334303587489167
30
-3.6359804056473877e-14
40
0.8509000000000001
210
5.9518183303251119e-16
220
2.539635166056542e-15
230
1
0
CIRCLE
5
229
100
AcDbEntity
8
0
100
AcDbCircle
10
254.61847762052344
20
-33.349313564187078
30
-6.7168492989821971e-14
40
1.524
210
5.9518183303251119e-16
220
2.53963516615994e-15
230
1
0
CIRCLE
5
230
100
AcDbEntity
8
0
100
AcDbCircle
10
290.75647161477082
20
-27.987903525411404
30
-1.0241807402167069e-13
40
3.0000000000000009
210
5.9518183303251119e-16
220
2.539635166056542e-15
230
1
0
CIRCLE
5
231
100
AcDbEntity
8
0
100
AcDbCircle
10
264.17523561477077
20
-27.987903553932789
30
-8.6319840164605921e-14
40
1.5000000000000004
210
5.9518183303251119e-16
220
2.539635166056542e-15
230
1
0
CIRCLE
5
232
100
AcDbEntity
8
0
100
AcDbCircle
10
300.21148660246797
20
-16.521803515266271
30
-1.3683498778505054e-13
40
0.8509000000000001
210
5.9518183303251119e-16
220
2.539635166056542e-15
230
1
0
CIRCLE
5
233
100
AcDbEntity
8
0
100
AcDbCircle
10
290.05148660246795
20
-16.521803526167844
30
-1.3100631690576847e-13
40
0.8509000000000001
210
5.9518183303251119e-16
220
2.539635166056542e-15
230
1
0
CIRCLE
5
234
100
AcDbEntity
8
0
100
AcDbCircle
10
271.63648660246793
20
-16.521803545926936
30
-1.1990408665951691e-13
40
0.8509000000000001
210
5.9518183303251119e-16
220
2.539635166056542e-15
230
1
0
CIRCLE
5
235
100
AcDbEntity
8
0
100
AcDbCircle
10
261.47648660246796
20
-16.521803556828509
30
-1.1407541578023483e-13
40
0.8509000000000001
210
5.9518183303251119e-16
220
2.539635166056542e-15
230
1
0
CIRCLE
5
236
100
AcDbEntity
8
0
100
AcDbCircle
10
252.58648660246791
20
-16.521803566367382
30
-1.0852430065710905e-13
40
0.8509000000000001
210
5.9518183303251119e-16
220
2.539635166056542e-15
230
1
0
CIRCLE
5
237
100
AcDbEntity
8
0
100
AcDbCircle
10
242.42648660246789
20
-16.521803577268955
30
-1.0241807402167069e-13
40
0.8509000000000001
210
5.9518183303251119e-16
220
2.539635166056542e-15
230
1
0
CIRCLE
5
238
100
AcDbEntity
8
0
100
AcDbCircle
10
233.5364866024679
20
-16.521803586807835
30
-9.7422070410857486e-14
40
0.8509000000000001
210
5.9518183303251119e-16
220
2.539635166056542e-15
230
1
0
CIRCLE
5
239
100
AcDbEntity
8
0
100
AcDbCircle
10
224.01148662801816
20
-40.334303597028047
30
-3.1363800445660672e-14
40
0.8509000000000001
210
5.9518183303251119e-16
220
2.539635166056542e-15
230
1
0
CIRCLE
5
240
100
AcDbEntity
8
0
100
AcDbCircle
10
213.85148662801816
20
-40.33430360792962
30
-2.4980018054066022e-14
40
0.8509000000000001
210
5.9518183303251119e-16
220
2.539635166056542e-15
230
1
0
CIRCLE
5
241
100
AcDbEntity
8
0
100
AcDbCircle
10
204.96148662801815
20
-40.334303617468493
30
-1.9706458687096529e-14
40
0.8509000000000001
210
5.9518183303251119e-16
220
2.539635166056542e-15
230
1
0
CIRCLE
5
242
100
AcDbEntity
8
0
100
AcDbCircle
10
194.80148662801813
20
-40.334303628370066
30
-1.3877787807814457e-14
40
0.8509000000000001
210
5.9518183303251119e-16
220
2.539635166056542e-15
230
1
0
CIRCLE
5
243
100
AcDbEntity
8
0
100
AcDbCircle
10
185.91148762801811
20
-40.334303637908945
30
-8.3266726846886741e-15
40
0.8509000000000001
210
5.9518183303251119e-16
220
2.539635166056542e-15
230
1
0
CIRCLE
5
244
100
AcDbEntity
8
0
100
AcDbCircle
10
175.75148762801814
20
-40.334303648810518
30
-2.4980018054066022e-15
40
0.8509000000000001
210
5.9518183303251119e-16
220
2.539635166056542e-15
230
1
0
CIRCLE
5
245
100
AcDbEntity
8
0
100
AcDbCircle
10
166.8614856280181
20
-40.334303658349391
30
2.7755575615628914e-15
40
0.8509000000000001
210
5.9518183303251119e-16
220
2.539635166056542e-15
230
1
0
CIRCLE
5
246
100
AcDbEntity
8
0
100
AcDbCircle
10
156.7014856280181
20
-40.334303669250964
30
9.1593399531575415e-15
40
0.8509000000000001
210
5.9518183303251119e-16
220
2.539635166056542e-15
230
1
0
CIRCLE
5
247
100
AcDbEntity
8
0
100
AcDbCircle
10
223.37648660246793
20
-16.521803597709408
30
-9.1315843775419125e-14
40
0.8509000000000001
210
5.9518183303251119e-16
220
2.539635166056542e-15
230
1
0
CIRCLE
5
248
100
AcDbEntity
8
0
100
AcDbCircle
10
214.48648660246789
20
-16.52180360724828
30
-8.6042284408449632e-14
40
0.8509000000000001
210
5.9518183303251119e-16
220
2.539635166056542e-15
230
1
0
CIRCLE
5
249
100
AcDbEntity
8
0
100
AcDbCircle
10
204.32648660246787
20
-16.521803618149853
30
-7.9936057773011271e-14
40
0.8509000000000001
210
5.9518183303251119e-16
220
2.539635166056542e-15
230
1
0
CIRCLE
5
250
100
AcDbEntity
8
0
100
AcDbCircle
10
185.91148660246787
20
-16.521803637908945
30
-6.8833827526759706e-14
40
0.8509000000000001
210
5.9518183303251119e-16
220
2.539635166056542e-15
230
1
0
CIRCLE
5
251
100
AcDbEntity
8
0
100
AcDbCircle
10
175.75148660246785
20
-16.521803648810518
30
-6.3005156647477634e-14
40
0.8509000000000001
210
5.9518183303251119e-16
220
2.539635166056542e-15
230
1
0
CIRCLE
5
252
100
AcDbEntity
8
0
100
AcDbCircle
10
166.86148660246783
20
-16.521803658349398
30
-5.773159728050814e-14
40
0.8509000000000001
210
5.9518183303251119e-16
220
2.539635166056542e-15
230
1
0
CIRCLE
5
253
100
AcDbEntity
8
0
100
AcDbCircle
10
156.70148660246784
20
-16.521803669250971
30
-5.134781488891349e-14
40
0.8509000000000001
210
5.9518183303251119e-16
220
2.539635166056542e-15
230
1
0
CIRCLE
5
254
100
AcDbEntity
8
0
100
AcDbCircle
10
147.17648664845831
20
-59.384303679471209
30
6.3005156647477634e-14
40
0.8509000000000001
210
5.9518183303251119e-16
220
2.539635166056542e-15
230
1
0
CIRCLE
5
255
100
AcDbEntity
8
0
100
AcDbCircle
10
138.28648664845829
20
-59.384303689010089
30
6.8278716014447127e-14
40
0.8509000000000001
210
5.9518183303251119e-16
220
2.539635166056542e-15
230
1
0
CIRCLE
5
256
100
AcDbEntity
8
0
100
AcDbCircle
10
128.1264866484583
20
-59.384303699911662
30
7.4384942649885488e-14
40
0.8509000000000001
210
5.9518183303251119e-16
220
2.539635166056542e-15
230
1
0
CIRCLE
5
257
100
AcDbEntity
8
0
100
AcDbCircle
10
119.23648664845828
20
-59.384303709450535
30
7.9380946260698693e-14
40
0.8509000000000001
210
5.9518183303251119e-16
220
2.539635166056542e-15
230
1
0
CIRCLE
5
258
100
AcDbEntity
8
0
100
AcDbCircle
10
109.07648664845834
20
-59.384303720352108
30
8.5764728652293343e-14
40
0.8509000000000001
210
5.9518183303251119e-16
220
2.539635166056542e-15
230
1
0
CIRCLE
5
259
100
AcDbEntity
8
0
100
AcDbCircle
10
100.18648664845824
20
-59.384303729890966
30
9.1038288019262836e-14
40
0.8509000000000001
210
5.9518183303251119e-16
220
2.539635166056542e-15
230
1
0
CIRCLE
5
260
100
AcDbEntity
8
0
100
AcDbCircle
10
90.026486648458288
20
-59.384303740792539
30
9.6866958898544908e-14
40
0.8509000000000001
210
5.9518183303251119e-16
220
2.539635166056542e-15
230
1
0
CIRCLE
5
261
100
AcDbEntity
8
0
100
AcDbCircle
10
81.136486648458231
20
-59.384303750331419
30
1.0241807402167069e-13
40
0.8509000000000001
210
5.9518183303251119e-16
220
2.539635166056542e-15
230
1
0
CIRCLE
5
262
100
AcDbEntity
8
0
100
AcDbCircle
10
70.976486648458277
20
-59.384303761232992
30
1.0824674490095276e-13
40
0.8509000000000001
210
5.9518183303251119e-16
220
2.539635166056542e-15
230
1
0
CIRCLE
5
263
100
AcDbEntity
8
0
100
AcDbCircle
10
62.086486648458248
20
-59.384303770771865
30
1.1352030426792226e-13
40
0.8509000000000001
210
5.9518183303251119e-16
220
2.539635166056542e-15
230
1
0
CIRCLE
5
264
100
AcDbEntity
8
0
100
AcDbCircle
10
51.92648664845823
20
-59.384303781673438
30
1.1962653090336062e-13
40
0.8509000000000001
210
5.9518183303251119e-16
220
2.539635166056542e-15
230
1
0
CIRCLE
5
265
100
AcDbEntity
8
0
100
AcDbCircle
10
43.036486648458165
20
-59.384303791212318
30
1.2490009027033011e-13
40
0.8509000000000001
210
5.9518183303251119e-16
220
2.539635166056542e-15
230
1
0
CIRCLE
5
266
100
AcDbEntity
8
0
100
AcDbCircle
10
32.876486648458183
20
-59.384303802113891
30
1.3100631690576847e-13
40
0.8509000000000001
210
5.9518183303251119e-16
220
2.539635166056542e-15
230
1
0
CIRCLE
5
267
100
AcDbEntity
8
0
100
AcDbCircle
10
19.223986648458222
20
-59.384303816762866
30
1.3905543383430086e-13
40
0.8509000000000001
210
5.9518183303251119e-16
220
2.539635166056542e-15
230
1
0
CIRCLE
5
268
100
AcDbEntity
8
0
100
AcDbCircle
10
9.0639866484581688
20
-59.384303827664439
30
1.4516166046973922e-13
40
0.8509000000000001
210
5.9518183303251119e-16
220
2.539635166056542e-15
230
1
0
CIRCLE
5
269
100
AcDbEntity
8
0
100
AcDbCircle
10
147.81148662801812
20
-40.334303678789823
30
1.4155343563970746e-14
40
0.8509000000000001
210
5.9518183303251119e-16
220
2.539635166056542e-15
230
1
0
CIRCLE
5
270
100
AcDbEntity
8
0
100
AcDbCircle
10
137.65148662801806
20
-40.334303689691396
30
2.0261570199409107e-14
40
0.8509000000000001
210
5.9518183303251119e-16
220
2.539635166056542e-15
230
1
0
CIRCLE
5
271
100
AcDbEntity
8
0
100
AcDbCircle
10
128.76148662801808
20
-40.334303699230276
30
2.55351295663786e-14
40
0.8509000000000001
210
5.9518183303251119e-16
220
2.539635166056542e-15
230
1
0
CIRCLE
5
272
100
AcDbEntity
8
0
100
AcDbCircle
10
118.60148662801808
20
-40.334303710131849
30
3.1641356201816961e-14
40
0.8509000000000001
210
5.9518183303251119e-16
220
2.539635166056542e-15
230
1
0
CIRCLE
5
273
100
AcDbEntity
8
0
100
AcDbCircle
10
109.71148662801809
20
-40.334303719670721
30
3.6914915568786455e-14
40
0.8509000000000001
210
5.9518183303251119e-16
220
2.539635166056542e-15
230
1
0
CIRCLE
5
274
100
AcDbEntity
8
0
100
AcDbCircle
10
99.55148662801804
20
-40.334303730572294
30
4.3021142204224816e-14
40
0.8509000000000001
210
5.9518183303251119e-16
220
2.539635166056542e-15
230
1
0
CIRCLE
5
275
100
AcDbEntity
8
0
100
AcDbCircle
10
90.661486628018054
20
-40.334303740111174
30
4.829470157119431e-14
40
0.8509000000000001
210
5.9518183303251119e-16
220
2.539635166056542e-15
230
1
0
CIRCLE
5
276
100
AcDbEntity
8
0
100
AcDbCircle
10
80.501486628018029
20
-40.334303751012747
30
5.4123372450476381e-14
40
0.8509000000000001
210
5.9518183303251119e-16
220
2.539635166056542e-15
230
1
0
CIRCLE
5
277
100
AcDbEntity
8
0
100
AcDbCircle
10
147.81148660246785
20
-16.52180367878983
30
-4.6351811278100286e-14
40
0.8509000000000001
210
5.9518183303251119e-16
220
2.539635166056542e-15
230
1
0
CIRCLE
5
278
100
AcDbEntity
8
0
100
AcDbCircle
10
137.6514866024678
20
-16.521803689691403
30
-4.0245584642661925e-14
40
0.8509000000000001
210
5.9518183303251119e-16
220
2.539635166056542e-15
230
1
0
CIRCLE
5
279
100
AcDbEntity
8
0
100
AcDbCircle
10
128.76148660246781
20
-16.521803699230276
30
-3.4972025275692431e-14
40
0.8509000000000001
210
5.9518183303251119e-16
220
2.539635166056542e-15
230
1
0
CIRCLE
5
280
100
AcDbEntity
8
0
100
AcDbCircle
10
118.60148660246782
20
-16.521803710131849
30
-2.886579864025407e-14
40
0.8509000000000001
210
5.9518183303251119e-16
220
2.539635166056542e-15
230
1
0
CIRCLE
5
281
100
AcDbEntity
8
0
100
AcDbCircle
10
103.19129261625702
20
-29.373181726666829
30
1.3045120539345589e-14
40
0.25000000000000011
210
5.9518183303251119e-16
220
2.539635166056542e-15
230
1
0
CIRCLE
5
282
100
AcDbEntity
8
0
100
AcDbCircle
10
101.79129261625697
20
-29.373181728169023
30
1.3877787807814457e-14
40
0.25000000000000011
210
5.9518183303251119e-16
220
2.539635166056542e-15
230
1
0
CIRCLE
5
283
100
AcDbEntity
8
0
100
AcDbCircle
10
103.19129260896077
20
-22.573181726666817
30
-4.4408920985006262e-15
40
0.25000000000000011
210
5.9518183303251119e-16
220
2.539635166056542e-15
230
1
0
CIRCLE
5
284
100
AcDbEntity
8
0
100
AcDbCircle
10
101.79129260896073
20
-22.573181728169011
30
-3.6082248300317588e-15
40
0.25000000000000011
210
5.9518183303251119e-16
220
2.539635166056542e-15
230
1
0
CIRCLE
5
285
100
AcDbEntity
8
0
100
AcDbCircle
10
100.18648660246775
20
-16.521803729890941
30
-1.7763568394002505e-14
40
0.8509000000000001
210
5.9518183303251119e-16
220
2.539635166056542e-15
230
1
0
CIRCLE
5
286
100
AcDbEntity
8
0
100
AcDbCircle
10
90.026486602467799
20
-16.521803740792514
30
-1.1934897514720433e-14
40
0.8509000000000001
210
5.9518183303251119e-16
220
2.539635166056542e-15
230
1
0
CIRCLE
5
287
100
AcDbEntity
8
0
100
AcDbCircle
10
81.136486602467741
20
-16.521803750331394
30
-6.6613381477509392e-15
40
0.8509000000000001
210
5.9518183303251119e-16
220
2.539635166056542e-15
230
1
0
CIRCLE
5
288
100
AcDbEntity
8
0
100
AcDbCircle
10
71.61148762801804
20
-40.33430376055162
30
5.9674487573602164e-14
40
0.8509000000000001
210
5.9518183303251119e-16
220
2.539635166056542e-15
230
1
0
CIRCLE
5
289
100
AcDbEntity
8
0
100
AcDbCircle
10
61.451487628018029
20
-40.334303771453179
30
6.5780714209040525e-14
40
0.8509000000000001
210
5.9518183303251119e-16
220
2.539635166056542e-15
230
1
0
CIRCLE
5
290
100
AcDbEntity
8
0
100
AcDbCircle
10
52.561485628017977
20
-40.334303780992052
30
7.0776717819853729e-14
40
0.8509000000000001
210
5.9518183303251119e-16
220
2.539635166056542e-15
230
1
0
CIRCLE
5
291
100
AcDbEntity
8
0
100
AcDbCircle
10
42.401485628017994
20
-40.334303791893625
30
7.688294445529209e-14
40
0.8509000000000001
210
5.9518183303251119e-16
220
2.539635166056542e-15
230
1
0
CIRCLE
5
292
100
AcDbEntity
8
0
100
AcDbCircle
10
33.511486628017977
20
-40.334303801432505
30
8.2156503822261584e-14
40
0.8509000000000001
210
5.9518183303251119e-16
220
2.539635166056542e-15
230
1
0
CIRCLE
5
293
100
AcDbEntity
8
0
100
AcDbCircle
10
23.351486628017994
20
-40.334303812334078
30
8.8262730457699945e-14
40
0.8509000000000001
210
5.9518183303251119e-16
220
2.539635166056542e-15
230
1
0
CIRCLE
5
294
100
AcDbEntity
8
0
100
AcDbCircle
10
14.461486628018037
20
-40.33430382187295
30
9.3813845580825728e-14
40
0.8509000000000001
210
5.9518183303251119e-16
220
2.539635166056542e-15
230
1
0
CIRCLE
5
295
100
AcDbEntity
8
0
100
AcDbCircle
10
4.301486628017912
20
-40.334303832774523
30
9.96425164601078e-14
40
0.8509000000000001
210
5.9518183303251119e-16
220
2.539635166056542e-15
230
1
0
CIRCLE
5
296
100
AcDbEntity
8
0
100
AcDbCircle
10
70.976486602467787
20
-16.521803761232967
30
-5.5511151231257827e-16
40
0.8509000000000001
210
5.9518183303251119e-16
220
2.539635166056542e-15
230
1
0
CIRCLE
5
297
100
AcDbEntity
8
0
100
AcDbCircle
10
62.086486602467765
20
-16.521803770771839
30
4.7184478546569153e-15
40
0.8509000000000001
210
5.9518183303251119e-16
220
2.539635166056542e-15
230
1
0
CIRCLE
5
298
100
AcDbEntity
8
0
100
AcDbCircle
10
51.926486602467747
20
-16.521803781673412
30
1.0824674490095276e-14
40
0.8509000000000001
210
5.9518183303251119e-16
220
2.539635166056542e-15
230
1
0
CIRCLE
5
299
100
AcDbEntity
8
0
100
AcDbCircle
10
43.036486602467718
20
-16.521803791212292
30
1.609823385706477e-14
40
0.8509000000000001
210
5.9518183303251119e-16
220
2.539635166056542e-15
230
1
0
CIRCLE
5
300
100
AcDbEntity
8
0
100
AcDbCircle
10
21.277485614770555
20
-27.987903814559473
30
5.8009153036664429e-14
40
1.5000000000000004
210
5.9518183303251119e-16
220
2.539635166056542e-15
230
1
0
CIRCLE
5
301
100
AcDbEntity
8
0
100
AcDbCircle
10
13.756471614770618
20
-27.987903822629441
30
6.2727600891321345e-14
40
3.0000000000000009
210
5.9518183303251119e-16
220
2.539635166056542e-15
230
1
0
CIRCLE
5
302
100
AcDbEntity
8
0
100
AcDbCircle
10
28.053986608162518
20
-21.829303807288348
30
3.8302694349567901e-14
40
0.50000000000000022
210
5.9518183303251119e-16
220
2.539635166056542e-15
230
1
0
CIRCLE
5
303
100
AcDbEntity
8
0
100
AcDbCircle
10
32.876486602467736
20
-16.521803802113865
30
2.2204460492503131e-14
40
0.8509000000000001
210
5.9518183303251119e-16
220
2.539635166056542e-15
230
1
0
CIRCLE
5
304
100
AcDbEntity
8
0
100
AcDbCircle
10
21.673986608162537
20
-21.829303814134022
30
4.2188474935755949e-14
40
0.50000000000000022
210
5.9518183303251119e-16
220
2.539635166056542e-15
230
1
0
CIRCLE
5
305
100
AcDbEntity
8
0
100
AcDbCircle
10
14.461486602467772
20
-16.521803821872957
30
3.3306690738754696e-14
40
0.8509000000000001
210
5.9518183303251119e-16
220
2.539635166056542e-15
230
1
0
CIRCLE
5
306
100
AcDbEntity
8
0
100
AcDbCircle
10
4.3014866024676479
20
-16.52180383277453
30
3.9135361618036768e-14
40
0.8509000000000001
210
5.9518183303251119e-16
220
2.539635166056542e-15
230
1
0
ENDSEC
0
SECTION
2
OBJECTS
0
DICTIONARY
5
C
100
AcDbDictionary
3
ACAD_GROUP
350
D
3
ACAD_MLINESTYLE
350
17
0
DICTIONARY
5
D
100
AcDbDictionary
0
DICTIONARY
5
1A
330
C
100
AcDbDictionary
0
DICTIONARY
5
17
100
AcDbDictionary
0
ENDSEC
0
EOF
