<?xml version="1.0" encoding="UTF-8" standalone="no"?>
<svg
   viewBox="0 0 1151.1152 456.38814"
   width="1151.1152"
   height="456.38812"
   version="1.1"
   id="svg156"
   sodipodi:docname="M75_PCBOutline_10282021_V3.svg"
   inkscape:version="1.1.1 (3bf5ae0d25, 2021-09-20)"
   xmlns:inkscape="http://www.inkscape.org/namespaces/inkscape"
   xmlns:sodipodi="http://sodipodi.sourceforge.net/DTD/sodipodi-0.dtd"
   xmlns="http://www.w3.org/2000/svg"
   xmlns:svg="http://www.w3.org/2000/svg">
  <sodipodi:namedview
     id="namedview158"
     pagecolor="#ffffff"
     bordercolor="#666666"
     borderopacity="1.0"
     inkscape:pageshadow="2"
     inkscape:pageopacity="0.0"
     inkscape:pagecheckerboard="0"
     showgrid="false"
     inkscape:zoom="0.46929651"
     inkscape:cx="945.03154"
     inkscape:cy="646.71268"
     inkscape:window-width="1920"
     inkscape:window-height="1043"
     inkscape:window-x="1920"
     inkscape:window-y="293"
     inkscape:window-maximized="1"
     inkscape:current-layer="g154" />
  <desc
     id="desc2">M75_PCBOutline_10282021_V3.dxf - scale = 1.0, origin = (0.0, 0.0), method = manual</desc>
  <defs
     id="defs16">
    <marker
       id="DistanceX"
       orient="auto"
       refX="0"
       refY="0"
       style="overflow:visible">
      <path
         d="M 3,-3 -3,3 M 0,-5 V 5"
         style="stroke:#000000;stroke-width:0.5"
         id="path4" />
    </marker>
    <pattern
       id="Hatch"
       patternUnits="userSpaceOnUse"
       width="8"
       height="8"
       x="0"
       y="0">
      <path
         d="M8 4 l-4,4"
         stroke="#000000"
         stroke-width="0.25"
         linecap="square"
         id="path7" />
      <path
         d="M6 2 l-4,4"
         stroke="#000000"
         stroke-width="0.25"
         linecap="square"
         id="path9" />
      <path
         d="M4 0 l-4,4"
         stroke="#000000"
         stroke-width="0.25"
         linecap="square"
         id="path11" />
    </pattern>
    <symbol
       id="*MODEL_SPACE" />
    <symbol
       id="*PAPER_SPACE" />
    <rect
       x="-1181.8695"
       y="612.45471"
       width="138.51421"
       height="92.610077"
       id="rect11696" />
    <rect
       x="-1181.8695"
       y="612.45471"
       width="138.51421"
       height="92.610077"
       id="rect15214" />
    <rect
       x="-1181.8695"
       y="612.45471"
       width="138.51421"
       height="92.610077"
       id="rect16690" />
    <rect
       x="-1181.8695"
       y="612.45471"
       width="138.51421"
       height="92.610077"
       id="rect17068" />
    <rect
       x="-1181.8695"
       y="612.45471"
       width="138.51421"
       height="92.610077"
       id="rect17824" />
    <rect
       x="-1181.8695"
       y="612.45471"
       width="138.51421"
       height="92.610077"
       id="rect19084" />
    <rect
       x="-1181.8695"
       y="612.45471"
       width="138.51421"
       height="92.610077"
       id="rect19408" />
    <rect
       x="-1181.8695"
       y="612.45471"
       width="138.51421"
       height="92.610077"
       id="rect20110" />
    <rect
       x="-1181.8695"
       y="612.45471"
       width="138.51421"
       height="92.610077"
       id="rect20800" />
    <rect
       x="-1181.8695"
       y="612.45471"
       width="138.51421"
       height="92.610077"
       id="rect21124" />
    <rect
       x="-1181.8695"
       y="612.45471"
       width="138.51421"
       height="92.610077"
       id="rect22454" />
    <rect
       x="-1181.8695"
       y="612.45471"
       width="138.51421"
       height="92.610077"
       id="rect24382" />
    <rect
       x="-1181.8695"
       y="612.45471"
       width="138.51421"
       height="92.610077"
       id="rect24388" />
    <rect
       x="-1181.8695"
       y="612.45471"
       width="138.51421"
       height="92.610077"
       id="rect24922" />
    <rect
       x="-1181.8695"
       y="612.45471"
       width="138.51421"
       height="92.610077"
       id="rect24928" />
    <rect
       x="-1181.8695"
       y="612.45471"
       width="138.51421"
       height="92.610077"
       id="rect24928-3" />
    <rect
       x="-1181.8695"
       y="612.45471"
       width="138.51421"
       height="92.610077"
       id="rect24922-6" />
    <rect
       x="-1181.8695"
       y="612.45471"
       width="138.51421"
       height="92.610077"
       id="rect24388-7" />
    <rect
       x="-1181.8695"
       y="612.45471"
       width="138.51421"
       height="92.610077"
       id="rect24382-5" />
    <rect
       x="-1181.8695"
       y="612.45471"
       width="138.51421"
       height="92.610077"
       id="rect22454-3" />
    <rect
       x="-1181.8695"
       y="612.45471"
       width="138.51421"
       height="92.610077"
       id="rect21124-5" />
    <rect
       x="-1181.8695"
       y="612.45471"
       width="138.51421"
       height="92.610077"
       id="rect20800-6" />
    <rect
       x="-1181.8695"
       y="612.45471"
       width="138.51421"
       height="92.610077"
       id="rect20110-2" />
    <rect
       x="-1181.8695"
       y="612.45471"
       width="138.51421"
       height="92.610077"
       id="rect19408-9" />
    <rect
       x="-1181.8695"
       y="612.45471"
       width="138.51421"
       height="92.610077"
       id="rect19084-1" />
    <rect
       x="-1181.8695"
       y="612.45471"
       width="138.51421"
       height="92.610077"
       id="rect17824-2" />
    <rect
       x="-1181.8695"
       y="612.45471"
       width="138.51421"
       height="92.610077"
       id="rect17068-7" />
    <rect
       x="-1181.8695"
       y="612.45471"
       width="138.51421"
       height="92.610077"
       id="rect16690-0" />
    <rect
       x="-1181.8695"
       y="612.45471"
       width="138.51421"
       height="92.610077"
       id="rect15214-9" />
    <rect
       x="-1181.8695"
       y="612.45471"
       width="138.51421"
       height="92.610077"
       id="rect11696-3" />
  </defs>
  <g
     inkscape:groupmode="layer"
     inkscape:label="0"
     id="g154"
     transform="translate(1135.1907,-81.101912)">
    <path
       d="m -1106.2498,116.66221 a 6.6142,6.6142 0 1 0 13.2284,0 6.6142,6.6142 0 1 0 -13.2284,0 z"
       style="fill:none;stroke:#000000"
       id="path66" />
    <path
       d="m -26.249769,116.66221 a 6.6142,6.6142 0 1 0 13.2284,0 6.6142,6.6142 0 1 0 -13.2284,0 z"
       style="fill:none;stroke:#000000"
       id="path68" />
    <path
       d="m -998.24974,116.66221 a 6.614173,6.614173 0 1 0 13.22834,0 6.614173,6.614173 0 1 0 -13.22834,0 z"
       style="fill:none;stroke:#000000"
       id="path70" />
    <path
       d="m -350.24974,116.66221 a 6.614173,6.614173 0 1 0 13.22834,0 6.614173,6.614173 0 1 0 -13.22834,0 z"
       style="fill:none;stroke:#000000"
       id="path74" />
    <path
       d="m -674.24974,116.66221 a 6.614173,6.614173 0 1 0 13.22834,0 6.614173,6.614173 0 1 0 -13.22834,0 z"
       style="fill:none;stroke:#000000"
       id="path76" />
    <path
       d="m -1130.9112,81.605212 a 3.779528,3.779528 0 0 0 -3.7795,3.7795"
       style="fill:none;stroke:#000000"
       id="path856" />
    <path
       style="fill:none;stroke:#000000"
       d="M -1134.6907,85.381912 V 525.93693"
       id="path858" />
    <path
       d="m -1134.6907,525.93723 a 3.779528,3.779528 0 0 0 3.7795,3.7794"
       style="fill:none;stroke:#000000"
       id="path860" />
    <path
       style="fill:none;stroke:#000000"
       d="m -1130.9112,529.71683 h 180.69372"
       id="path862" />
    <path
       d="m -945.03708,531.77073 a 7.559055,7.559055 0 0 0 -5.1803,-2.0541"
       style="fill:none;stroke:#000000"
       id="path864" />
    <path
       style="fill:none;stroke:#000000"
       d="m -945.03748,531.77083 3.364,3.165"
       id="path866" />
    <path
       d="m -941.67348,534.93593 a 7.559055,7.559055 0 0 0 5.1803,2.0541"
       style="fill:none;stroke:#000000"
       id="path868" />
    <path
       style="fill:none;stroke:#000000"
       d="m -936.49348,536.98983 588.94796,-10e-4"
       id="path870" />
    <path
       d="m -347.54523,536.98883 a 7.546806,7.546806 0 0 0 5.17787,-2.0565"
       style="fill:none;stroke:#000000"
       id="path872" />
    <path
       style="fill:none;stroke:#000000"
       d="m -342.36752,534.93283 4.528,-4.271"
       id="path874" />
    <path
       d="m -334.17992,529.71723 a 7.559055,7.559055 0 0 0 -3.65951,0.9449"
       style="fill:none;stroke:#000000"
       id="path876" />
    <path
       style="fill:none;stroke:#000000"
       d="m -334.17952,529.71683 h 345.824"
       id="path878" />
    <path
       d="m 11.64008,529.71723 a 3.779528,3.779528 0 0 0 3.7795,-3.7794"
       style="fill:none;stroke:#000000"
       id="path880" />
    <path
       style="fill:none;stroke:#000000"
       d="M 15.42448,525.93793 V 85.381912"
       id="path882" />
    <path
       d="m 15.41958,85.384712 a 3.779528,3.779528 0 0 0 -3.7795,-3.7795"
       style="fill:none;stroke:#000000"
       id="path884" />
    <path
       style="fill:none;stroke:#000000"
       d="M 11.64448,81.601912 H -1130.9112"
       id="path886" />
    <path
       d="m -1106.2498,206.66221 a 6.6142,6.6142 0 1 0 13.2284,0 6.6142,6.6142 0 1 0 -13.2284,0 z"
       style="fill:none;stroke:#000000"
       id="path894" />
    <path
       d="m -1034.2498,206.66221 a 6.61421,6.61421 0 1 0 13.2284,0 6.61421,6.61421 0 1 0 -13.2284,0 z"
       style="fill:none;stroke:#000000"
       id="path900" />
    <path
       d="m -47.50962,159.99871 a 11.3386,11.3386 0 1 0 22.6772,0 11.3386,11.3386 0 1 0 -22.6772,0 z"
       style="fill:none;stroke:#00c800;stroke-opacity:1"
       id="path902" />
    <path
       d="m -1094.4388,159.99871 a 11.338615,11.338615 0 1 0 22.6772,0 11.338615,11.338615 0 1 0 -22.6772,0 z"
       style="fill:none;stroke:#00c800;stroke-opacity:1"
       id="path904" />
    <path
       d="m -140.98198,159.99871 a 4.34648,4.34648 0 1 0 8.69296,0 4.34648,4.34648 0 1 0 -8.69296,0 z"
       style="fill:none;stroke:#ff0000;stroke-opacity:1"
       id="path906" />
    <path
       d="m -1045.482,494.66221 a 4.346457,4.346457 0 1 0 8.6929,0 4.346457,4.346457 0 1 0 -8.6929,0 z"
       style="fill:none;stroke:#ff0000;stroke-opacity:1"
       id="path908" />
    <path
       d="m -1059.0208,159.99871 a 4.346457,4.346457 0 1 0 8.6929,0 4.346457,4.346457 0 1 0 -8.6929,0 z"
       style="fill:none;stroke:#ff0000;stroke-opacity:1"
       id="path910" />
    <path
       d="m -226.48198,494.66221 a 4.34646,4.34646 0 1 0 8.69292,0 4.34646,4.34646 0 1 0 -8.69292,0 z"
       style="fill:none;stroke:#ff0000;stroke-opacity:1"
       id="path912" />
    <path
       style="fill:none;stroke:#000000"
       d="m -1099.6356,105.32191 v 22.68"
       id="path914" />
    <path
       style="fill:none;stroke:#000000"
       d="m -991.63554,105.32191 v 22.68"
       id="path916" />
    <path
       style="fill:none;stroke:#000000"
       d="m -1099.6356,195.32391 v 22.677"
       id="path918" />
    <path
       style="fill:none;stroke:#000000"
       d="m -1027.6356,195.32391 v 22.677"
       id="path920" />
    <path
       style="fill:none;stroke:#000000"
       d="m -667.63554,105.32191 v 22.68"
       id="path922" />
    <path
       style="fill:none;stroke:#000000"
       d="m -343.63557,105.32191 v 22.68"
       id="path924" />
    <path
       style="fill:none;stroke:#000000"
       d="m -354.97457,116.66191 h 22.678"
       id="path930" />
    <path
       style="fill:none;stroke:#000000"
       d="m -678.97454,116.66191 h 22.678"
       id="path932" />
    <path
       style="fill:none;stroke:#000000"
       d="m -1002.9745,116.66191 h 22.67798"
       id="path934" />
    <path
       style="fill:none;stroke:#000000"
       d="m -1110.9742,116.66191 h 22.6772"
       id="path936" />
    <path
       style="fill:none;stroke:#000000"
       d="m -1110.9742,206.66191 h 22.6772"
       id="path938" />
    <path
       style="fill:none;stroke:#000000"
       d="m -1038.9742,206.66191 h 22.6776"
       id="path940" />
    <path
       style="fill:none;stroke:#ff0000;stroke-opacity:1"
       d="m -1066.0129,160.00191 h 22.6771"
       id="path942" />
    <path
       style="fill:none;stroke:#ff0000;stroke-opacity:1"
       d="m -1054.6743,148.66191 v 22.68"
       id="path944" />
    <path
       style="fill:none;stroke:#ff0000;stroke-opacity:1"
       d="m -147.97452,160.00191 h 22.679"
       id="path946" />
    <path
       style="fill:none;stroke:#ff0000;stroke-opacity:1"
       d="m -222.13552,483.32391 v 22.68002"
       id="path948" />
    <path
       style="fill:none;stroke:#ff0000;stroke-opacity:1"
       d="m -222.13552,483.32391 v 22.67702"
       id="path950" />
    <path
       style="fill:none;stroke:#ff0000;stroke-opacity:1"
       d="m -233.47452,494.66191 h 22.678"
       id="path952" />
    <path
       style="fill:none;stroke:#ff0000;stroke-opacity:1"
       d="m -1052.4742,494.66191 h 22.6776"
       id="path954" />
    <path
       style="fill:none;stroke:#ff0000;stroke-opacity:1"
       d="m -1041.1356,483.32391 v 22.67702"
       id="path956" />
    <path
       style="fill:none;stroke:#00c800;stroke-opacity:1"
       d="m -36.17552,148.66191 v 22.68"
       id="path958" />
    <path
       style="fill:none;stroke:#00c800;stroke-opacity:1"
       d="m -47.50552,160.00191 h 22.67"
       id="path960" />
    <path
       style="fill:none;stroke:#00c800;stroke-opacity:1"
       d="m -1071.7616,160.00191 h -22.6772"
       id="path962" />
    <path
       style="fill:none;stroke:#00c800;stroke-opacity:1"
       d="m -1083.1002,171.34191 v -22.68"
       id="path964" />
    <path
       d="m -1045.482,494.66221 a 4.346457,4.346457 0 1 0 8.6929,0 4.346457,4.346457 0 1 0 -8.6929,0 z"
       style="fill:none;stroke:#ff0000;stroke-opacity:1"
       id="path986" />
    <path
       d="m -226.48198,494.66221 a 4.34646,4.34646 0 1 0 8.69292,0 4.34646,4.34646 0 1 0 -8.69292,0 z"
       style="fill:none;stroke:#ff0000;stroke-opacity:1"
       id="path990" />
    <text
       xml:space="preserve"
       id="text11694"
       style="font-style:normal;font-weight:normal;font-size:8px;line-height:1.25;font-family:sans-serif;white-space:pre;shape-inside:url(#rect11696-3);fill:#000000;fill-opacity:1;stroke:none"
       transform="translate(74.01761,-517.63258)"><tspan
         x="-1181.8691"
         y="619.28708"
         id="tspan5029">ESC</tspan></text>
    <text
       xml:space="preserve"
       id="text15212"
       style="font-style:normal;font-weight:normal;font-size:8px;line-height:1.25;font-family:sans-serif;white-space:pre;shape-inside:url(#rect15214-9);fill:#000000;fill-opacity:1;stroke:none"
       transform="translate(185.86228,-517.63258)"><tspan
         x="-1181.8691"
         y="619.28708"
         id="tspan5031">F1</tspan></text>
    <text
       xml:space="preserve"
       id="text16688"
       style="font-style:normal;font-weight:normal;font-size:8px;line-height:1.25;font-family:sans-serif;white-space:pre;shape-inside:url(#rect16690-0);fill:#000000;fill-opacity:1;stroke:none"
       transform="translate(509.28855,-517.63258)"><tspan
         x="-1181.8691"
         y="619.28708"
         id="tspan5033">F5</tspan></text>
    <text
       xml:space="preserve"
       id="text17066"
       style="font-style:normal;font-weight:normal;font-size:8px;line-height:1.25;font-family:sans-serif;white-space:pre;shape-inside:url(#rect17068-7);fill:#000000;fill-opacity:1;stroke:none"
       transform="translate(833.40227,-517.63258)"><tspan
         x="-1181.8691"
         y="619.28708"
         id="tspan5035">F9</tspan></text>
    <path
       style="fill:none;stroke:#000000"
       d="m -19.63552,105.32191 v 22.68"
       id="path19076" />
    <path
       style="fill:none;stroke:#000000"
       d="M -30.97552,116.66191 H -8.2955197"
       id="path19078" />
    <text
       xml:space="preserve"
       id="text19082"
       style="font-style:normal;font-weight:normal;font-size:8px;line-height:1.25;font-family:sans-serif;white-space:pre;shape-inside:url(#rect19084-1);fill:#000000;fill-opacity:1;stroke:none"
       transform="translate(1149.4882,-517.63258)"><tspan
         x="-1181.8691"
         y="619.28708"
         id="tspan5037">HOME</tspan></text>
    <text
       xml:space="preserve"
       id="text19406"
       style="font-style:normal;font-weight:normal;font-size:8px;line-height:1.25;font-family:sans-serif;white-space:pre;shape-inside:url(#rect19408-9);fill:#000000;fill-opacity:1;stroke:none"
       transform="translate(73.38332,-427.13323)"><tspan
         x="-1181.8691"
         y="619.28708"
         id="tspan5039">GRV</tspan></text>
    <text
       xml:space="preserve"
       id="text20108"
       style="font-style:normal;font-weight:normal;font-size:8px;line-height:1.25;font-family:sans-serif;white-space:pre;shape-inside:url(#rect20110-2);fill:#000000;fill-opacity:1;stroke:none"
       transform="translate(150.6711,-427.13323)"><tspan
         x="-1181.8691"
         y="619.28708"
         id="tspan5041">1!</tspan></text>
    <text
       xml:space="preserve"
       id="text20798"
       style="font-style:normal;font-weight:normal;font-size:8px;line-height:1.25;font-family:sans-serif;white-space:pre;shape-inside:url(#rect20800-6);fill:#0000ff;fill-opacity:1;stroke:none"
       transform="translate(423.44981,-482.03199)"><tspan
         x="-1181.8691"
         y="619.28708"
         id="tspan5043">JST</tspan></text>
    <text
       xml:space="preserve"
       id="text21122"
       style="font-style:normal;font-weight:normal;font-size:8px;line-height:1.25;font-family:sans-serif;white-space:pre;shape-inside:url(#rect21124-5);fill:#ff0002;fill-opacity:1;stroke:none"
       transform="translate(143.93271,-456.41319)"><tspan
         x="-1181.8691"
         y="619.28708"
         id="tspan5045">STANDOFF</tspan></text>
    <text
       xml:space="preserve"
       id="text22452"
       style="font-style:normal;font-weight:normal;font-size:8px;line-height:1.25;font-family:sans-serif;white-space:pre;shape-inside:url(#rect22454-3);fill:#00c800;fill-opacity:1;stroke:none"
       transform="translate(90.90017,-475.07791)"><tspan
         x="-1181.8691"
         y="619.28708"
         id="tspan5047">PTH</tspan></text>
    <text
       xml:space="preserve"
       id="text24380"
       style="font-style:normal;font-weight:normal;font-size:8px;line-height:1.25;font-family:sans-serif;white-space:pre;shape-inside:url(#rect24382-5);fill:#00c800;fill-opacity:1;stroke:none"
       transform="translate(1137.9802,-475.07791)"><tspan
         x="-1181.8691"
         y="619.28708"
         id="tspan5049">PTH</tspan></text>
    <text
       xml:space="preserve"
       id="text24386"
       style="font-style:normal;font-weight:normal;font-size:8px;line-height:1.25;font-family:sans-serif;white-space:pre;shape-inside:url(#rect24388-7);fill:#ff0002;fill-opacity:1;stroke:none"
       transform="translate(1024.2183,-475.07791)"><tspan
         x="-1181.8691"
         y="619.28708"
         id="tspan5051">STANDOFF</tspan></text>
    <text
       xml:space="preserve"
       id="text24920"
       style="font-style:normal;font-weight:normal;font-size:8px;line-height:1.25;font-family:sans-serif;white-space:pre;shape-inside:url(#rect24922-6);fill:#ff0002;fill-opacity:1;stroke:none"
       transform="translate(938.61362,-140.45319)"><tspan
         x="-1181.8691"
         y="619.28708"
         id="tspan5053">STANDOFF</tspan></text>
    <text
       xml:space="preserve"
       id="text24926"
       style="font-style:normal;font-weight:normal;font-size:8px;line-height:1.25;font-family:sans-serif;white-space:pre;shape-inside:url(#rect24928-3);fill:#ff0002;fill-opacity:1;stroke:none"
       transform="translate(119.62908,-140.45319)"><tspan
         x="-1181.8691"
         y="619.28708"
         id="tspan5055">STANDOFF</tspan></text>
    <path
       d="m -759.48448,143.38731 0.087,18.8975 4.5354,-0.021 h 1.0911 l 0.01,1.8897 10.4364,-0.048 -0.1047,-22.6769 -10.4364,0.048 0.01,1.8898 -1.091,0.01 z"
       style="fill:none;stroke:#0000ff;stroke-opacity:1"
       id="path1024-7" />
    <path
       d="m -1009.32,174.36091 h 797.0939 a 3.02365,3.02365 0 0 0 0,-6.0473 H -1009.32 a 3.02365,3.02365 0 0 0 0,6.0473 z"
       style="fill:none;stroke:#000000"
       id="path1026" />
    <path
       d="m -953.83728,461.87491 h 701.46551 a 3.02365,3.02365 0 0 0 0,-6.0473 h -701.46551 a 3.02365,3.02365 0 0 0 0,6.0473 z"
       style="fill:none;stroke:#000000"
       id="path1028" />
    <path
       style="fill:none;stroke:#ff0000;stroke-opacity:1"
       d="m -136.63502,171.34141 v -22.679"
       id="path945" />
  </g>
</svg>
