0
SECTION
2
HEADER
9
$INSUNITS
70
4
9
$ACADVER
1
AC1014
9
$HANDSEED
5
FFFF
0
ENDSEC
0
SECTION
2
TABLES
0
TABLE
2
VPORT
5
8
100
AcDbSymbolTable
0
ENDTAB
0
TABLE
2
LTYPE
5
5
100
AcDbSymbolTable
0
LTYPE
5
14
100
AcDbSymbolTableRecord
100
AcDbLinetypeTableRecord
2
BYBLOCK
70
0
0
LTYPE
5
15
100
AcDbSymbolTableRecord
100
AcDbLinetypeTableRecord
2
BYLAYER
70
0
0
ENDTAB
0
TABLE
2
LAYER
5
2
100
AcDbSymbolTable
70
2
0
LAYER
5
50
100
AcDbSymbolTableRecord
100
AcDbLayerTableRecord
2
0
70
0
6
CONTINUOUS
0
ENDTAB
0
TABLE
2
STYLE
5
3
100
AcDbSymbolTable
70
1
0
STYLE
5
11
100
AcDbSymbolTableRecord
100
AcDbTextStyleTableRecord
2
STANDARD
70
0
0
ENDTAB
0
TABLE
2
VIEW
5
6
100
AcDbSymbolTable
70
0
0
ENDTAB
0
TABLE
2
UCS
5
7
100
AcDbSymbolTable
70
0
0
ENDTAB
0
TABLE
2
APPID
5
9
100
AcDbSymbolTable
70
2
0
APPID
5
12
100
AcDbSymbolTableRecord
100
AcDbRegAppTableRecord
2
ACAD
70
0
0
ENDTAB
0
TABLE
2
DIMSTYLE
5
A
100
AcDbSymbolTable
70
1
0
ENDTAB
0
TABLE
2
BLOCK_RECORD
5
1
100
AcDbSymbolTable
70
1
0
BLOCK_RECORD
5
1F
100
AcDbSymbolTableRecord
100
AcDbBlockTableRecord
2
*MODEL_SPACE
0
BLOCK_RECORD
5
1B
100
AcDbSymbolTableRecord
100
AcDbBlockTableRecord
2
*PAPER_SPACE
0
ENDTAB
0
ENDSEC
0
SECTION
2
BLOCKS
0
BLOCK
5
20
100
AcDbEntity
100
AcDbBlockBegin
2
*MODEL_SPACE
0
ENDBLK
5
21
100
AcDbEntity
100
AcDbBlockEnd
0
BLOCK
5
1C
100
AcDbEntity
100
AcDbBlockBegin
2
*PAPER_SPACE
0
ENDBLK
5
1D
100
AcDbEntity
100
AcDbBlockEnd
0
ENDSEC
0
SECTION
2
ENTITIES
0
ARC
5
100
100
AcDbEntity
8
0
100
AcDbCircle
10
-1.2500000000001079
20
6.0119999963828423
30
-2.7200464103316335e-14
40
1.000000000000002
210
0
220
0
230
1
100
AcDbArc
50
-90
51
0
0
LINE
5
101
100
AcDbEntity
8
0
100
AcDbLine
10
-0.25000000000010508
20
6.0119999963828432
30
-2.8033131371785203e-14
11
-0.25000000000020817
21
122.57484214721572
31
-4.9393952816778608e-09
0
ARC
5
102
100
AcDbEntity
8
0
100
AcDbCircle
10
-1.2500000000002067
20
122.57484214721572
30
-6.174249653213479e-09
40
0.99999999999999867
210
4.9394174861383599e-09
220
0
230
1
100
AcDbArc
50
0
51
90.000000000000696
0
LINE
5
103
100
AcDbEntity
8
0
100
AcDbLine
10
-1.2500000000002187
20
123.57484214721572
30
2.248201624865942e-14
11
-49.058563310557702
21
123.57484214721553
31
5.5511151231257827e-15
0
ARC
5
104
100
AcDbEntity
8
0
100
AcDbCircle
10
-49.058563310557716
20
125.57484214721553
30
1.9984014443252818e-14
40
2.0000000000000009
210
0
220
0
230
1
100
AcDbArc
50
226.74078856481125
51
270.0000000000004
0
LINE
5
105
100
AcDbEntity
8
0
100
AcDbLine
10
-50.429163473716009
20
124.11832053984045
30
1.9984014443252818e-14
11
-51.31912805424281
21
124.95578535538618
31
-4.9393944490105923e-09
0
ARC
5
106
100
AcDbEntity
8
0
100
AcDbCircle
10
-52.689728217485438
20
123.4992637479214
30
-4.9393922285645431e-09
40
2.0000000001231233
210
7.6083592929980518e-16
220
8.0853191213617025e-16
230
1
100
AcDbArc
50
46.740788564812803
51
90.000117663187197
0
LINE
5
107
100
AcDbEntity
8
0
100
AcDbLine
10
-52.689732324705489
20
125.49926374804032
30
-4.9393922285645431e-09
11
-208.515557324377
21
125.49894373942277
31
-4.939395559233617e-09
0
ARC
5
108
100
AcDbEntity
8
0
100
AcDbCircle
10
-208.51555322368267
20
123.5021847394229
30
-4.9393977796796662e-09
40
1.9967590000040767
210
2.2837382274612548e-21
220
-1.1120250612322756e-15
230
1
100
AcDbArc
50
90.000117666918214
51
133.32240233680983
0
LINE
5
109
100
AcDbEntity
8
0
100
AcDbLine
10
-209.88553527567035
20
124.95483599878588
30
-4.9393977796796662e-09
11
-211.08354949445163
21
123.824999799507
31
-4.9393911183415184e-09
0
ARC
5
110
100
AcDbEntity
8
0
100
AcDbCircle
10
-212.05179548731996
20
125.57499979588938
30
1.532107773982716e-13
40
1.9999999999999929
210
0
220
-1.1102230246251605e-15
230
1
100
AcDbArc
50
270
51
298.95502834040281
0
LINE
5
111
100
AcDbEntity
8
0
100
AcDbLine
10
-212.05179548731996
20
123.57499979588938
30
1.5099033134902129e-13
11
-303.55000000000024
21
123.57499979588921
31
-4.93939389389908e-09
0
ARC
5
112
100
AcDbEntity
8
0
100
AcDbCircle
10
-303.55000000000024
20
122.5749997958892
30
6.0545039000864058e-07
40
1.0000000000000142
210
1.754837255312648e-22
220
4.9394277557012608e-09
230
1
100
AcDbArc
50
90
51
180
0
LINE
5
113
100
AcDbEntity
8
0
100
AcDbLine
10
-304.5500000000003
20
122.57499979588921
30
3.3861802251067274e-14
11
-304.54999999999978
21
6.0119999963817596
31
-4.9394061063523509e-09
0
ARC
5
114
100
AcDbEntity
8
0
100
AcDbCircle
10
-303.54999999999978
20
6.0119999963817836
30
1.4993546948726999e-06
40
1.0000000000000142
210
-4.9393994450141328e-09
220
-1.2064436981685731e-22
230
1
100
AcDbArc
50
180
51
270
0
LINE
5
115
100
AcDbEntity
8
0
100
AcDbLine
10
-303.54999999999978
20
5.0119999963817694
30
-6.6613381477509392e-15
11
-1.2500000000001077
21
5.0119999963828397
31
-2.7200464103316335e-14
0
CIRCLE
5
116
100
AcDbEntity
8
0
100
AcDbCircle
10
-9.5250000000000075
20
14.287499977443099
30
-1.2490009027033011e-14
40
1.7500000000000004
210
7.4465399465834074e-17
220
-3.0630216191110964e-41
230
1
0
CIRCLE
5
117
100
AcDbEntity
8
0
100
AcDbCircle
10
-276.22500000000025
20
14.287499999423099
30
5.8286708792820718e-15
40
1.7500000000000071
210
7.4465399465834087e-17
220
-3.0630216252574489e-41
230
1
0
CIRCLE
5
118
100
AcDbEntity
8
0
100
AcDbCircle
10
-33.337500000000027
20
14.287499979405602
30
-1.0824674490095276e-14
40
1.7499999999999982
210
7.4465399465834099e-17
220
-3.0630216065622768e-41
230
1
0
CIRCLE
5
119
100
AcDbEntity
8
0
100
AcDbCircle
10
-9.525000000000011
20
38.100000000000009
30
2.3037127760971998e-14
40
1.7500000000000004
210
7.4465399465834037e-17
220
-3.0630223326014295e-41
230
1
0
CIRCLE
5
120
100
AcDbEntity
8
0
100
AcDbCircle
10
-195.26250000000016
20
14.287499992750599
30
0
40
1.7500000000000071
210
7.4465399465834087e-17
220
-3.0630216252574489e-41
230
1
0
CIRCLE
5
121
100
AcDbEntity
8
0
100
AcDbCircle
10
-114.30000000000007
20
14.287499986078098
30
-5.5511151231257827e-15
40
1.7500000000000071
210
7.4465399465834087e-17
220
-3.0630216252574489e-41
230
1
0
CIRCLE
5
122
100
AcDbEntity
8
0
100
AcDbCircle
10
-28.575000000000017
20
38.100000000000001
30
2.4424906541753444e-14
40
1.7499999999999982
210
7.4465399465834062e-17
220
-3.0630223326014351e-41
230
1
0
CIRCLE
5
123
100
AcDbEntity
8
0
100
AcDbCircle
10
-290.89998557547864
20
25.753600247378831
30
5.8841820305133297e-14
40
3.0000000000000071
210
7.4465399465835036e-17
220
5.4989266015202037e-32
230
1
0
CIRCLE
5
124
100
AcDbEntity
8
0
100
AcDbCircle
10
-13.899985575478386
20
25.753600261834862
30
3.9690473130349346e-14
40
3.0000000000000004
210
7.4465399465835036e-17
220
5.4989266015202048e-32
230
1
0
CIRCLE
5
125
100
AcDbEntity
8
0
100
AcDbCircle
10
-264.31874999624176
20
25.753600209566979
30
-2.2204460492503131e-15
40
1.1499999999999999
210
9.9660371074814512e-26
220
-5.5078119163532526e-58
230
1
0
CIRCLE
5
126
100
AcDbEntity
8
0
100
AcDbCircle
10
-25.003125000000026
20
114.29999981492956
30
8.8817841970012523e-15
40
1.1499999999999999
210
9.9660371074814512e-26
220
-5.5078119163532526e-58
230
1
0
CIRCLE
5
127
100
AcDbEntity
8
0
100
AcDbCircle
10
-21.42099999624152
20
25.753600023724331
30
-5.5511151231257827e-16
40
1.1499999999999999
210
9.9660371074814512e-26
220
-5.5078119163532526e-58
230
1
0
CIRCLE
5
128
100
AcDbEntity
8
0
100
AcDbCircle
10
-241.6968750000002
20
114.29999981492955
30
7.4940054162198066e-15
40
1.1499999999999999
210
9.9660371074814512e-26
220
-5.5078119163532526e-58
230
1
0
LINE
5
129
100
AcDbEntity
8
0
100
AcDbLine
10
-9.5250000000000075
20
11.28749997744311
30
-1.2490009027033011e-14
11
-9.5250000000000075
21
17.28749997744309
31
-1.2490009027033011e-14
0
LINE
5
130
100
AcDbEntity
8
0
100
AcDbLine
10
-33.337500000000027
20
11.287499979405613
30
-1.0824674490095276e-14
11
-33.337500000000027
21
17.287499979405592
31
-1.0824674490095276e-14
0
LINE
5
131
100
AcDbEntity
8
0
100
AcDbLine
10
-9.525000000000011
20
35.100000000000023
30
2.3037127760971998e-14
11
-9.525000000000011
21
41.100000000000001
31
2.3037127760971998e-14
0
LINE
5
132
100
AcDbEntity
8
0
100
AcDbLine
10
-28.575000000000017
20
35.100000000000009
30
2.4424906541753444e-14
11
-28.575000000000017
21
41.099999999999994
31
2.4424906541753444e-14
0
LINE
5
133
100
AcDbEntity
8
0
100
AcDbLine
10
-114.30000000000007
20
11.287499986078108
30
-5.5511151231257827e-15
11
-114.30000000000007
21
17.287499986078089
31
-5.5511151231257827e-15
0
LINE
5
134
100
AcDbEntity
8
0
100
AcDbLine
10
-195.26250000000016
20
11.287499992750609
30
0
11
-195.26250000000016
21
17.28749999275059
31
0
0
LINE
5
135
100
AcDbEntity
8
0
100
AcDbLine
10
-276.22500000000025
20
11.28749999942311
30
5.8286708792820718e-15
11
-276.22500000000025
21
17.287499999423087
31
5.8286708792820718e-15
0
LINE
5
136
100
AcDbEntity
8
0
100
AcDbLine
10
-273.22500000000025
20
14.287499999423099
30
5.8286708792820718e-15
11
-279.22500000000025
21
14.287499999423099
31
5.8286708792820718e-15
0
LINE
5
137
100
AcDbEntity
8
0
100
AcDbLine
10
-192.26250000000019
20
14.287499992750599
30
0
11
-198.26250000000013
21
14.287499992750599
31
0
0
LINE
5
138
100
AcDbEntity
8
0
100
AcDbLine
10
-111.30000000000008
20
14.287499986078098
30
-5.5511151231257827e-15
11
-117.30000000000005
21
14.287499986078098
31
-5.5511151231257827e-15
0
LINE
5
139
100
AcDbEntity
8
0
100
AcDbLine
10
-30.337500000000034
20
14.287499979405602
30
-1.0824674490095276e-14
11
-36.337500000000013
21
14.287499979405602
31
-1.0824674490095276e-14
0
LINE
5
140
100
AcDbEntity
8
0
100
AcDbLine
10
-6.5250000000000181
20
14.287499977443099
30
-1.2490009027033011e-14
11
-12.524999999999997
21
14.287499977443099
31
-1.2490009027033011e-14
0
LINE
5
141
100
AcDbEntity
8
0
100
AcDbLine
10
-6.5250000000000217
20
38.100000000000009
30
2.3037127760971998e-14
11
-12.524999999999999
21
38.100000000000009
31
2.3037127760971998e-14
0
LINE
5
142
100
AcDbEntity
8
0
100
AcDbLine
10
-25.575000000000031
20
38.100000000000001
30
2.4424906541753444e-14
11
-31.575000000000003
21
38.100000000000001
31
2.4424906541753444e-14
0
LINE
5
143
100
AcDbEntity
8
0
100
AcDbLine
10
-18.42099999624153
20
25.753600023724331
30
-5.5511151231257827e-16
11
-24.420999996241509
21
25.753600023724331
31
-5.5511151231257827e-16
0
LINE
5
144
100
AcDbEntity
8
0
100
AcDbLine
10
-21.42099999624152
20
22.753600023724342
30
-5.5511151231257827e-16
11
-21.42099999624152
21
28.753600023724321
31
-5.5511151231257827e-16
0
LINE
5
145
100
AcDbEntity
8
0
100
AcDbLine
10
-261.31874999624176
20
25.753600209566979
30
-2.2204460492503131e-15
11
-267.31874999624176
21
25.753600209566979
31
-2.2204460492503131e-15
0
LINE
5
146
100
AcDbEntity
8
0
100
AcDbLine
10
-264.31874999624176
20
22.753600209567008
30
-2.2204460492503131e-15
11
-264.31874999624176
21
28.753600209566951
31
-2.2204460492503131e-15
0
LINE
5
147
100
AcDbEntity
8
0
100
AcDbLine
10
-241.6968750000002
20
111.29999981492955
30
7.4940054162198066e-15
11
-241.6968750000002
21
117.29999981492955
31
7.4940054162198066e-15
0
LINE
5
148
100
AcDbEntity
8
0
100
AcDbLine
10
-238.6968750000002
20
114.29999981492955
30
7.4940054162198066e-15
11
-244.6968750000002
21
114.29999981492955
31
7.4940054162198066e-15
0
LINE
5
149
100
AcDbEntity
8
0
100
AcDbLine
10
-22.003125000000022
20
114.29999981492956
30
8.8817841970012523e-15
11
-28.003125000000022
21
114.29999981492956
31
8.8817841970012523e-15
0
LINE
5
150
100
AcDbEntity
8
0
100
AcDbLine
10
-25.003125000000026
20
111.29999981492958
30
8.8817841970012523e-15
11
-25.003125000000026
21
117.29999981492955
31
8.8817841970012523e-15
0
LINE
5
151
100
AcDbEntity
8
0
100
AcDbLine
10
-290.89998557547864
20
22.753600247378841
30
5.8841820305133297e-14
11
-290.89998557547864
21
28.75360024737882
31
5.8841820305133297e-14
0
LINE
5
152
100
AcDbEntity
8
0
100
AcDbLine
10
-287.89998557547858
20
25.753600247378831
30
5.8841820305133297e-14
11
-293.89998557547864
21
25.753600247378831
31
5.8841820305133297e-14
0
LINE
5
153
100
AcDbEntity
8
0
100
AcDbLine
10
-16.899985575478375
20
25.753600261834862
30
3.9690473130349346e-14
11
-10.899985575478397
21
25.753600261834862
31
3.9690473130349346e-14
0
LINE
5
154
100
AcDbEntity
8
0
100
AcDbLine
10
-13.899985575478389
20
28.753600261834855
30
3.9690473130349346e-14
11
-13.899985575478386
21
22.753600261834876
31
3.9690473130349346e-14
0
CIRCLE
5
155
100
AcDbEntity
8
0
100
AcDbCircle
10
-9.5250000000000021
20
14.287499977443101
30
0
40
1.7500000000000004
210
3.0814879110195774e-33
220
1.6600019509905294e-49
230
1
0
CIRCLE
5
156
100
AcDbEntity
8
0
100
AcDbCircle
10
-276.22500000000008
20
14.287499999423101
30
0
40
1.7500000000000071
210
-2.311115933264683e-33
220
-1.2450014632428969e-49
230
1
0
CIRCLE
5
157
100
AcDbEntity
8
0
100
AcDbCircle
10
-33.337500000000006
20
14.287499979405604
30
0
40
1.749999999999998
210
3.081487911019578e-33
220
1.2325951644078312e-32
230
1
0
CIRCLE
5
158
100
AcDbEntity
8
0
100
AcDbCircle
10
-9.5250000000000039
20
38.100000000000016
30
0
40
1.7500000000000004
210
3.0814879110195774e-33
220
1.6600019509905265e-49
230
1
0
CIRCLE
5
159
100
AcDbEntity
8
0
100
AcDbCircle
10
-195.26250000000002
20
14.2874999927506
30
0
40
1.7500000000000071
210
-2.311115933264683e-33
220
-1.2450014632428969e-49
230
1
0
CIRCLE
5
160
100
AcDbEntity
8
0
100
AcDbCircle
10
-114.3
20
14.2874999860781
30
0
40
1.7500000000000071
210
-2.311115933264683e-33
220
-1.2450014632428969e-49
230
1
0
CIRCLE
5
161
100
AcDbEntity
8
0
100
AcDbCircle
10
-28.574999999999999
20
38.100000000000009
30
0
40
1.749999999999998
210
3.081487911019578e-33
220
1.2325951644078312e-32
230
1
0
CIRCLE
5
162
100
AcDbEntity
8
0
100
AcDbCircle
10
-290.89998557547847
20
25.753600247378834
30
0
40
3.0000000000000071
210
1.5407439555097887e-33
220
1.2207685092654616e-48
230
1
0
CIRCLE
5
163
100
AcDbEntity
8
0
100
AcDbCircle
10
-13.899985575478377
20
25.753600261834869
30
0
40
3.0000000000000004
210
5.3926038442842515e-33
220
1.2325951644078315e-32
230
1
0
CIRCLE
5
164
100
AcDbEntity
8
0
100
AcDbCircle
10
-264.31874999624154
20
25.753600209566983
30
0
40
1.1499999999999999
210
0
220
-0
230
1
0
CIRCLE
5
165
100
AcDbEntity
8
0
100
AcDbCircle
10
-25.003125000000004
20
114.29999981492958
30
0
40
1.1499999999999999
210
0
220
-0
230
1
0
CIRCLE
5
166
100
AcDbEntity
8
0
100
AcDbCircle
10
-21.420999996241505
20
25.753600023724339
30
0
40
1.1499999999999999
210
0
220
-0
230
1
0
CIRCLE
5
167
100
AcDbEntity
8
0
100
AcDbCircle
10
-241.69687500000003
20
114.29999981492956
30
0
40
1.1499999999999999
210
0
220
-0
230
1
0
ARC
5
168
100
AcDbEntity
8
0
100
AcDbCircle
10
-1.250000000000107
20
6.0119999963828432
30
-1.8816263559049057e-47
40
1.000000000000002
210
2.3111159332646808e-32
220
1.2325951644078359e-32
230
1
100
AcDbArc
50
-90
51
0
0
LINE
5
169
100
AcDbEntity
8
0
100
AcDbLine
10
-0.25000000000010514
20
6.0119999963828441
30
-2.3111159332646885e-32
11
-0.250000000000208
21
122.57484214721575
31
3.6572676249790786e-25
0
ARC
5
170
100
AcDbEntity
8
0
100
AcDbCircle
10
-1.2500000000002061
20
122.57484214721575
30
0
40
0.999999999999998
210
-3.6572676249790869e-25
220
0
230
1
100
AcDbArc
50
0
51
90.000000000000668
0
LINE
5
171
100
AcDbEntity
8
0
100
AcDbLine
10
-1.2500000000002178
20
123.57484214721575
30
0
11
-49.058563310557666
21
123.57484214721558
31
-3.5676105016127996e-25
0
ARC
5
172
100
AcDbEntity
8
0
100
AcDbCircle
10
-49.058563310557673
20
125.57484214721556
30
0
40
2.0000000000000009
210
0
220
0
230
1
100
AcDbArc
50
226.74078856481086
51
270.00000000000023
0
LINE
5
173
100
AcDbEntity
8
0
100
AcDbLine
10
-50.429163473715974
20
124.1183205398405
30
0
11
-51.319128054242775
21
124.95578535538621
31
-4.622231866529366e-32
0
ARC
5
174
100
AcDbEntity
8
0
100
AcDbCircle
10
-52.689728217485403
20
123.49926374792145
30
0
40
2.0000000001231233
210
1.5838079375076059e-32
220
1.6830951468708348e-32
230
1
100
AcDbArc
50
46.740788564812519
51
90.000117663186998
0
LINE
5
175
100
AcDbEntity
8
0
100
AcDbLine
10
-52.689732324705446
20
125.49926374804036
30
8.9764901042702953e-33
11
-208.51555732437689
21
125.4989437394228
31
1.2325951644078309e-31
0
ARC
5
176
100
AcDbEntity
8
0
100
AcDbCircle
10
-208.51555322368253
20
123.50218473942293
30
0
40
1.9967590000040767
210
1.2677293921552761e-37
220
-6.1729791347013598e-32
230
1
100
AcDbArc
50
90.000117666919039
51
133.32240233680983
0
LINE
5
177
100
AcDbEntity
8
0
100
AcDbLine
10
-209.88553527567021
20
124.95483599878591
30
0
11
-211.08354949445152
21
123.82499979950703
31
4.622231866529366e-32
0
ARC
5
178
100
AcDbEntity
8
0
100
AcDbCircle
10
-212.05179548731991
20
125.57499979588968
30
3.5059830718751771e-44
40
2.0000000000002771
210
4.1770934992412051e-32
220
-7.5496450926757735e-32
230
1
100
AcDbArc
50
270.00000000000159
51
298.95502834040053
0
LINE
5
179
100
AcDbEntity
8
0
100
AcDbLine
10
-212.05179548731985
20
123.5749997958894
30
-1.5099290185350432e-31
11
-303.55000000000001
21
123.57499979588924
31
3.1354521599125166e-25
0
ARC
5
180
100
AcDbEntity
8
0
100
AcDbCircle
10
-303.55000000000007
20
122.57499979588923
30
0
40
1.0000000000000142
210
7.7036083839111677e-34
220
-3.1354521599124721e-25
230
1
100
AcDbArc
50
89.999999999996746
51
180
0
LINE
5
181
100
AcDbEntity
8
0
100
AcDbLine
10
-304.55000000000007
20
122.57499979588925
30
7.7037197775448141e-34
11
-304.54999999999961
21
6.0119999963817605
31
-9.8607613152626476e-31
0
ARC
5
182
100
AcDbEntity
8
0
100
AcDbCircle
10
-303.54999999999956
20
6.0119999963817854
30
0
40
1.0000000000000142
210
-9.8607613152625039e-31
220
-1.2325951644102389e-32
230
1
100
AcDbArc
50
180
51
270
0
LINE
5
183
100
AcDbEntity
8
0
100
AcDbLine
10
-303.54999999999956
20
5.0119999963817712
30
-1.232595164407846e-32
11
-1.2500000000001068
21
5.0119999963828405
31
1.2325951644078359e-32
0
LWPOLYLINE
5
184
100
AcDbEntity
8
0
100
AcDbPolyline
90
10
70
1
43
0.0
10
-99.523315107377016
20
21.358516496889063
10
-99.546387102015075
20
26.358463264912039
10
-100.74637432634057
20
26.352925986198905
10
-101.03504638758595
20
26.351593923967403
10
-101.03735358704975
20
26.851588600769702
10
-103.79864905429838
20
26.838846746271994
10
-103.77096266073272
20
20.838910624644424
10
-101.00966719348409
20
20.851652479142132
10
-101.01197439294791
20
21.351647155944427
10
-100.72330233170251
20
21.352979218175928
0
LWPOLYLINE
5
185
100
AcDbEntity
8
0
100
AcDbPolyline
90
4
70
1
43
0.0
10
-33.420999996241534
20
29.553600220135504
10
-244.31874999624176
20
29.553600220134744
42
0.99999999999999989
10
-244.31874999624176
20
27.953600220134742
10
-33.42099999624152
20
27.953600220135506
42
0.99999999999999989
0
LWPOLYLINE
5
186
100
AcDbEntity
8
0
100
AcDbPolyline
90
4
70
1
43
0.0
10
-48.10079902547816
20
105.62499979589003
10
-233.69687500000023
20
105.62499979589019
42
0.99999999999999989
10
-233.69687500000026
20
104.02499979589021
10
-48.100799025478182
20
104.02499979589003
42
0.99999999999999989
0
CIRCLE
5
187
100
AcDbEntity
8
0
100
AcDbCircle
10
-9.5250000000000021
20
14.287499977443101
30
0
40
1.7500000000000004
210
3.0814879110195774e-33
220
1.6600019509905294e-49
230
1
0
CIRCLE
5
188
100
AcDbEntity
8
0
100
AcDbCircle
10
-276.22500000000008
20
14.287499999423101
30
0
40
1.7500000000000071
210
-2.311115933264683e-33
220
-1.2450014632428969e-49
230
1
0
CIRCLE
5
189
100
AcDbEntity
8
0
100
AcDbCircle
10
-33.337500000000006
20
14.287499979405604
30
0
40
1.749999999999998
210
3.081487911019578e-33
220
1.2325951644078312e-32
230
1
0
CIRCLE
5
190
100
AcDbEntity
8
0
100
AcDbCircle
10
-9.5250000000000039
20
38.100000000000016
30
0
40
1.7500000000000004
210
3.0814879110195774e-33
220
1.6600019509905265e-49
230
1
0
CIRCLE
5
191
100
AcDbEntity
8
0
100
AcDbCircle
10
-195.26250000000002
20
14.2874999927506
30
0
40
1.7500000000000071
210
-2.311115933264683e-33
220
-1.2450014632428969e-49
230
1
0
CIRCLE
5
192
100
AcDbEntity
8
0
100
AcDbCircle
10
-114.3
20
14.2874999860781
30
0
40
1.7500000000000071
210
-2.311115933264683e-33
220
-1.2450014632428969e-49
230
1
0
CIRCLE
5
193
100
AcDbEntity
8
0
100
AcDbCircle
10
-28.574999999999999
20
38.100000000000009
30
0
40
1.749999999999998
210
3.081487911019578e-33
220
1.2325951644078312e-32
230
1
0
CIRCLE
5
194
100
AcDbEntity
8
0
100
AcDbCircle
10
-290.89998557547847
20
25.753600247378834
30
0
40
3.0000000000000071
210
1.5407439555097887e-33
220
1.2207685092654616e-48
230
1
0
CIRCLE
5
195
100
AcDbEntity
8
0
100
AcDbCircle
10
-13.899985575478377
20
25.753600261834869
30
0
40
3.0000000000000004
210
5.3926038442842515e-33
220
1.2325951644078315e-32
230
1
0
CIRCLE
5
196
100
AcDbEntity
8
0
100
AcDbCircle
10
-264.31874999624154
20
25.753600209566983
30
0
40
1.1499999999999999
210
0
220
-0
230
1
0
CIRCLE
5
197
100
AcDbEntity
8
0
100
AcDbCircle
10
-25.003125000000004
20
114.29999981492958
30
0
40
1.1499999999999999
210
0
220
-0
230
1
0
CIRCLE
5
198
100
AcDbEntity
8
0
100
AcDbCircle
10
-21.420999996241505
20
25.753600023724339
30
0
40
1.1499999999999999
210
0
220
-0
230
1
0
CIRCLE
5
199
100
AcDbEntity
8
0
100
AcDbCircle
10
-241.69687500000003
20
114.29999981492956
30
0
40
1.1499999999999999
210
0
220
-0
230
1
0
ARC
5
200
100
AcDbEntity
8
0
100
AcDbCircle
10
-1.250000000000107
20
6.0119999963828432
30
-1.8816263559049057e-47
40
1.000000000000002
210
2.3111159332646808e-32
220
1.2325951644078359e-32
230
1
100
AcDbArc
50
-90
51
0
0
LINE
5
201
100
AcDbEntity
8
0
100
AcDbLine
10
-0.25000000000010514
20
6.0119999963828441
30
-2.3111159332646885e-32
11
-0.250000000000208
21
122.57484214721575
31
3.6572676249790786e-25
0
ARC
5
202
100
AcDbEntity
8
0
100
AcDbCircle
10
-1.2500000000002061
20
122.57484214721575
30
0
40
0.999999999999998
210
-3.6572676249790869e-25
220
0
230
1
100
AcDbArc
50
0
51
90.000000000000668
0
LINE
5
203
100
AcDbEntity
8
0
100
AcDbLine
10
-1.2500000000002178
20
123.57484214721575
30
0
11
-49.058563310557666
21
123.57484214721558
31
-3.5676105016127996e-25
0
ARC
5
204
100
AcDbEntity
8
0
100
AcDbCircle
10
-49.058563310557673
20
125.57484214721556
30
0
40
2.0000000000000009
210
0
220
0
230
1
100
AcDbArc
50
226.74078856481086
51
270.00000000000023
0
LINE
5
205
100
AcDbEntity
8
0
100
AcDbLine
10
-50.429163473715974
20
124.1183205398405
30
0
11
-51.319128054242775
21
124.95578535538621
31
-4.622231866529366e-32
0
ARC
5
206
100
AcDbEntity
8
0
100
AcDbCircle
10
-52.689728217485403
20
123.49926374792145
30
0
40
2.0000000001231233
210
1.5838079375076056e-32
220
1.6830951468708348e-32
230
1
100
AcDbArc
50
46.740788564812519
51
90.000117663186998
0
LINE
5
207
100
AcDbEntity
8
0
100
AcDbLine
10
-52.689732324705446
20
125.49926374804036
30
8.9764901042702953e-33
11
-208.51555732437689
21
125.4989437394228
31
1.2325951644078309e-31
0
ARC
5
208
100
AcDbEntity
8
0
100
AcDbCircle
10
-208.51555322368253
20
123.50218473942293
30
0
40
1.9967590000040767
210
1.2677293921552761e-37
220
-6.1729791347013598e-32
230
1
100
AcDbArc
50
90.000117666919039
51
133.32240233680983
0
LINE
5
209
100
AcDbEntity
8
0
100
AcDbLine
10
-209.88553527567021
20
124.95483599878591
30
0
11
-211.08354949445152
21
123.82499979950703
31
4.622231866529366e-32
0
ARC
5
210
100
AcDbEntity
8
0
100
AcDbCircle
10
-212.05179548731991
20
125.57499979588968
30
3.5059830718751771e-44
40
2.0000000000002771
210
4.1770934992412051e-32
220
-7.5496450926757735e-32
230
1
100
AcDbArc
50
270.00000000000159
51
298.95502834040053
0
LINE
5
211
100
AcDbEntity
8
0
100
AcDbLine
10
-212.05179548731985
20
123.5749997958894
30
-1.5099290185350432e-31
11
-303.55000000000001
21
123.57499979588924
31
3.1354521599125166e-25
0
ARC
5
212
100
AcDbEntity
8
0
100
AcDbCircle
10
-303.55000000000007
20
122.57499979588923
30
0
40
1.0000000000000142
210
7.7036083839111677e-34
220
-3.1354521599124721e-25
230
1
100
AcDbArc
50
89.999999999996746
51
180
0
LINE
5
213
100
AcDbEntity
8
0
100
AcDbLine
10
-304.55000000000007
20
122.57499979588925
30
7.7037197775448141e-34
11
-304.54999999999961
21
6.0119999963817605
31
-9.8607613152626476e-31
0
ARC
5
214
100
AcDbEntity
8
0
100
AcDbCircle
10
-303.54999999999956
20
6.0119999963817854
30
0
40
1.0000000000000142
210
-9.8607613152625039e-31
220
-1.2325951644102389e-32
230
1
100
AcDbArc
50
180
51
270
0
LINE
5
215
100
AcDbEntity
8
0
100
AcDbLine
10
-303.54999999999956
20
5.0119999963817712
30
-1.232595164407846e-32
11
-1.2500000000001068
21
5.0119999963828405
31
1.2325951644078359e-32
0
ENDSEC
0
SECTION
2
OBJECTS
0
DICTIONARY
5
C
100
AcDbDictionary
3
ACAD_GROUP
350
D
3
ACAD_MLINESTYLE
350
17
0
DICTIONARY
5
D
100
AcDbDictionary
0
DICTIONARY
5
1A
330
C
100
AcDbDictionary
0
DICTIONARY
5
17
100
AcDbDictionary
0
ENDSEC
0
EOF
