<?xml version="1.0" encoding="UTF-8" standalone="no"?>
<svg
   viewBox="0 0 1151.1151 456.38826"
   width="1151.1151"
   height="456.38824"
   version="1.1"
   id="svg1028"
   sodipodi:docname="M75_PCBOutline_10252021_V2.svg"
   inkscape:version="1.1.1 (3bf5ae0d25, 2021-09-20)"
   xmlns:inkscape="http://www.inkscape.org/namespaces/inkscape"
   xmlns:sodipodi="http://sodipodi.sourceforge.net/DTD/sodipodi-0.dtd"
   xmlns="http://www.w3.org/2000/svg"
   xmlns:svg="http://www.w3.org/2000/svg">
  <sodipodi:namedview
     id="namedview1030"
     pagecolor="#ffffff"
     bordercolor="#666666"
     borderopacity="1.0"
     inkscape:pageshadow="2"
     inkscape:pageopacity="0.0"
     inkscape:pagecheckerboard="0"
     showgrid="false"
     inkscape:zoom="0.5159112"
     inkscape:cx="789.86461"
     inkscape:cy="188.98601"
     inkscape:window-width="1920"
     inkscape:window-height="1043"
     inkscape:window-x="1920"
     inkscape:window-y="293"
     inkscape:window-maximized="1"
     inkscape:current-layer="g1026"
     inkscape:snap-center="true" />
  <desc
     id="desc840">M75_PCBOutline_10252021.dxf - scale = 1.0, origin = (0.0, 0.0), method = manual</desc>
  <defs
     id="defs854">
    <rect
       x="-1181.8695"
       y="612.45471"
       width="138.51421"
       height="92.610077"
       id="rect11696" />
    <marker
       id="DistanceX"
       orient="auto"
       refX="0"
       refY="0"
       style="overflow:visible">
      <path
         d="M 3,-3 -3,3 M 0,-5 V 5"
         style="stroke:#000000;stroke-width:0.5"
         id="path842" />
    </marker>
    <pattern
       id="Hatch"
       patternUnits="userSpaceOnUse"
       width="8"
       height="8"
       x="0"
       y="0">
      <path
         d="M8 4 l-4,4"
         stroke="#000000"
         stroke-width="0.25"
         linecap="square"
         id="path845" />
      <path
         d="M6 2 l-4,4"
         stroke="#000000"
         stroke-width="0.25"
         linecap="square"
         id="path847" />
      <path
         d="M4 0 l-4,4"
         stroke="#000000"
         stroke-width="0.25"
         linecap="square"
         id="path849" />
    </pattern>
    <symbol
       id="*MODEL_SPACE" />
    <symbol
       id="*PAPER_SPACE" />
    <rect
       x="-1181.8695"
       y="612.45471"
       width="138.51421"
       height="92.610077"
       id="rect15214" />
    <rect
       x="-1181.8695"
       y="612.45471"
       width="138.51421"
       height="92.610077"
       id="rect16690" />
    <rect
       x="-1181.8695"
       y="612.45471"
       width="138.51421"
       height="92.610077"
       id="rect17068" />
    <rect
       x="-1181.8695"
       y="612.45471"
       width="138.51421"
       height="92.610077"
       id="rect17824" />
    <rect
       x="-1181.8695"
       y="612.45471"
       width="138.51421"
       height="92.610077"
       id="rect19084" />
    <rect
       x="-1181.8695"
       y="612.45471"
       width="138.51421"
       height="92.610077"
       id="rect19408" />
    <rect
       x="-1181.8695"
       y="612.45471"
       width="138.51421"
       height="92.610077"
       id="rect20110" />
    <rect
       x="-1181.8695"
       y="612.45471"
       width="138.51421"
       height="92.610077"
       id="rect20800" />
    <rect
       x="-1181.8695"
       y="612.45471"
       width="138.51421"
       height="92.610077"
       id="rect21124" />
    <rect
       x="-1181.8695"
       y="612.45471"
       width="138.51421"
       height="92.610077"
       id="rect22454" />
    <rect
       x="-1181.8695"
       y="612.45471"
       width="138.51421"
       height="92.610077"
       id="rect24382" />
    <rect
       x="-1181.8695"
       y="612.45471"
       width="138.51421"
       height="92.610077"
       id="rect24388" />
    <rect
       x="-1181.8695"
       y="612.45471"
       width="138.51421"
       height="92.610077"
       id="rect24922" />
    <rect
       x="-1181.8695"
       y="612.45471"
       width="138.51421"
       height="92.610077"
       id="rect24928" />
  </defs>
  <g
     inkscape:groupmode="layer"
     inkscape:label="0"
     id="g1026"
     transform="translate(1151.56,-647.69176)">
    <path
       d="m -1147.2805,648.19506 a 3.779528,3.779528 0 0 0 -3.7795,3.7795"
       style="fill:none;stroke:#000000"
       id="path856" />
    <path
       style="fill:none;stroke:#000000"
       d="M -1151.06,651.97176 V 1092.5268"
       id="path858" />
    <path
       d="m -1151.06,1092.5271 a 3.779528,3.779528 0 0 0 3.7795,3.7795"
       style="fill:none;stroke:#000000"
       id="path860" />
    <path
       style="fill:none;stroke:#000000"
       d="m -1147.2805,1096.3068 h 180.69362"
       id="path862" />
    <path
       d="m -961.40647,1098.3607 a 7.559055,7.559055 0 0 0 -5.18022,-2.0541"
       style="fill:none;stroke:#000000"
       id="path864" />
    <path
       style="fill:none;stroke:#000000"
       d="m -961.40688,1098.3608 3.364,3.165"
       id="path866" />
    <path
       d="m -958.04282,1101.5259 a 7.559055,7.559055 0 0 0 5.18023,2.0541"
       style="fill:none;stroke:#000000"
       id="path868" />
    <path
       style="fill:none;stroke:#000000"
       d="m -952.86288,1103.5798 588.948,-10e-4"
       id="path870" />
    <path
       d="m -363.91459,1103.5788 a 7.546806,7.546806 0 0 0 5.17787,-2.0565"
       style="fill:none;stroke:#000000"
       id="path872" />
    <path
       style="fill:none;stroke:#000000"
       d="m -358.73688,1101.5228 4.528,-4.271"
       id="path874" />
    <path
       d="m -350.54928,1096.3072 a 7.559055,7.559055 0 0 0 -3.65951,0.9449"
       style="fill:none;stroke:#000000"
       id="path876" />
    <path
       style="fill:none;stroke:#000000"
       d="m -350.54888,1096.3068 h 345.824"
       id="path878" />
    <path
       d="m -4.72928,1096.3072 a 3.779528,3.779528 0 0 0 3.7795,-3.7795"
       style="fill:none;stroke:#000000"
       id="path880" />
    <path
       style="fill:none;stroke:#000000"
       d="M -0.94488,1092.5278 V 651.97176"
       id="path882" />
    <path
       d="m -0.94978,651.97456 a 3.779528,3.779528 0 0 0 -3.7795,-3.7795"
       style="fill:none;stroke:#000000"
       id="path884" />
    <path
       style="fill:none;stroke:#000000"
       d="M -4.72488,648.19176 H -1147.2805"
       id="path886" />
    <path
       d="m -1122.6191,683.25206 a 6.6142,6.6142 0 1 0 13.2284,0 6.6142,6.6142 0 1 0 -13.2284,0 z"
       style="fill:none;stroke:#000000"
       id="path888" />
    <path
       d="m -114.61908,683.25206 a 6.6142,6.6142 0 1 0 13.2284,0 6.6142,6.6142 0 1 0 -13.2284,0 z"
       style="fill:none;stroke:#000000"
       id="path890" />
    <path
       d="m -1032.6191,683.25206 a 6.6142,6.6142 0 1 0 13.2284,0 6.6142,6.6142 0 1 0 -13.2284,0 z"
       style="fill:none;stroke:#000000"
       id="path892" />
    <path
       d="m -1122.6191,773.25208 a 6.6142,6.6142 0 1 0 13.2284,0 6.6142,6.6142 0 1 0 -13.2284,0 z"
       style="fill:none;stroke:#000000"
       id="path894" />
    <path
       d="m -420.61905,683.25206 a 6.614173,6.614173 0 1 0 13.22834,0 6.614173,6.614173 0 1 0 -13.22834,0 z"
       style="fill:none;stroke:#000000"
       id="path896" />
    <path
       d="m -726.61905,683.25206 a 6.614173,6.614173 0 1 0 13.22834,0 6.614173,6.614173 0 1 0 -13.22834,0 z"
       style="fill:none;stroke:#000000"
       id="path898" />
    <path
       d="m -1050.6191,773.25208 a 6.6142,6.6142 0 1 0 13.2284,0 6.6142,6.6142 0 1 0 -13.2284,0 z"
       style="fill:none;stroke:#000000"
       id="path900" />
    <path
       d="m -63.87898,726.58856 a 11.3386,11.3386 0 1 0 22.6772,0 11.3386,11.3386 0 1 0 -22.6772,0 z"
       style="fill:none;stroke:#00c800;stroke-opacity:1"
       id="path902" />
    <path
       d="m -1110.8081,726.58856 a 11.3386,11.3386 0 1 0 22.6772,0 11.3386,11.3386 0 1 0 -22.6772,0 z"
       style="fill:none;stroke:#00c800;stroke-opacity:1"
       id="path904" />
    <path
       d="m -157.35134,726.58856 a 4.34648,4.34648 0 1 0 8.69296,0 4.34648,4.34648 0 1 0 -8.69296,0 z"
       style="fill:none;stroke:#ff0000;stroke-opacity:1"
       id="path906" />
    <path
       d="m -1061.8513,1061.2521 a 4.346457,4.346457 0 1 0 8.6929,0 4.346457,4.346457 0 1 0 -8.6929,0 z"
       style="fill:none;stroke:#ff0000;stroke-opacity:1"
       id="path908" />
    <path
       d="m -1075.3901,726.58856 a 4.346457,4.346457 0 1 0 8.6929,0 4.346457,4.346457 0 1 0 -8.6929,0 z"
       style="fill:none;stroke:#ff0000;stroke-opacity:1"
       id="path910" />
    <path
       d="m -242.85134,1061.2521 a 4.34646,4.34646 0 1 0 8.69292,0 4.34646,4.34646 0 1 0 -8.69292,0 z"
       style="fill:none;stroke:#ff0000;stroke-opacity:1"
       id="path912" />
    <path
       style="fill:none;stroke:#000000"
       d="m -1116.0049,671.91176 v 22.68"
       id="path914" />
    <path
       style="fill:none;stroke:#000000"
       d="m -1026.0049,671.91176 v 22.68"
       id="path916" />
    <path
       style="fill:none;stroke:#000000"
       d="m -1116.0049,761.91376 v 22.677"
       id="path918" />
    <path
       style="fill:none;stroke:#000000"
       d="m -1044.0049,761.91376 v 22.677"
       id="path920" />
    <path
       style="fill:none;stroke:#000000"
       d="m -720.00488,671.91176 v 22.68"
       id="path922" />
    <path
       style="fill:none;stroke:#000000"
       d="m -414.00488,671.91176 v 22.68"
       id="path924" />
    <path
       style="fill:none;stroke:#000000"
       d="m -108.00488,671.91176 v 22.68"
       id="path926" />
    <path
       style="fill:none;stroke:#000000"
       d="m -119.34488,683.25176 h 22.68"
       id="path928" />
    <path
       style="fill:none;stroke:#000000"
       d="m -425.34388,683.25176 h 22.678"
       id="path930" />
    <path
       style="fill:none;stroke:#000000"
       d="m -731.34388,683.25176 h 22.678"
       id="path932" />
    <path
       style="fill:none;stroke:#000000"
       d="m -1037.3439,683.25176 h 22.678"
       id="path934" />
    <path
       style="fill:none;stroke:#000000"
       d="m -1127.3435,683.25176 h 22.6772"
       id="path936" />
    <path
       style="fill:none;stroke:#000000"
       d="m -1127.3435,773.25176 h 22.6772"
       id="path938" />
    <path
       style="fill:none;stroke:#000000"
       d="m -1055.3435,773.25176 h 22.6776"
       id="path940" />
    <path
       style="fill:none;stroke:#ff0000;stroke-opacity:1"
       d="m -1082.3822,726.59176 h 22.6771"
       id="path942" />
    <path
       style="fill:none;stroke:#ff0000;stroke-opacity:1"
       d="m -1071.0436,715.25176 v 22.68"
       id="path944" />
    <path
       style="fill:none;stroke:#ff0000;stroke-opacity:1"
       d="m -164.34388,726.59176 h 22.679"
       id="path946" />
    <path
       style="fill:none;stroke:#ff0000;stroke-opacity:1"
       d="m -238.50488,1049.9138 v 22.68"
       id="path948" />
    <path
       style="fill:none;stroke:#ff0000;stroke-opacity:1"
       d="m -238.50488,1049.9138 v 22.677"
       id="path950" />
    <path
       style="fill:none;stroke:#ff0000;stroke-opacity:1"
       d="m -249.84388,1061.2518 h 22.678"
       id="path952" />
    <path
       style="fill:none;stroke:#ff0000;stroke-opacity:1"
       d="m -1068.8435,1061.2518 h 22.6776"
       id="path954" />
    <path
       style="fill:none;stroke:#ff0000;stroke-opacity:1"
       d="m -1057.5049,1049.9138 v 22.677"
       id="path956" />
    <path
       style="fill:none;stroke:#00c800;stroke-opacity:1"
       d="m -52.54488,715.25176 v 22.68"
       id="path958" />
    <path
       style="fill:none;stroke:#00c800;stroke-opacity:1"
       d="m -63.87488,726.59176 h 22.67"
       id="path960" />
    <path
       style="fill:none;stroke:#00c800;stroke-opacity:1"
       d="m -1088.1309,726.59176 h -22.6772"
       id="path962" />
    <path
       style="fill:none;stroke:#00c800;stroke-opacity:1"
       d="m -1099.4695,737.93176 v -22.68"
       id="path964" />
    <path
       d="m -1061.8513,1061.2521 a 4.346457,4.346457 0 1 0 8.6929,0 4.346457,4.346457 0 1 0 -8.6929,0 z"
       style="fill:none;stroke:#ff0000;stroke-opacity:1"
       id="path986" />
    <path
       d="m -242.85134,1061.2521 a 4.34646,4.34646 0 1 0 8.69292,0 4.34646,4.34646 0 1 0 -8.69292,0 z"
       style="fill:none;stroke:#ff0000;stroke-opacity:1"
       id="path990" />
    <text
       xml:space="preserve"
       id="text11694"
       style="font-style:normal;font-weight:normal;font-size:8px;line-height:1.25;font-family:sans-serif;white-space:pre;shape-inside:url(#rect11696);fill:#000000;fill-opacity:1;stroke:none"
       transform="translate(57.648253,48.957284)"><tspan
         x="-1181.8691"
         y="619.28708"
         id="tspan2622">ESC</tspan></text>
    <text
       xml:space="preserve"
       id="text15212"
       style="font-style:normal;font-weight:normal;font-size:8px;line-height:1.25;font-family:sans-serif;white-space:pre;shape-inside:url(#rect15214);fill:#000000;fill-opacity:1;stroke:none"
       transform="translate(151.49286,48.957284)"><tspan
         x="-1181.8691"
         y="619.28708"
         id="tspan2624">F1</tspan></text>
    <text
       xml:space="preserve"
       id="text16688"
       style="font-style:normal;font-weight:normal;font-size:8px;line-height:1.25;font-family:sans-serif;white-space:pre;shape-inside:url(#rect16690);fill:#000000;fill-opacity:1;stroke:none"
       transform="translate(456.91925,48.957284)"><tspan
         x="-1181.8691"
         y="619.28708"
         id="tspan2626">F5</tspan></text>
    <text
       xml:space="preserve"
       id="text17066"
       style="font-style:normal;font-weight:normal;font-size:8px;line-height:1.25;font-family:sans-serif;white-space:pre;shape-inside:url(#rect17068);fill:#000000;fill-opacity:1;stroke:none"
       transform="translate(763.033,48.957284)"><tspan
         x="-1181.8691"
         y="619.28708"
         id="tspan2628">F9</tspan></text>
    <text
       xml:space="preserve"
       id="text17822"
       style="font-style:normal;font-weight:normal;font-size:8px;line-height:1.25;font-family:sans-serif;white-space:pre;shape-inside:url(#rect17824);fill:#000000;fill-opacity:1;stroke:none"
       transform="translate(1066.3861,48.957284)"><tspan
         x="-1181.8691"
         y="619.28708"
         id="tspan2630">DEL</tspan></text>
    <path
       d="m -42.61908,683.25206 a 6.6142,6.6142 0 1 0 13.2284,0 6.6142,6.6142 0 1 0 -13.2284,0 z"
       style="fill:none;stroke:#000000"
       id="path19074" />
    <path
       style="fill:none;stroke:#000000"
       d="m -36.00488,671.91176 v 22.68"
       id="path19076" />
    <path
       style="fill:none;stroke:#000000"
       d="m -47.34488,683.25176 h 22.68"
       id="path19078" />
    <text
       xml:space="preserve"
       id="text19082"
       style="font-style:normal;font-weight:normal;font-size:8px;line-height:1.25;font-family:sans-serif;white-space:pre;shape-inside:url(#rect19084);fill:#000000;fill-opacity:1;stroke:none"
       transform="translate(1133.1189,48.957284)"><tspan
         x="-1181.8691"
         y="619.28708"
         id="tspan2632">HOME</tspan></text>
    <text
       xml:space="preserve"
       id="text19406"
       style="font-style:normal;font-weight:normal;font-size:8px;line-height:1.25;font-family:sans-serif;white-space:pre;shape-inside:url(#rect19408);fill:#000000;fill-opacity:1;stroke:none"
       transform="translate(57.013958,139.45664)"><tspan
         x="-1181.8691"
         y="619.28708"
         id="tspan2634">GRV</tspan></text>
    <text
       xml:space="preserve"
       id="text20108"
       style="font-style:normal;font-weight:normal;font-size:8px;line-height:1.25;font-family:sans-serif;white-space:pre;shape-inside:url(#rect20110);fill:#000000;fill-opacity:1;stroke:none"
       transform="translate(134.30174,139.45664)"><tspan
         x="-1181.8691"
         y="619.28708"
         id="tspan2636">1!</tspan></text>
    <text
       xml:space="preserve"
       id="text20798"
       style="font-style:normal;font-weight:normal;font-size:8px;line-height:1.25;font-family:sans-serif;white-space:pre;shape-inside:url(#rect20800);fill:#0000ff;fill-opacity:1;stroke:none"
       transform="translate(407.08045,84.557882)"><tspan
         x="-1181.8691"
         y="619.28708"
         id="tspan2638">JST</tspan></text>
    <text
       xml:space="preserve"
       id="text21122"
       style="font-style:normal;font-weight:normal;font-size:8px;line-height:1.25;font-family:sans-serif;white-space:pre;shape-inside:url(#rect21124);fill:#ff0002;fill-opacity:1;stroke:none"
       transform="translate(127.56335,110.17668)"><tspan
         x="-1181.8691"
         y="619.28708"
         id="tspan2640">STANDOFF</tspan></text>
    <text
       xml:space="preserve"
       id="text22452"
       style="font-style:normal;font-weight:normal;font-size:8px;line-height:1.25;font-family:sans-serif;white-space:pre;shape-inside:url(#rect22454);fill:#00c800;fill-opacity:1;stroke:none"
       transform="translate(74.530811,91.511957)"><tspan
         x="-1181.8691"
         y="619.28708"
         id="tspan2642">PTH</tspan></text>
    <text
       xml:space="preserve"
       id="text24380"
       style="font-style:normal;font-weight:normal;font-size:8px;line-height:1.25;font-family:sans-serif;white-space:pre;shape-inside:url(#rect24382);fill:#00c800;fill-opacity:1;stroke:none"
       transform="translate(1121.6109,91.511957)"><tspan
         x="-1181.8691"
         y="619.28708"
         id="tspan2644">PTH</tspan></text>
    <text
       xml:space="preserve"
       id="text24386"
       style="font-style:normal;font-weight:normal;font-size:8px;line-height:1.25;font-family:sans-serif;white-space:pre;shape-inside:url(#rect24388);fill:#ff0002;fill-opacity:1;stroke:none"
       transform="translate(1007.849,91.511957)"><tspan
         x="-1181.8691"
         y="619.28708"
         id="tspan2646">STANDOFF</tspan></text>
    <text
       xml:space="preserve"
       id="text24920"
       style="font-style:normal;font-weight:normal;font-size:8px;line-height:1.25;font-family:sans-serif;white-space:pre;shape-inside:url(#rect24922);fill:#ff0002;fill-opacity:1;stroke:none"
       transform="translate(922.2443,426.13672)"><tspan
         x="-1181.8691"
         y="619.28708"
         id="tspan2648">STANDOFF</tspan></text>
    <text
       xml:space="preserve"
       id="text24926"
       style="font-style:normal;font-weight:normal;font-size:8px;line-height:1.25;font-family:sans-serif;white-space:pre;shape-inside:url(#rect24928);fill:#ff0002;fill-opacity:1;stroke:none"
       transform="translate(103.25972,426.13672)"><tspan
         x="-1181.8691"
         y="619.28708"
         id="tspan2650">STANDOFF</tspan></text>
    <path
       d="m -775.8538,709.97716 0.0872,18.8975 4.53539,-0.021 h 1.09104 l 0.009,1.8897 10.4364,-0.048 -0.10465,-22.6769 -10.43639,0.048 0.009,1.8898 -1.09104,0.01 z"
       style="fill:none;stroke:#0000ff;stroke-opacity:1"
       id="path1024-7" />
    <path
       d="m -1025.6893,740.95076 h 797.09384 a -3.02365,-3.02365 0 0 0 0,-6.0473 h -797.09384 a -3.02365,-3.02365 0 0 0 0,6.0473 z"
       style="fill:none;stroke:#000000"
       id="path1026" />
    <path
       d="m -970.20661,1028.4647 h 701.46548 a -3.023622,-3.023622 0 0 0 0,-6.0473 h -701.46548 a -3.023622,-3.023622 0 0 0 0,6.0473 z"
       style="fill:none;stroke:#000000"
       id="path1028" />
  </g>
</svg>
