999
"DXF R12 Output" (www.mydxf.blogspot.com)
 0 
SECTION
 2 
HEADER
 9 
$ACADVER
 1 
AC1009
 9 
$EXTMIN
 10 
 0 
 20 
 0 
 9 
$EXTMAX
 10 
 8.5 
 20 
 11 
 0 
ENDSEC
 0 
SECTION
 2 
ENTITIES
0
LINE
8
Layer 1
10
0.846666
20
317.647000
11
-0.846666
21
315.953000
0
LINE
8
Layer 1
10
0.000000
20
318.211000
11
0.000000
21
315.389000
0
LINE
8
Layer 1
10
2.257780
20
315.671000
11
1.128890
21
314.542110
0
LINE
8
Layer 1
10
1.693330
20
316.236000
11
0.564440
21
315.107110
0
LINE
8
Layer 1
10
1.128890
20
316.800000
11
0.000000
21
315.671110
0
LINE
8
0
10
-49.259400
20
125.712000
11
-274.217000
21
125.712000
0
LINE
8
0
10
-274.217000
20
127.419000
11
-274.644222
21
127.305110
0
LINE
8
0
10
-274.644222
20
127.305110
11
-274.957104
21
126.992708
0
LINE
8
0
10
-274.957104
20
126.992708
11
-275.071647
21
126.565660
0
LINE
8
0
10
-275.071647
20
126.565660
11
-274.957104
21
126.138612
0
LINE
8
0
10
-274.957104
20
126.138612
11
-274.644222
21
125.826210
0
LINE
8
0
10
-274.644222
20
125.826210
11
-274.217000
21
125.712320
0
LINE
8
0
10
-274.217000
20
127.420000
11
-49.259400
21
127.420000
0
LINE
8
0
10
-49.259300
20
125.713000
11
-48.656741
21
125.963399
0
LINE
8
0
10
-48.656741
20
125.963399
11
-48.407265
21
126.566340
0
LINE
8
0
10
-48.407265
20
126.566340
11
-48.656741
21
127.169281
0
LINE
8
0
10
-48.656741
20
127.169281
11
-49.259300
21
127.419680
0
LINE
8
0
10
-60.589200
20
44.569700
11
-258.558000
21
44.569700
0
LINE
8
0
10
-258.558000
20
46.276400
11
-259.159934
21
46.025667
0
LINE
8
0
10
-259.159934
20
46.025667
11
-259.409070
21
45.423070
0
LINE
8
0
10
-259.409070
20
45.423070
11
-259.159934
21
44.820473
0
LINE
8
0
10
-259.159934
20
44.820473
11
-258.558000
21
44.569740
0
LINE
8
0
10
-258.558000
20
46.276300
11
-60.589200
21
46.276300
0
LINE
8
0
10
-60.589300
20
44.569800
11
-59.987366
21
44.820533
0
LINE
8
0
10
-59.987366
20
44.820533
11
-59.738230
21
45.423130
0
LINE
8
0
10
-59.738230
20
45.423130
11
-59.987366
21
46.025727
0
LINE
8
0
10
-59.987366
20
46.025727
11
-60.589300
21
46.276460
0
LINE
8
0
10
-308.532000
20
151.890000
11
-308.947190
21
151.806174
0
LINE
8
0
10
-308.947190
20
151.806174
11
-309.286240
21
151.577580
0
LINE
8
0
10
-309.286240
20
151.577580
11
-309.514834
21
151.238530
0
LINE
8
0
10
-309.514834
20
151.238530
11
-309.598660
21
150.823340
0
LINE
8
0
10
-309.599000
20
150.824000
11
-309.599000
21
26.490100
0
LINE
8
0
10
-309.599000
20
26.489900
11
-309.515174
21
26.074710
0
LINE
8
0
10
-309.515174
20
26.074710
11
-309.286580
21
25.735660
0
LINE
8
0
10
-309.286580
20
25.735660
11
-308.947530
21
25.507066
0
LINE
8
0
10
-308.947530
20
25.507066
11
-308.532340
21
25.423240
0
LINE
8
0
10
-308.532000
20
25.423300
11
-257.537000
21
25.423300
0
LINE
8
0
10
-256.075000
20
24.843600
11
-256.750614
21
25.273095
0
LINE
8
0
10
-256.750614
20
25.273095
11
-257.536970
21
25.423312
0
LINE
8
0
10
-256.075000
20
24.843600
11
-255.125605
21
23.950367
0
LINE
8
0
10
-255.125000
20
23.950300
11
-254.449386
21
23.520805
0
LINE
8
0
10
-254.449386
20
23.520805
11
-253.663030
21
23.370588
0
LINE
8
0
10
-253.664000
20
23.370700
11
-87.450000
21
23.370982
0
LINE
8
0
10
-87.449400
20
23.370900
11
-86.663227
21
23.521310
0
LINE
8
0
10
-86.663227
20
23.521310
11
-85.988090
21
23.951290
0
LINE
8
0
10
-85.988100
20
23.951200
11
-84.710200
21
25.156570
0
LINE
8
0
10
-83.677400
20
25.423100
11
-84.710190
21
25.156457
0
LINE
8
0
10
-83.677300
20
25.423300
11
13.921900
21
25.423300
0
LINE
8
0
10
13.920600
20
25.423100
11
14.328798
21
25.504300
0
LINE
8
0
10
14.328798
20
25.504300
11
14.674850
21
25.735531
0
LINE
8
0
10
14.674850
20
25.735531
11
14.906071
21
26.081589
0
LINE
8
0
10
14.906071
20
26.081589
11
14.987260
21
26.489790
0
LINE
8
0
10
14.988700
20
26.489800
11
14.988700
21
150.824000
0
LINE
8
0
10
14.987300
20
150.824000
11
14.903474
21
151.239190
0
LINE
8
0
10
14.903474
20
151.239190
11
14.674880
21
151.578240
0
LINE
8
0
10
14.674880
20
151.578240
11
14.335830
21
151.806834
0
LINE
8
0
10
14.335830
20
151.806834
11
13.920640
21
151.890660
0
LINE
8
0
10
13.921900
20
151.891000
11
-308.532000
21
151.891000
0
LINE
8
0
10
-301.572000
20
141.996000
11
-301.321909
21
141.062665
0
LINE
8
0
10
-301.321909
20
141.062665
11
-300.638660
21
140.379416
0
LINE
8
0
10
-300.638660
20
140.379416
11
-299.705325
21
140.129330
0
LINE
8
0
10
-299.705325
20
140.129330
11
-298.771990
21
140.379416
0
LINE
8
0
10
-298.771990
20
140.379416
11
-298.088741
21
141.062665
0
LINE
8
0
10
-298.088741
20
141.062665
11
-297.838655
21
141.996000
0
LINE
8
0
10
-297.838655
20
141.996000
11
-298.088744
21
142.929335
0
LINE
8
0
10
-298.088744
20
142.929335
11
-298.771993
21
143.612584
0
LINE
8
0
10
-298.771993
20
143.612584
11
-299.705328
21
143.862670
0
LINE
8
0
10
-299.705328
20
143.862670
11
-300.638663
21
143.612584
0
LINE
8
0
10
-300.638663
20
143.612584
11
-301.321911
21
142.929335
0
LINE
8
0
10
-301.321911
20
142.929335
11
-301.571998
21
141.996000
0
LINE
8
0
10
-301.571998
20
141.996000
11
-301.572000
21
141.996000
0
LINE
8
0
10
3.227300
20
141.996000
11
3.477391
21
141.062665
0
LINE
8
0
10
3.477391
20
141.062665
11
4.160640
21
140.379416
0
LINE
8
0
10
4.160640
20
140.379416
11
5.093975
21
140.129330
0
LINE
8
0
10
5.093975
20
140.129330
11
6.027310
21
140.379416
0
LINE
8
0
10
6.027310
20
140.379416
11
6.710559
21
141.062665
0
LINE
8
0
10
6.710559
20
141.062665
11
6.960645
21
141.996000
0
LINE
8
0
10
6.960645
20
141.996000
11
6.710556
21
142.929335
0
LINE
8
0
10
6.710556
20
142.929335
11
6.027308
21
143.612584
0
LINE
8
0
10
6.027308
20
143.612584
11
5.093973
21
143.862670
0
LINE
8
0
10
5.093973
20
143.862670
11
4.160638
21
143.612584
0
LINE
8
0
10
4.160638
20
143.612584
11
3.477389
21
142.929335
0
LINE
8
0
10
3.477389
20
142.929335
11
3.227303
21
141.996000
0
LINE
8
0
10
3.227303
20
141.996000
11
3.227300
21
141.996000
0
LINE
8
0
10
-271.092000
20
141.996000
11
-270.843357
21
141.060840
0
LINE
8
0
10
-270.843357
20
141.060840
11
-270.159917
21
140.375816
0
LINE
8
0
10
-270.159917
20
140.375816
11
-269.225335
21
140.125010
0
LINE
8
0
10
-269.225335
20
140.125010
11
-268.290753
21
140.375816
0
LINE
8
0
10
-268.290753
20
140.375816
11
-267.607313
21
141.060840
0
LINE
8
0
10
-267.607313
20
141.060840
11
-267.358670
21
141.996000
0
LINE
8
0
10
-267.358670
20
141.996000
11
-267.607313
21
142.931160
0
LINE
8
0
10
-267.607313
20
142.931160
11
-268.290753
21
143.616184
0
LINE
8
0
10
-268.290753
20
143.616184
11
-269.225335
21
143.866990
0
LINE
8
0
10
-269.225335
20
143.866990
11
-270.159917
21
143.616184
0
LINE
8
0
10
-270.159917
20
143.616184
11
-270.843357
21
142.931160
0
LINE
8
0
10
-270.843357
20
142.931160
11
-271.092000
21
141.996000
0
LINE
8
0
10
-271.092000
20
141.996000
11
-271.092000
21
141.996000
0
LINE
8
0
10
-301.572000
20
116.596000
11
-301.321909
21
115.662665
0
LINE
8
0
10
-301.321909
20
115.662665
11
-300.638660
21
114.979416
0
LINE
8
0
10
-300.638660
20
114.979416
11
-299.705325
21
114.729330
0
LINE
8
0
10
-299.705325
20
114.729330
11
-298.771990
21
114.979416
0
LINE
8
0
10
-298.771990
20
114.979416
11
-298.088741
21
115.662665
0
LINE
8
0
10
-298.088741
20
115.662665
11
-297.838655
21
116.596000
0
LINE
8
0
10
-297.838655
20
116.596000
11
-298.088744
21
117.529335
0
LINE
8
0
10
-298.088744
20
117.529335
11
-298.771993
21
118.212584
0
LINE
8
0
10
-298.771993
20
118.212584
11
-299.705328
21
118.462670
0
LINE
8
0
10
-299.705328
20
118.462670
11
-300.638663
21
118.212584
0
LINE
8
0
10
-300.638663
20
118.212584
11
-301.321911
21
117.529335
0
LINE
8
0
10
-301.321911
20
117.529335
11
-301.571998
21
116.596000
0
LINE
8
0
10
-301.571998
20
116.596000
11
-301.572000
21
116.596000
0
LINE
8
0
10
-88.212600
20
141.996000
11
-87.963957
21
141.060840
0
LINE
8
0
10
-87.963957
20
141.060840
11
-87.280517
21
140.375816
0
LINE
8
0
10
-87.280517
20
140.375816
11
-86.345935
21
140.125010
0
LINE
8
0
10
-86.345935
20
140.125010
11
-85.411353
21
140.375816
0
LINE
8
0
10
-85.411353
20
140.375816
11
-84.727913
21
141.060840
0
LINE
8
0
10
-84.727913
20
141.060840
11
-84.479270
21
141.996000
0
LINE
8
0
10
-84.479270
20
141.996000
11
-84.727913
21
142.931160
0
LINE
8
0
10
-84.727913
20
142.931160
11
-85.411353
21
143.616184
0
LINE
8
0
10
-85.411353
20
143.616184
11
-86.345935
21
143.866990
0
LINE
8
0
10
-86.345935
20
143.866990
11
-87.280517
21
143.616184
0
LINE
8
0
10
-87.280517
20
143.616184
11
-87.963957
21
142.931160
0
LINE
8
0
10
-87.963957
20
142.931160
11
-88.212600
21
141.996000
0
LINE
8
0
10
-88.212600
20
141.996000
11
-88.212600
21
141.996000
0
LINE
8
0
10
-179.653000
20
141.996000
11
-179.404357
21
141.060840
0
LINE
8
0
10
-179.404357
20
141.060840
11
-178.720917
21
140.375816
0
LINE
8
0
10
-178.720917
20
140.375816
11
-177.786335
21
140.125010
0
LINE
8
0
10
-177.786335
20
140.125010
11
-176.851753
21
140.375816
0
LINE
8
0
10
-176.851753
20
140.375816
11
-176.168313
21
141.060840
0
LINE
8
0
10
-176.168313
20
141.060840
11
-175.919670
21
141.996000
0
LINE
8
0
10
-175.919670
20
141.996000
11
-176.168313
21
142.931160
0
LINE
8
0
10
-176.168313
20
142.931160
11
-176.851753
21
143.616184
0
LINE
8
0
10
-176.851753
20
143.616184
11
-177.786335
21
143.866990
0
LINE
8
0
10
-177.786335
20
143.866990
11
-178.720917
21
143.616184
0
LINE
8
0
10
-178.720917
20
143.616184
11
-179.404357
21
142.931160
0
LINE
8
0
10
-179.404357
20
142.931160
11
-179.653000
21
141.996000
0
LINE
8
0
10
-179.653000
20
141.996000
11
-179.653000
21
141.996000
0
LINE
8
0
10
-281.252000
20
116.596000
11
-281.003357
21
115.660840
0
LINE
8
0
10
-281.003357
20
115.660840
11
-280.319917
21
114.975816
0
LINE
8
0
10
-280.319917
20
114.975816
11
-279.385335
21
114.725010
0
LINE
8
0
10
-279.385335
20
114.725010
11
-278.450753
21
114.975816
0
LINE
8
0
10
-278.450753
20
114.975816
11
-277.767313
21
115.660840
0
LINE
8
0
10
-277.767313
20
115.660840
11
-277.518670
21
116.596000
0
LINE
8
0
10
-277.518670
20
116.596000
11
-277.767313
21
117.531160
0
LINE
8
0
10
-277.767313
20
117.531160
11
-278.450753
21
118.216184
0
LINE
8
0
10
-278.450753
20
118.216184
11
-279.385335
21
118.466990
0
LINE
8
0
10
-279.385335
20
118.466990
11
-280.319917
21
118.216184
0
LINE
8
0
10
-280.319917
20
118.216184
11
-281.003357
21
117.531160
0
LINE
8
0
10
-281.003357
20
117.531160
11
-281.252000
21
116.596000
0
LINE
8
0
10
-281.252000
20
116.596000
11
-281.252000
21
116.596000
0
LINE
8
0
10
-2.772710
20
129.766000
11
-2.661940
21
128.931064
0
LINE
8
0
10
-2.661940
20
128.931064
11
-2.343991
21
128.166000
0
LINE
8
0
10
-2.343991
20
128.166000
11
-1.840401
21
127.508116
0
LINE
8
0
10
-1.840401
20
127.508116
11
-1.172710
21
126.994719
0
LINE
8
0
10
-1.172710
20
126.994719
11
-0.394249
21
126.673180
0
LINE
8
0
10
-0.394249
20
126.673180
11
0.427290
21
126.566000
0
LINE
8
0
10
0.427290
20
126.566000
11
1.248829
21
126.673180
0
LINE
8
0
10
1.248829
20
126.673180
11
2.027290
21
126.994719
0
LINE
8
0
10
2.027290
20
126.994719
11
2.694981
21
127.508116
0
LINE
8
0
10
2.694981
20
127.508116
11
3.198571
21
128.166000
0
LINE
8
0
10
3.198571
20
128.166000
11
3.516520
21
128.931064
0
LINE
8
0
10
3.516520
20
128.931064
11
3.627290
21
129.766000
0
LINE
8
0
10
3.627290
20
129.766000
11
3.516520
21
130.600936
0
LINE
8
0
10
3.516520
20
130.600936
11
3.198571
21
131.366000
0
LINE
8
0
10
3.198571
20
131.366000
11
2.694981
21
132.023884
0
LINE
8
0
10
2.694981
20
132.023884
11
2.027290
21
132.537281
0
LINE
8
0
10
2.027290
20
132.537281
11
1.248829
21
132.858820
0
LINE
8
0
10
1.248829
20
132.858820
11
0.427290
21
132.966000
0
LINE
8
0
10
0.427290
20
132.966000
11
-0.394249
21
132.858820
0
LINE
8
0
10
-0.394249
20
132.858820
11
-1.172710
21
132.537281
0
LINE
8
0
10
-1.172710
20
132.537281
11
-1.840401
21
132.023884
0
LINE
8
0
10
-1.840401
20
132.023884
11
-2.343991
21
131.366000
0
LINE
8
0
10
-2.343991
20
131.366000
11
-2.661940
21
130.600936
0
LINE
8
0
10
-2.661940
20
130.600936
11
-2.772710
21
129.766000
0
LINE
8
0
10
-2.772710
20
129.766000
11
-2.772710
21
129.766000
0
LINE
8
0
10
-298.239000
20
129.766000
11
-298.128230
21
128.931064
0
LINE
8
0
10
-298.128230
20
128.931064
11
-297.810281
21
128.166000
0
LINE
8
0
10
-297.810281
20
128.166000
11
-297.306691
21
127.508116
0
LINE
8
0
10
-297.306691
20
127.508116
11
-296.639000
21
126.994719
0
LINE
8
0
10
-296.639000
20
126.994719
11
-295.860539
21
126.673180
0
LINE
8
0
10
-295.860539
20
126.673180
11
-295.039000
21
126.566000
0
LINE
8
0
10
-295.039000
20
126.566000
11
-294.217461
21
126.673180
0
LINE
8
0
10
-294.217461
20
126.673180
11
-293.439000
21
126.994719
0
LINE
8
0
10
-293.439000
20
126.994719
11
-292.771309
21
127.508116
0
LINE
8
0
10
-292.771309
20
127.508116
11
-292.267719
21
128.166000
0
LINE
8
0
10
-292.267719
20
128.166000
11
-291.949770
21
128.931064
0
LINE
8
0
10
-291.949770
20
128.931064
11
-291.839000
21
129.766000
0
LINE
8
0
10
-291.839000
20
129.766000
11
-291.949770
21
130.600936
0
LINE
8
0
10
-291.949770
20
130.600936
11
-292.267719
21
131.366000
0
LINE
8
0
10
-292.267719
20
131.366000
11
-292.771309
21
132.023884
0
LINE
8
0
10
-292.771309
20
132.023884
11
-293.439000
21
132.537281
0
LINE
8
0
10
-293.439000
20
132.537281
11
-294.217461
21
132.858820
0
LINE
8
0
10
-294.217461
20
132.858820
11
-295.039000
21
132.966000
0
LINE
8
0
10
-295.039000
20
132.966000
11
-295.860539
21
132.858820
0
LINE
8
0
10
-295.860539
20
132.858820
11
-296.639000
21
132.537281
0
LINE
8
0
10
-296.639000
20
132.537281
11
-297.306691
21
132.023884
0
LINE
8
0
10
-297.306691
20
132.023884
11
-297.810281
21
131.366000
0
LINE
8
0
10
-297.810281
20
131.366000
11
-298.128230
21
130.600936
0
LINE
8
0
10
-298.128230
20
130.600936
11
-298.239000
21
129.766000
0
LINE
8
0
10
-298.239000
20
129.766000
11
-298.239000
21
129.766000
0
LINE
8
0
10
-29.152700
20
129.766000
11
-28.988357
21
129.152665
0
LINE
8
0
10
-28.988357
20
129.152665
11
-28.539365
21
128.703673
0
LINE
8
0
10
-28.539365
20
128.703673
11
-27.926030
21
128.539330
0
LINE
8
0
10
-27.926030
20
128.539330
11
-27.312695
21
128.703673
0
LINE
8
0
10
-27.312695
20
128.703673
11
-26.863703
21
129.152665
0
LINE
8
0
10
-26.863703
20
129.152665
11
-26.699360
21
129.766000
0
LINE
8
0
10
-26.699360
20
129.766000
11
-26.863703
21
130.379335
0
LINE
8
0
10
-26.863703
20
130.379335
11
-27.312695
21
130.828327
0
LINE
8
0
10
-27.312695
20
130.828327
11
-27.926030
21
130.992670
0
LINE
8
0
10
-27.926030
20
130.992670
11
-28.539365
21
130.828327
0
LINE
8
0
10
-28.539365
20
130.828327
11
-28.988357
21
130.379335
0
LINE
8
0
10
-28.988357
20
130.379335
11
-29.152700
21
129.766000
0
LINE
8
0
10
-29.152700
20
129.766000
11
-29.152700
21
129.766000
0
LINE
8
0
10
-284.422000
20
35.316400
11
-284.259315
21
34.700974
0
LINE
8
0
10
-284.259315
20
34.700974
11
-283.810104
21
34.249946
0
LINE
8
0
10
-283.810104
20
34.249946
11
-283.195340
21
34.084777
0
LINE
8
0
10
-283.195340
20
34.084777
11
-282.580576
21
34.249946
0
LINE
8
0
10
-282.580576
20
34.249946
11
-282.131365
21
34.700974
0
LINE
8
0
10
-282.131365
20
34.700974
11
-281.968680
21
35.316400
0
LINE
8
0
10
-281.968680
20
35.316400
11
-282.131365
21
35.931826
0
LINE
8
0
10
-282.131365
20
35.931826
11
-282.580576
21
36.382854
0
LINE
8
0
10
-282.580576
20
36.382854
11
-283.195340
21
36.548023
0
LINE
8
0
10
-283.195340
20
36.548023
11
-283.810104
21
36.382854
0
LINE
8
0
10
-283.810104
20
36.382854
11
-284.259315
21
35.931826
0
LINE
8
0
10
-284.259315
20
35.931826
11
-284.422000
21
35.316400
0
LINE
8
0
10
-284.422000
20
35.316400
11
-284.422000
21
35.316400
0
LINE
8
0
10
-288.243000
20
129.766000
11
-288.079828
21
129.151186
0
LINE
8
0
10
-288.079828
20
129.151186
11
-287.630681
21
128.700754
0
LINE
8
0
10
-287.630681
20
128.700754
11
-287.016335
21
128.535828
0
LINE
8
0
10
-287.016335
20
128.535828
11
-286.401989
21
128.700754
0
LINE
8
0
10
-286.401989
20
128.700754
11
-285.952842
21
129.151186
0
LINE
8
0
10
-285.952842
20
129.151186
11
-285.789670
21
129.766000
0
LINE
8
0
10
-285.789670
20
129.766000
11
-285.952842
21
130.380814
0
LINE
8
0
10
-285.952842
20
130.380814
11
-286.401989
21
130.831246
0
LINE
8
0
10
-286.401989
20
130.831246
11
-287.016335
21
130.996172
0
LINE
8
0
10
-287.016335
20
130.996172
11
-287.630681
21
130.831246
0
LINE
8
0
10
-287.630681
20
130.831246
11
-288.079828
21
130.380814
0
LINE
8
0
10
-288.079828
20
130.380814
11
-288.243000
21
129.766000
0
LINE
8
0
10
-288.243000
20
129.766000
11
-288.243000
21
129.766000
0
LINE
8
0
10
-53.282700
20
35.316400
11
-53.119528
21
34.701586
0
LINE
8
0
10
-53.119528
20
34.701586
11
-52.670381
21
34.251154
0
LINE
8
0
10
-52.670381
20
34.251154
11
-52.056035
21
34.086228
0
LINE
8
0
10
-52.056035
20
34.086228
11
-51.441689
21
34.251154
0
LINE
8
0
10
-51.441689
20
34.251154
11
-50.992542
21
34.701586
0
LINE
8
0
10
-50.992542
20
34.701586
11
-50.829370
21
35.316400
0
LINE
8
0
10
-50.829370
20
35.316400
11
-50.992542
21
35.931214
0
LINE
8
0
10
-50.992542
20
35.931214
11
-51.441689
21
36.381646
0
LINE
8
0
10
-51.441689
20
36.381646
11
-52.056035
21
36.546572
0
LINE
8
0
10
-52.056035
20
36.546572
11
-52.670381
21
36.381646
0
LINE
8
0
10
-52.670381
20
36.381646
11
-53.119528
21
35.931214
0
LINE
8
0
10
-53.119528
20
35.931214
11
-53.282700
21
35.316400
0
LINE
8
0
10
-53.282700
20
35.316400
11
-53.282700
21
35.316400
0
LINE
8
0
10
-288.243000
20
129.766000
11
-288.079828
21
129.151186
0
LINE
8
0
10
-288.079828
20
129.151186
11
-287.630681
21
128.700754
0
LINE
8
0
10
-287.630681
20
128.700754
11
-287.016335
21
128.535828
0
LINE
8
0
10
-287.016335
20
128.535828
11
-286.401989
21
128.700754
0
LINE
8
0
10
-286.401989
20
128.700754
11
-285.952842
21
129.151186
0
LINE
8
0
10
-285.952842
20
129.151186
11
-285.789670
21
129.766000
0
LINE
8
0
10
-285.789670
20
129.766000
11
-285.952842
21
130.380814
0
LINE
8
0
10
-285.952842
20
130.380814
11
-286.401989
21
130.831246
0
LINE
8
0
10
-286.401989
20
130.831246
11
-287.016335
21
130.996172
0
LINE
8
0
10
-287.016335
20
130.996172
11
-287.630681
21
130.831246
0
LINE
8
0
10
-287.630681
20
130.831246
11
-288.079828
21
130.380814
0
LINE
8
0
10
-288.079828
20
130.380814
11
-288.243000
21
129.766000
0
LINE
8
0
10
-288.243000
20
129.766000
11
-288.243000
21
129.766000
 0 
ENDSEC
 0 
EOF