<?xml version="1.0" encoding="UTF-8" standalone="no"?>
<svg
   width="129.96448mm"
   height="2.0999999mm"
   viewBox="0 0 129.9645 2.0999997"
   version="1.1"
   id="svg8"
   inkscape:version="1.3.2 (091e20ef0f, 2023-11-25, custom)"
   sodipodi:docname="M75H_label.svg"
   inkscape:export-filename="/home/alvaro/Desktop/PCB_Comissions/M75H/resources/M75H_label_no_outline.png"
   inkscape:export-xdpi="5000"
   inkscape:export-ydpi="5000"
   xmlns:inkscape="http://www.inkscape.org/namespaces/inkscape"
   xmlns:sodipodi="http://sodipodi.sourceforge.net/DTD/sodipodi-0.dtd"
   xmlns="http://www.w3.org/2000/svg"
   xmlns:svg="http://www.w3.org/2000/svg"
   xmlns:rdf="http://www.w3.org/1999/02/22-rdf-syntax-ns#"
   xmlns:cc="http://creativecommons.org/ns#"
   xmlns:dc="http://purl.org/dc/elements/1.1/">
  <defs
     id="defs2">
    <rect
       x="-137.77324"
       y="42.006664"
       width="682.72797"
       height="21.222717"
       id="rect841" />
    <rect
       x="-96.415489"
       y="68.352554"
       width="592.32819"
       height="133.50233"
       id="rect835" />
    <rect
       x="-137.77324"
       y="42.006664"
       width="590.87091"
       height="316.39893"
       id="rect885" />
    <rect
       x="-137.77324"
       y="42.006664"
       width="590.87091"
       height="316.39893"
       id="rect1067" />
    <rect
       x="-96.415489"
       y="68.352554"
       width="592.32819"
       height="133.50233"
       id="rect2" />
    <rect
       x="-137.77324"
       y="42.006664"
       width="590.87091"
       height="316.39893"
       id="rect3" />
    <rect
       x="-137.77324"
       y="42.006664"
       width="682.72797"
       height="21.222717"
       id="rect4" />
    <rect
       x="-137.77324"
       y="42.006664"
       width="682.72797"
       height="21.222717"
       id="rect5" />
  </defs>
  <sodipodi:namedview
     id="base"
     pagecolor="#ffffff"
     bordercolor="#666666"
     borderopacity="1.0"
     inkscape:pageopacity="0.0"
     inkscape:pageshadow="2"
     inkscape:zoom="3.1782518"
     inkscape:cx="109.17952"
     inkscape:cy="-44.67865"
     inkscape:document-units="mm"
     inkscape:current-layer="layer1"
     inkscape:document-rotation="0"
     showgrid="false"
     inkscape:window-width="1920"
     inkscape:window-height="1043"
     inkscape:window-x="1920"
     inkscape:window-y="293"
     inkscape:window-maximized="1"
     inkscape:pagecheckerboard="0"
     inkscape:showpageshadow="2"
     inkscape:deskcolor="#d1d1d1" />
  <metadata
     id="metadata5">
    <rdf:RDF>
      <cc:Work
         rdf:about="">
        <dc:format>image/svg+xml</dc:format>
        <dc:type
           rdf:resource="http://purl.org/dc/dcmitype/StillImage" />
      </cc:Work>
    </rdf:RDF>
  </metadata>
  <g
     inkscape:label="Layer 1"
     inkscape:groupmode="layer"
     id="layer1"
     transform="translate(137.71502,-56.63821)">
    <text
       xml:space="preserve"
       id="text833"
       style="font-style:normal;font-variant:normal;font-weight:normal;font-stretch:normal;font-size:10.5833px;line-height:1.25;font-family:'Tengwar Annatar';-inkscape-font-specification:'Tengwar Annatar';letter-spacing:0px;word-spacing:0px;white-space:pre;shape-inside:url(#rect835);display:inline;fill:#000000;fill-opacity:1;stroke:none" />
    <text
       xml:space="preserve"
       id="text839"
       style="font-style:normal;font-variant:normal;font-weight:600;font-stretch:normal;font-size:10.5833px;line-height:1.25;font-family:'Open Sans';-inkscape-font-specification:'Open Sans Semi-Bold';letter-spacing:0px;word-spacing:0px;white-space:pre;shape-inside:url(#rect841);display:inline;fill:#000000;fill-opacity:1;stroke:#000000;stroke-width:0.488948;stroke-linecap:round;stroke-linejoin:round;stroke-miterlimit:4;stroke-dasharray:none;stroke-opacity:1"
       transform="matrix(0.20452054,0,0,0.20452054,-108.83521,34.73581)"><tspan
         x="-137.77344"
         y="51.383182"
         id="tspan2"><tspan
           style="font-weight:normal;font-family:Pirulen;-inkscape-font-specification:Pirulen"
           id="tspan1">M375HE-STM PCB rev. Alpha RC1 | Designed by Gondolindrim for Mode Designs</tspan></tspan></text>
    <text
       xml:space="preserve"
       id="text1"
       style="font-style:normal;font-variant:normal;font-weight:normal;font-stretch:normal;font-size:10.5833px;line-height:1.25;font-family:'Tengwar Annatar';-inkscape-font-specification:'Tengwar Annatar';letter-spacing:0px;word-spacing:0px;white-space:pre;shape-inside:url(#rect2);display:inline;fill:#000000;fill-opacity:1;stroke:none;stroke-width:0.4;stroke-dasharray:none"
       transform="translate(0,14.234247)" />
    <path
       style="font-size:10.5833px;line-height:1.25;font-family:Pirulen;-inkscape-font-specification:Pirulen;letter-spacing:0px;word-spacing:0px;white-space:pre;stroke:#000000;stroke-width:1.95579378;stroke-linecap:round;stroke-linejoin:round;stroke-dasharray:none"
       d="m -129.61761,51.383182 v -7.450643 h -1.20649 l -4.40265,6.085397 -4.42382,-6.085397 h -1.31233 v 7.450643 h 1.30174 v -5.206983 l 3.79941,5.206983 h 1.15358 l 3.78882,-5.217567 v 5.217567 z m 6.25473,0 c 1.84149,0 2.36008,-0.761998 2.36008,-1.608662 v -1.217079 c 0,-0.719664 -0.41275,-1.068913 -0.97367,-1.217079 0.52917,-0.105833 0.87842,-0.592665 0.87842,-1.238247 v -0.560914 c 0,-0.994831 -0.635,-1.608662 -2.286,-1.608662 h -4.97415 v 1.100663 h 4.97415 c 0.65617,0 0.87842,0.169333 0.87842,0.582082 v 0.645581 c 0,0.412749 -0.22225,0.582081 -0.87842,0.582081 h -4.65665 v 1.100664 h 4.67782 c 0.56092,0 0.9525,0.169332 0.9525,0.634998 v 0.93133 c 0,0.603248 -0.39158,0.772581 -0.9525,0.772581 h -4.99532 v 1.100663 z m 6.7204,0 4.96356,-6.561646 v -0.888997 h -8.33964 v 1.100663 h 6.75215 l -4.97415,6.34998 z m 11.13363,0 c 1.69333,0 2.33891,-0.730248 2.33891,-1.799161 v -1.312329 c 0,-1.068913 -0.64558,-1.799161 -2.33891,-1.799161 h -3.91582 v -1.439329 h 6.01131 v -1.100663 h -7.41889 v 3.640655 h 5.3234 c 0.635,0 0.93133,0.243416 0.93133,0.687915 v 1.333495 c 0,0.444499 -0.29633,0.687915 -0.93133,0.687915 h -5.3234 v 1.100663 z m 12.467138,0 v -7.450643 h -1.407579 v 2.963324 h -6.095979 v -2.963324 h -1.40758 v 7.450643 h 1.40758 v -3.386656 h 6.095979 v 3.386656 z m 9.038139,0 v -1.100663 h -6.25473 v -2.285993 h 5.937231 v -1.100663 h -5.937231 v -1.862661 h 6.25473 v -1.100663 h -7.662309 v 7.450643 z m 6.889985,-3.397239 v -1.174746 h -3.958154 v 1.174746 z m 9.168768,3.397239 c 1.693328,0 2.338909,-0.730248 2.338909,-1.799161 v -0.920747 c 0,-1.068913 -0.645581,-1.799161 -2.338909,-1.799161 h -4.381486 c -0.634998,0 -0.931331,-0.243416 -0.931331,-0.687914 v -0.455082 c 0,-0.444499 0.296333,-0.687915 0.931331,-0.687915 h 6.307646 v -1.100663 h -6.307646 c -1.693328,0 -2.338909,0.730248 -2.338909,1.799161 v 0.433915 c 0,1.068914 0.645581,1.799161 2.338909,1.799161 h 4.381486 c 0.634998,0 0.93133,0.243416 0.93133,0.687915 v 0.941913 c 0,0.444499 -0.296332,0.687915 -0.93133,0.687915 h -6.47698 v 1.100663 z m 8.117385,0 v -6.34998 h 3.799405 v -1.100663 h -9.112221 v 1.100663 h 3.905237 v 6.34998 z m 16.086629,0 v -7.450643 h -1.206496 l -4.402652,6.085397 -4.42382,-6.085397 h -1.312329 v 7.450643 h 1.301746 v -5.206983 l 3.799405,5.206983 h 1.153579 l 3.788821,-5.217567 v 5.217567 z m 12.774039,-2.751658 c 1.693328,0 2.338909,-0.730248 2.338909,-1.799161 V 45.7317 c 0,-1.068913 -0.645581,-1.799161 -2.338909,-1.799161 h -6.106564 v 7.450643 h 1.407579 v -2.751658 z m 0.93133,-1.788578 c 0,0.444499 -0.296332,0.687915 -0.93133,0.687915 h -4.698985 v -2.497659 h 4.698985 c 0.634998,0 0.93133,0.243416 0.93133,0.687915 z m 10.678555,4.540236 v -1.100663 h -6.000731 c -0.634998,0 -0.93133,-0.243416 -0.93133,-0.687915 v -3.873487 c 0,-0.444499 0.296332,-0.687915 0.93133,-0.687915 h 6.000731 v -1.100663 h -6.000731 c -1.693328,0 -2.338909,0.730248 -2.338909,1.799161 v 3.852321 c 0,1.068913 0.645581,1.799161 2.338909,1.799161 z m 7.270735,0 c 1.841494,0 2.3600757,-0.761998 2.3600757,-1.608662 v -1.090079 c 0,-0.719665 -0.4127487,-1.068914 -0.9736637,-1.21708 0.529165,-0.105833 0.878414,-0.592665 0.878414,-1.238246 v -0.687914 c 0,-0.994831 -0.634998,-1.608662 -2.285993,-1.608662 h -6.06423 v 7.450643 z m 0.952497,-1.873244 c 0,0.603248 -0.391582,0.772581 -0.952497,0.772581 h -4.677819 v -2.21191 h 4.677819 c 0.560915,0 0.952497,0.169333 0.952497,0.634998 z m -0.09525,-3.122073 c 0,0.412748 -0.222249,0.582081 -0.878414,0.582081 h -4.656652 v -1.936744 h 4.656652 c 0.656165,0 0.878414,0.169333 0.878414,0.582082 z M 5.4715473,51.383182 3.7147195,48.038859 C 5.037632,47.91186 5.5562137,47.223945 5.5562137,46.260865 V 45.7317 c 0,-1.068913 -0.6455813,-1.799161 -2.3389093,-1.799161 h -6.3288131 v 7.450643 h 1.4075788 v -3.323156 h 3.9264042 l 1.7462444,3.323156 z M 4.1486348,46.271448 c 0,0.444499 -0.2963324,0.687915 -0.9313304,0.687915 h -4.9212343 v -1.926161 h 4.9212343 c 0.634998,0 0.9313304,0.243416 0.9313304,0.687915 z M 14.350941,51.383182 V 50.282519 H 8.0962105 V 47.996526 H 14.033442 V 46.895863 H 8.0962105 V 45.033202 H 14.350941 V 43.932539 H 6.6886316 v 7.450643 z m 6.487556,0 4.921234,-7.450643 h -1.555745 l -3.852321,6.000731 -3.894654,-6.000731 h -1.598079 l 4.952985,7.450643 z m 5.746745,0 v -1.375829 h -1.661578 v 1.375829 z m 16.912114,0 -4.921234,-7.450643 h -1.02658 l -4.952984,7.450643 h 1.566328 l 3.905238,-6.000731 3.841737,6.000731 z m 8.149145,0 v -1.100663 h -6.043064 v -6.34998 h -1.418162 v 7.450643 z m 7.090818,-2.751658 c 1.693328,0 2.338909,-0.730248 2.338909,-1.799161 V 45.7317 c 0,-1.068913 -0.645581,-1.799161 -2.338909,-1.799161 h -6.106564 v 7.450643 h 1.407579 v -2.751658 z m 0.93133,-1.788578 c 0,0.444499 -0.296332,0.687915 -0.93133,0.687915 h -4.698985 v -2.497659 h 4.698985 c 0.634998,0 0.93133,0.243416 0.93133,0.687915 z m 11.302962,4.540236 v -7.450643 h -1.407578 v 2.963324 h -6.095981 v -2.963324 h -1.407579 v 7.450643 h 1.407579 v -3.386656 h 6.095981 v 3.386656 z m 11.588718,0 -4.921234,-7.450643 h -1.02658 l -4.952984,7.450643 h 1.566328 l 3.905238,-6.000731 3.841737,6.000731 z m 14.562631,0 -1.756828,-3.344323 c 1.322913,-0.126999 1.841495,-0.814914 1.841495,-1.777994 V 45.7317 c 0,-1.068913 -0.645582,-1.799161 -2.33891,-1.799161 h -6.328813 v 7.450643 h 1.407579 v -3.323156 h 3.926404 l 1.746245,3.323156 z m -1.322912,-5.111734 c 0,0.444499 -0.296333,0.687915 -0.931331,0.687915 h -4.921234 v -1.926161 h 4.921234 c 0.634998,0 0.931331,0.243416 0.931331,0.687915 z m 10.826722,5.111734 v -1.100663 h -6.00073 c -0.635001,0 -0.931333,-0.243416 -0.931333,-0.687915 v -3.873487 c 0,-0.444499 0.296332,-0.687915 0.931333,-0.687915 h 6.00073 v -1.100663 h -6.00073 c -1.693331,0 -2.338912,0.730248 -2.338912,1.799161 v 3.852321 c 0,1.068913 0.645581,1.799161 2.338912,1.799161 z m 3.95816,0 v -7.450643 h -1.95791 l -1.44991,1.640411 h 1.48166 l 0.51858,-0.592664 v 6.402896 z m 8.19147,1.164163 v -9.778969 h -0.98425 v 9.778969 z m 14.02287,-1.164163 c 2.10608,0 2.75166,-0.730248 2.75166,-2.127243 v -3.122074 c 0,-1.471078 -0.64558,-2.201326 -2.75166,-2.201326 h -6.82623 v 7.450643 z m 1.34408,-2.137827 c 0,0.793748 -0.29633,1.037164 -1.34408,1.037164 h -5.41865 v -5.249317 h 5.41865 c 1.04775,0 1.34408,0.243416 1.34408,1.100663 z m 10.39282,2.137827 v -1.100663 h -6.25473 v -2.285993 h 5.93723 v -1.100663 h -5.93723 v -1.862661 h 6.25473 v -1.100663 h -7.66231 v 7.450643 z m 7.76813,0 c 1.69333,0 2.33891,-0.730248 2.33891,-1.799161 v -0.920747 c 0,-1.068913 -0.64558,-1.799161 -2.33891,-1.799161 h -4.38148 c -0.635,0 -0.93133,-0.243416 -0.93133,-0.687914 v -0.455082 c 0,-0.444499 0.29633,-0.687915 0.93133,-0.687915 h 6.30764 v -1.100663 h -6.30764 c -1.69333,0 -2.33891,0.730248 -2.33891,1.799161 v 0.433915 c 0,1.068914 0.64558,1.799161 2.33891,1.799161 h 4.38148 c 0.635,0 0.93133,0.243416 0.93133,0.687915 v 0.941913 c 0,0.444499 -0.29633,0.687915 -0.93133,0.687915 h -6.47698 v 1.100663 z m 4.953,0 v -7.450643 h -1.40758 v 7.450643 z m 7.32362,0 c 1.76741,0 2.65641,-0.529165 2.65641,-1.587495 v -2.476492 h -1.40758 v 2.476492 c 0,0.328082 -0.41275,0.486832 -1.24883,0.486832 h -3.29141 c -0.83608,0 -1.24883,-0.169333 -1.24883,-0.507999 v -4.233319 c 0,-0.338666 0.41275,-0.507999 1.24883,-0.507999 h 5.8314 v -1.100663 h -5.8314 c -1.76741,0 -2.6564,0.539748 -2.6564,1.608662 v 4.233319 c 0,1.068914 0.88899,1.608662 2.6564,1.608662 z m 13.8218,0 v -7.450643 h -1.22767 v 5.535066 l -7.41889,-5.535066 h -1.21708 v 7.450643 h 1.22766 v -5.799648 l 7.94806,5.799648 z m 9.03814,0 v -1.100663 h -6.25473 v -2.285993 h 5.93723 v -1.100663 h -5.93723 v -1.862661 h 6.25473 v -1.100663 h -7.66231 v 7.450643 z m 8.02214,0 c 2.10607,0 2.75165,-0.730248 2.75165,-2.127243 v -3.122074 c 0,-1.471078 -0.64558,-2.201326 -2.75165,-2.201326 h -6.82623 v 7.450643 z m 1.34407,-2.137827 c 0,0.793748 -0.29633,1.037164 -1.34407,1.037164 h -5.41865 v -5.249317 h 5.41865 c 1.04774,0 1.34407,0.243416 1.34407,1.100663 z m 14.10757,2.137827 c 1.84149,0 2.36007,-0.761998 2.36007,-1.608662 v -1.090079 c 0,-0.719665 -0.41274,-1.068914 -0.97366,-1.21708 0.52917,-0.105833 0.87841,-0.592665 0.87841,-1.238246 v -0.687914 c 0,-0.994831 -0.63499,-1.608662 -2.28599,-1.608662 h -6.06423 v 7.450643 z m 0.9525,-1.873244 c 0,0.603248 -0.39159,0.772581 -0.9525,0.772581 h -4.67782 v -2.21191 h 4.67782 c 0.56091,0 0.9525,0.169333 0.9525,0.634998 z m -0.0952,-3.122073 c 0,0.412748 -0.22225,0.582081 -0.87842,0.582081 h -4.65665 v -1.936744 h 4.65665 c 0.65617,0 0.87842,0.169333 0.87842,0.582082 z m 7.85278,4.995317 v -3.026824 l 4.7519,-4.423819 h -1.77799 l -3.68299,3.407823 -3.68299,-3.407823 h -1.79916 l 4.78365,4.423819 v 3.026824 z m 16.62639,0 c 1.76741,0 2.6564,-0.529165 2.6564,-1.587495 v -2.476492 h -1.40757 v 2.476492 c 0,0.328082 -0.41275,0.486832 -1.24883,0.486832 h -3.29141 c -0.83608,0 -1.24883,-0.169333 -1.24883,-0.507999 v -4.233319 c 0,-0.338666 0.41275,-0.507999 1.24883,-0.507999 h 5.8314 v -1.100663 h -5.8314 c -1.76741,0 -2.65641,0.539748 -2.65641,1.608662 v 4.233319 c 0,1.068914 0.889,1.608662 2.65641,1.608662 z m 11.16538,0 c 1.69333,0 2.33891,-0.730248 2.33891,-1.799161 V 45.7317 c 0,-1.068913 -0.64558,-1.799161 -2.33891,-1.799161 h -4.92123 c -1.69333,0 -2.33891,0.730248 -2.33891,1.799161 v 3.852321 c 0,1.068913 0.64558,1.799161 2.33891,1.799161 z m 0.93133,-1.788578 c 0,0.444499 -0.29633,0.687915 -0.93133,0.687915 h -4.92123 c -0.635,0 -0.93133,-0.243416 -0.93133,-0.687915 v -3.873487 c 0,-0.444499 0.29633,-0.687915 0.93133,-0.687915 h 4.92123 c 0.635,0 0.93133,0.243416 0.93133,0.687915 z m 12.59413,1.788578 v -7.450643 h -1.22766 v 5.535066 l -7.4189,-5.535066 h -1.21708 v 7.450643 h 1.22767 v -5.799648 l 7.94806,5.799648 z m 8.20206,0 c 2.10608,0 2.75166,-0.730248 2.75166,-2.127243 v -3.122074 c 0,-1.471078 -0.64558,-2.201326 -2.75166,-2.201326 h -6.82622 v 7.450643 z m 1.34408,-2.137827 c 0,0.793748 -0.29633,1.037164 -1.34408,1.037164 h -5.41864 v -5.249317 h 5.41864 c 1.04775,0 1.34408,0.243416 1.34408,1.100663 z m 9.93771,2.137827 c 1.69333,0 2.33891,-0.730248 2.33891,-1.799161 V 45.7317 c 0,-1.068913 -0.64558,-1.799161 -2.33891,-1.799161 h -4.92123 c -1.69333,0 -2.33891,0.730248 -2.33891,1.799161 v 3.852321 c 0,1.068913 0.64558,1.799161 2.33891,1.799161 z m 0.93133,-1.788578 c 0,0.444499 -0.29633,0.687915 -0.93133,0.687915 h -4.92123 c -0.635,0 -0.93133,-0.243416 -0.93133,-0.687915 v -3.873487 c 0,-0.444499 0.29633,-0.687915 0.93133,-0.687915 h 4.92123 c 0.635,0 0.93133,0.243416 0.93133,0.687915 z m 10.19172,1.788578 v -1.100663 h -6.04307 v -6.34998 h -1.41816 v 7.450643 z m 2.44476,0 v -7.450643 h -1.40758 v 7.450643 z m 11.2924,0 v -7.450643 h -1.22767 v 5.535066 l -7.41889,-5.535066 h -1.21708 v 7.450643 h 1.22766 v -5.799648 l 7.94806,5.799648 z m 8.20203,0 c 2.10608,0 2.75166,-0.730248 2.75166,-2.127243 v -3.122074 c 0,-1.471078 -0.64558,-2.201326 -2.75166,-2.201326 h -6.82623 v 7.450643 z m 1.34408,-2.137827 c 0,0.793748 -0.29633,1.037164 -1.34408,1.037164 h -5.41865 v -5.249317 h 5.41865 c 1.04775,0 1.34408,0.243416 1.34408,1.100663 z m 11.31356,2.137827 -1.75682,-3.344323 c 1.32291,-0.126999 1.84149,-0.814914 1.84149,-1.777994 V 45.7317 c 0,-1.068913 -0.64558,-1.799161 -2.33891,-1.799161 h -6.32881 v 7.450643 h 1.40758 v -3.323156 h 3.9264 l 1.74625,3.323156 z m -1.32291,-5.111734 c 0,0.444499 -0.29633,0.687915 -0.93133,0.687915 h -4.92123 v -1.926161 h 4.92123 c 0.635,0 0.93133,0.243416 0.93133,0.687915 z m 4.00049,5.111734 v -7.450643 h -1.40757 v 7.450643 z m 12.77406,0 v -7.450643 h -1.2065 l -4.40265,6.085397 -4.42382,-6.085397 h -1.31233 v 7.450643 h 1.30175 v -5.206983 l 3.7994,5.206983 h 1.15358 l 3.78882,-5.217567 v 5.217567 z m 13.90643,-3.069157 v -1.100663 h -5.83139 v -2.18016 h 6.25473 v -1.100663 h -7.66231 v 7.450643 h 1.40758 v -3.069157 z m 8.39257,3.069157 c 1.69333,0 2.33891,-0.730248 2.33891,-1.799161 V 45.7317 c 0,-1.068913 -0.64558,-1.799161 -2.33891,-1.799161 h -4.92123 c -1.69333,0 -2.33891,0.730248 -2.33891,1.799161 v 3.852321 c 0,1.068913 0.64558,1.799161 2.33891,1.799161 z m 0.93133,-1.788578 c 0,0.444499 -0.29633,0.687915 -0.93133,0.687915 h -4.92123 c -0.635,0 -0.93133,-0.243416 -0.93133,-0.687915 v -3.873487 c 0,-0.444499 0.29633,-0.687915 0.93133,-0.687915 h 4.92123 c 0.635,0 0.93133,0.243416 0.93133,0.687915 z m 11.31355,1.788578 -1.75683,-3.344323 c 1.32291,-0.126999 1.8415,-0.814914 1.8415,-1.777994 V 45.7317 c 0,-1.068913 -0.64559,-1.799161 -2.33891,-1.799161 h -6.32882 v 7.450643 h 1.40758 v -3.323156 h 3.92641 l 1.74624,3.323156 z m -1.32291,-5.111734 c 0,0.444499 -0.29634,0.687915 -0.93133,0.687915 h -4.92124 v -1.926161 h 4.92124 c 0.63499,0 0.93133,0.243416 0.93133,0.687915 z m 19.17695,5.111734 v -7.450643 h -1.2065 l -4.40265,6.085397 -4.42382,-6.085397 h -1.31233 v 7.450643 h 1.30175 v -5.206983 l 3.7994,5.206983 h 1.15358 l 3.78882,-5.217567 v 5.217567 z m 8.58306,0 c 1.69332,0 2.33891,-0.730248 2.33891,-1.799161 V 45.7317 c 0,-1.068913 -0.64559,-1.799161 -2.33891,-1.799161 h -4.92124 c -1.69333,0 -2.33891,0.730248 -2.33891,1.799161 v 3.852321 c 0,1.068913 0.64558,1.799161 2.33891,1.799161 z m 0.93133,-1.788578 c 0,0.444499 -0.29634,0.687915 -0.93133,0.687915 h -4.92124 c -0.635,0 -0.93133,-0.243416 -0.93133,-0.687915 v -3.873487 c 0,-0.444499 0.29633,-0.687915 0.93133,-0.687915 h 4.92124 c 0.63499,0 0.93133,0.243416 0.93133,0.687915 z m 9.55669,1.788578 c 2.10607,0 2.75165,-0.730248 2.75165,-2.127243 v -3.122074 c 0,-1.471078 -0.64558,-2.201326 -2.75165,-2.201326 h -6.82623 v 7.450643 z m 1.34408,-2.137827 c 0,0.793748 -0.29634,1.037164 -1.34408,1.037164 h -5.41865 v -5.249317 h 5.41865 c 1.04774,0 1.34408,0.243416 1.34408,1.100663 z m 10.39282,2.137827 v -1.100663 h -6.25473 v -2.285993 h 5.93723 v -1.100663 h -5.93723 v -1.862661 h 6.25473 v -1.100663 h -7.66231 v 7.450643 z m 13.31382,0 c 2.10607,0 2.75165,-0.730248 2.75165,-2.127243 v -3.122074 c 0,-1.471078 -0.64558,-2.201326 -2.75165,-2.201326 h -6.82623 v 7.450643 z m 1.34408,-2.137827 c 0,0.793748 -0.29634,1.037164 -1.34408,1.037164 h -5.41865 v -5.249317 h 5.41865 c 1.04774,0 1.34408,0.243416 1.34408,1.100663 z m 10.39275,2.137827 v -1.100663 h -6.25473 v -2.285993 h 5.93724 v -1.100663 h -5.93724 v -1.862661 h 6.25473 v -1.100663 h -7.6623 v 7.450643 z m 7.7682,0 c 1.69333,0 2.33891,-0.730248 2.33891,-1.799161 v -0.920747 c 0,-1.068913 -0.64558,-1.799161 -2.33891,-1.799161 h -4.38149 c -0.63499,0 -0.93133,-0.243416 -0.93133,-0.687914 v -0.455082 c 0,-0.444499 0.29634,-0.687915 0.93133,-0.687915 h 6.30765 v -1.100663 h -6.30765 c -1.69332,0 -2.3389,0.730248 -2.3389,1.799161 v 0.433915 c 0,1.068914 0.64558,1.799161 2.3389,1.799161 h 4.38149 c 0.635,0 0.93133,0.243416 0.93133,0.687915 v 0.941913 c 0,0.444499 -0.29633,0.687915 -0.93133,0.687915 h -6.47698 v 1.100663 z m 4.95296,0 v -7.450643 h -1.40757 v 7.450643 z m 7.32363,0 c 1.76741,0 2.65641,-0.529165 2.65641,-1.587495 v -2.476492 h -1.40758 v 2.476492 c 0,0.328082 -0.41275,0.486832 -1.24883,0.486832 h -3.29141 c -0.83608,0 -1.24883,-0.169333 -1.24883,-0.507999 v -4.233319 c 0,-0.338666 0.41275,-0.507999 1.24883,-0.507999 h 5.8314 v -1.100663 h -5.8314 c -1.76741,0 -2.65641,0.539748 -2.65641,1.608662 v 4.233319 c 0,1.068914 0.889,1.608662 2.65641,1.608662 z m 13.82182,0 v -7.450643 h -1.22766 v 5.535066 l -7.41889,-5.535066 h -1.21708 v 7.450643 h 1.22766 v -5.799648 l 7.94806,5.799648 z m 7.94804,0 c 1.69333,0 2.33891,-0.730248 2.33891,-1.799161 v -0.920747 c 0,-1.068913 -0.64558,-1.799161 -2.33891,-1.799161 h -4.38149 c -0.635,0 -0.93133,-0.243416 -0.93133,-0.687914 v -0.455082 c 0,-0.444499 0.29633,-0.687915 0.93133,-0.687915 h 6.30765 v -1.100663 h -6.30765 c -1.69333,0 -2.33891,0.730248 -2.33891,1.799161 v 0.433915 c 0,1.068914 0.64558,1.799161 2.33891,1.799161 h 4.38149 c 0.635,0 0.93133,0.243416 0.93133,0.687915 v 0.941913 c 0,0.444499 -0.29633,0.687915 -0.93133,0.687915 h -6.47698 v 1.100663 z"
       id="text2"
       transform="matrix(0.20452054,0,0,0.20452054,-108.83521,47.941199)"
       aria-label="M375HE-STM PCB rev. Alpha RC1 | Designed by Gondolindrim for Mode Designs"
       sodipodi:nodetypes="ccccccccccccccssscsssccssssccssssccsccccccccssssccccccssssccscccccccccccccccccccccccccccccccssssssssccssssssssccscccccccccccccccccccccccssssccccsssccsssccssssccsssscssscsssccsssccsssssccsssccssscccccccssccssscccccccccccccccccccccccccccccccccccccccccssssccccsssccssscccccccccccccccccccccccssscccccccssccsssccssssccssssccccccccccccccssssccsssccssscccccccccccccssssssssccssssssssccscccccssccssssssccsssssccccccccccccccccccccccccssssccsssccsssssscsssccsssccsssssccsssccccccccccssccssssssccssssssssssssssssssssssscccccccccccssssccsssccssssssssssssssssssssscccccccccccccccccccccccssssccsssccsssccssscccccccssccsssccccccccccccccccccccccccccccccssssssssssssssssssccssscccccccssccsssccccccccccccccssssssssssssssssssssssccsssccssscccccccccccccssssccsssccssscccccccccccccssssssssccssssssssccscccccssccssssssccssssscccccccccccssssssssccssssssssccs" />
  </g>
</svg>
