<svg width="226" height="83" viewBox="0 0 226 83" fill="none" xmlns="http://www.w3.org/2000/svg">
<path d="M30.8438 61.1387L32.6992 60.2793C32.875 60.9173 33.1973 61.4056 33.666 61.7441C34.1348 62.0762 34.7337 62.2422 35.4629 62.2422C36.153 62.2422 36.6999 62.0501 37.1035 61.666C37.5137 61.2819 37.7188 60.7676 37.7188 60.123C37.7188 59.2832 37.0221 58.5345 35.6289 57.877C35.4336 57.7793 35.2839 57.7077 35.1797 57.6621C33.6042 56.8939 32.5527 56.2005 32.0254 55.582C31.5046 54.957 31.2441 54.1953 31.2441 53.2969C31.2441 52.1315 31.638 51.1875 32.4258 50.4648C33.2201 49.7422 34.2585 49.3809 35.541 49.3809C36.5957 49.3809 37.4779 49.5859 38.1875 49.9961C38.8971 50.3997 39.3887 50.9824 39.6621 51.7441L37.8457 52.6816C37.5592 52.2324 37.2435 51.9036 36.8984 51.6953C36.5599 51.487 36.1693 51.3828 35.7266 51.3828C35.1016 51.3828 34.6035 51.5456 34.2324 51.8711C33.8678 52.1966 33.6855 52.6328 33.6855 53.1797C33.6855 54.0391 34.4928 54.8398 36.1074 55.582C36.2311 55.6406 36.3288 55.6862 36.4004 55.7188C37.8132 56.3698 38.7832 57.0078 39.3105 57.6328C39.8379 58.2513 40.1016 59.026 40.1016 59.957C40.1016 61.3112 39.6751 62.3887 38.8223 63.1895C37.9694 63.9837 36.8171 64.3809 35.3652 64.3809C34.1478 64.3809 33.1484 64.1009 32.3672 63.541C31.5924 62.9811 31.0846 62.1803 30.8438 61.1387ZM47.0406 64V49.7031H55.0191V51.6758H49.3648V55.2598H55.0191V57.3008H49.3648V61.9199H55.0191V64H47.0406ZM66.6262 64.5566L60.2492 49.7031H62.6613L65.8645 57.3203C66.0533 57.763 66.2095 58.1732 66.3332 58.5508C66.4569 58.9219 66.5546 59.2767 66.6262 59.6152C66.7108 59.2572 66.8182 58.8861 66.9484 58.502C67.0786 58.1178 67.2316 57.724 67.4074 57.3203L70.6008 49.7031H73.0031L66.6262 64.5566ZM78.8484 64V49.7031H86.827V51.6758H81.1727V55.2598H86.827V57.3008H81.1727V61.9199H86.827V64H78.8484ZM93.893 64V49.1367L102.975 57.877C103.222 58.1243 103.473 58.388 103.727 58.668C103.981 58.9479 104.248 59.2637 104.528 59.6152V49.7031H106.676V64.5566L97.4086 55.6602C97.1612 55.4193 96.9203 55.1654 96.6859 54.8984C96.4581 54.6315 96.24 54.3516 96.0316 54.0586V64H93.893ZM118.986 51.6758V64H116.662V51.6758H112.863V49.7031H122.766V51.6758H118.986ZM132.019 64V57.457L127.205 49.7031H129.646L132.644 54.5566C132.716 54.6803 132.804 54.8431 132.908 55.0449C133.018 55.2467 133.129 55.4648 133.24 55.6992C133.331 55.4714 133.425 55.2565 133.523 55.0547C133.627 54.8529 133.735 54.6673 133.845 54.498L136.921 49.7031H139.246L134.324 57.457V64H132.019ZM145.198 64V49.7031H153.177V51.6758H147.523V55.2402H153.177V57.2812H147.523V64H145.198ZM160.145 64V49.7031H162.47V64H160.145ZM174.75 64.5566L168.373 49.7031H170.786L173.989 57.3203C174.177 57.763 174.334 58.1732 174.457 58.5508C174.581 58.9219 174.679 59.2767 174.75 59.6152C174.835 59.2572 174.942 58.8861 175.073 58.502C175.203 58.1178 175.356 57.724 175.532 57.3203L178.725 49.7031H181.127L174.75 64.5566ZM186.973 64V49.7031H194.951V51.6758H189.297V55.2598H194.951V57.3008H189.297V61.9199H194.951V64H186.973Z" fill="black"/>
<path d="M71.0953 1.86472C71.3698 2.3687 71.5242 2.82228 71.5585 3.22546C71.6272 3.62865 71.6615 4.21662 71.6615 4.98939V32.9602C71.6615 35.2785 71.0095 36.6393 69.7056 37.0424C69.0537 37.244 68.2301 37.3448 67.235 37.3448C66.24 37.3448 65.4507 37.2608 64.8674 37.0928C64.2841 36.9248 63.838 36.7233 63.5292 36.4881C63.2204 36.2529 62.9802 35.9169 62.8086 35.4801C62.637 34.9089 62.5513 34.0354 62.5513 32.8594V15.9761C61.6934 17.0177 60.441 18.6808 58.7939 20.9655C57.1469 23.2166 56.1003 24.6278 55.6542 25.1989C55.2082 25.7701 54.8993 26.1733 54.7278 26.4085C54.5562 26.6101 54.1273 26.9125 53.441 27.3156C52.7891 27.6852 52.0685 27.87 51.2793 27.87C50.5244 27.87 49.8209 27.702 49.169 27.366C48.5513 26.9965 48.1053 26.6437 47.8308 26.3077L47.419 25.7533C46.7327 24.9133 45.3774 23.1326 43.3529 20.4111C41.3284 17.6561 40.2303 16.1777 40.0588 15.9761V32.9602C40.0588 33.733 40.0244 34.321 39.9558 34.7241C39.9215 35.0937 39.7671 35.5137 39.4926 35.9841C38.9779 36.8912 37.6397 37.3448 35.4779 37.3448C33.3848 37.3448 32.0809 36.8912 31.5662 35.9841C31.2917 35.5137 31.1201 35.0769 31.0515 34.6737C31.0172 34.2706 31 33.6658 31 32.8594V4.88859C31 4.11583 31.0172 3.54465 31.0515 3.17507C31.1201 2.77188 31.2917 2.3183 31.5662 1.81432C32.0809 0.94076 33.4191 0.503978 35.5809 0.503978C36.5073 0.503978 37.2965 0.621574 37.9485 0.856765C38.6348 1.05836 39.0808 1.27675 39.2867 1.51194L39.5955 1.81432L51.2793 16.8329C57.1126 9.27321 61.0071 4.28382 62.963 1.86472C63.5463 0.957559 64.9189 0.503978 67.0806 0.503978C69.2767 0.503978 70.6149 0.957559 71.0953 1.86472Z" fill="#313131"/>
<path d="M98.1232 0C103.202 0 107.611 1.79752 111.351 5.39257C115.091 8.98762 116.961 13.4562 116.961 18.7984C116.961 24.107 115.177 28.6428 111.608 32.4058C108.04 36.1353 103.648 38 98.432 38C93.2164 38 88.7728 36.1521 85.1012 32.4562C81.464 28.7604 79.6454 24.359 79.6454 19.252C79.6454 16.4633 80.1601 13.8594 81.1895 11.4403C82.2189 8.98762 83.5915 6.93811 85.3071 5.29178C87.0228 3.64545 88.9958 2.3519 91.2262 1.41114C93.4566 0.47038 95.7556 0 98.1232 0ZM88.7556 19C88.7556 21.9903 89.7336 24.4262 91.6894 26.3077C93.6796 28.1556 95.8928 29.0796 98.3291 29.0796C100.765 29.0796 102.961 28.1724 104.917 26.3581C106.873 24.5438 107.851 22.1079 107.851 19.0504C107.851 15.9929 106.856 13.5402 104.866 11.6923C102.91 9.84439 100.714 8.92043 98.2776 8.92043C95.8414 8.92043 93.6453 9.86119 91.6894 11.7427C89.7336 13.5906 88.7556 16.0097 88.7556 19Z" fill="#313131"/>
<path d="M129.54 0.403184L139.062 0.453581C144.038 0.453581 148.413 2.21751 152.187 5.74536C155.962 9.23961 157.849 13.557 157.849 18.6976C157.849 23.8046 155.996 28.1892 152.29 31.8515C148.618 35.5137 144.158 37.3448 138.908 37.3448H129.489C127.396 37.3448 126.092 36.9248 125.577 36.0849C125.165 35.3793 124.959 34.3042 124.959 32.8594V4.8382C124.959 4.03183 124.976 3.44386 125.011 3.07427C125.079 2.70469 125.251 2.26791 125.525 1.76393C126.006 0.856765 127.344 0.403184 129.54 0.403184ZM139.062 28.4244C141.533 28.4244 143.763 27.534 145.753 25.7533C147.743 23.939 148.739 21.6711 148.739 18.9496C148.739 16.2281 147.761 13.9602 145.805 12.1459C143.883 10.298 141.619 9.374 139.011 9.374H134.07V28.4244H139.062Z" fill="#313131"/>
<path d="M174.942 28.4748H190.795C191.584 28.4748 192.168 28.5084 192.545 28.5756C192.957 28.6092 193.42 28.7604 193.935 29.0292C194.861 29.4996 195.324 30.8099 195.324 32.9602C195.324 35.3121 194.69 36.6897 193.42 37.0928C192.837 37.2944 191.944 37.3952 190.743 37.3952H170.361C167.959 37.3952 166.552 36.7569 166.141 35.4801C165.935 34.9425 165.832 34.0858 165.832 32.9098V4.88859C165.832 3.17507 166.158 2.01592 166.81 1.41114C167.462 0.772767 168.697 0.453581 170.516 0.453581H190.795C191.584 0.453581 192.168 0.48718 192.545 0.554378C192.957 0.587977 193.42 0.739169 193.935 1.00796C194.861 1.47834 195.324 2.78868 195.324 4.93899C195.324 7.29089 194.69 8.66844 193.42 9.07162C192.837 9.27321 191.944 9.374 190.743 9.374H174.942V14.4642H185.133C185.922 14.4642 186.506 14.4978 186.883 14.565C187.295 14.5986 187.758 14.7498 188.273 15.0186C189.199 15.4889 189.663 16.7993 189.663 18.9496C189.663 21.3015 189.011 22.679 187.707 23.0822C187.123 23.2838 186.231 23.3846 185.03 23.3846H174.942V28.4748Z" fill="#313131"/>
</svg>
